SplineFontDB: 2.0
FontName: Verachart-BoldOblique
FullName: Verachart Bold Oblique
FamilyName: Verachart
Weight: Bold
Copyright: Copyright (c) NECTEC, 2003. All rights reserved.\nModified under GNU General Public License by TLWG.
Version: 0.9.7: 2007-04-13
ItalicAngle: -10
UnderlinePosition: -170
UnderlineWidth: 10
Ascent: 1638
Descent: 410
Order2: 1
NeedsXUIDChange: 1
FSType: 0
OS2Version: 0
OS2_WeightWidthSlopeOnly: 0
OS2_UseTypoMetrics: 0
CreationTime: 1153662462
ModificationTime: 1184254488
PfmFamily: 33
TTFWeight: 700
TTFWidth: 5
LineGap: 0
VLineGap: 0
Panose: 2 11 6 4 2 2 2 2 2 4
OS2TypoAscent: 0
OS2TypoAOffset: 1
OS2TypoDescent: 0
OS2TypoDOffset: 1
OS2TypoLinegap: 0
OS2WinAscent: 0
OS2WinAOffset: 1
OS2WinDescent: 0
OS2WinDOffset: 1
HheadAscent: 0
HheadAOffset: 1
HheadDescent: 0
HheadDOffset: 1
OS2SubXSize: -3428
OS2SubYSize: 26328
OS2SubXOff: 0
OS2SubYOff: 0
OS2SupXSize: 26172
OS2SupYSize: 3
OS2SupXOff: -12668
OS2SupYOff: -12668
OS2StrikeYSize: 21536
OS2StrikeYPos: 90
OS2Vendor: 'PfEd'
Lookup: 6 0 0 "'ccmp' Glyph Composition/Decomposition in Thai lookup 0"  {"'ccmp' Glyph Composition/Decomposition in Thai lookup 0"  } ['ccmp' ('thai' <'KUY ' 'PAL ' 'THA ' 'dflt' > ) ]
Lookup: 6 0 0 "'ccmp' Glyph Composition/Decomposition in Thai lookup 1"  {"'ccmp' Glyph Composition/Decomposition in Thai lookup 1"  } ['ccmp' ('thai' <'KUY ' 'PAL ' 'THA ' 'dflt' > ) ]
Lookup: 4 0 1 "'liga' Standard Ligatures in Latin lookup 2"  {"'liga' Standard Ligatures in Latin lookup 2"  } ['liga' ('latn' <'dflt' > ) ]
Lookup: 4 0 0 "'frac' Diagonal Fractions in Thai lookup 3"  {"'frac' Diagonal Fractions in Thai lookup 3"  } ['frac' ('thai' <'KUY ' 'PAL ' 'THA ' 'dflt' > ) ]
Lookup: 5 0 0 "Required Feature in Thai lookup 4"  {"Required Feature in Thai lookup 4"  } [' RQD' ('thai' <'PAL ' > ) ]
Lookup: 1 0 0 "Single Substitution lookup 5"  {"Single Substitution lookup 5"  } []
Lookup: 2 0 0 "Multiple Substitution lookup 6"  {"Multiple Substitution lookup 6"  } []

StartChar: .notdef
Encoding: 65536 -1 0
Width: 1229
Flags: HW
HStem: -362 114<217 1012> 1329 115<217 1012>
VStem: 102 115<-248 1329> 1012 114<-248 1329>
Fore
38 -362 m 1,0,-1
 357 1444 l 1,1,-1
 1381 1444 l 1,2,-1
 1062 -362 l 1,3,-1
 38 -362 l 1,0,-1
173 -248 m 1,4,-1
 968 -248 l 1,5,-1
 1246 1329 l 1,6,-1
 451 1329 l 1,7,-1
 173 -248 l 1,4,-1
EndSplineSet
EndChar
StartChar: uni0E4D.high
Encoding: 63262 63262 2
Width: 0
Flags: HW
TeX: 0 0 0 0
HStem: 1750 152<-319.5 -215.5> 2094 152<-319.5 -215.5>
VStem: -516 152<1945.5 2049.5> -172 152<1945.5 2049.5>
AnchorPoint: "AboveMark" 37.7559 1700 mark 0
Fore
-163 1997 m 128,-1,1
 -145 2100 -145 2100 -60 2173 c 128,-1,2
 25 2246 25 2246 128 2246 c 128,-1,3
 231 2246 231 2246 291 2173 c 128,-1,4
 351 2100 351 2100 333 1997 c 128,-1,5
 315 1894 315 1894 229.5 1822 c 128,-1,6
 144 1750 144 1750 41 1750 c 128,-1,7
 -62 1750 -62 1750 -121.5 1822 c 128,-1,0
 -181 1894 -181 1894 -163 1997 c 128,-1,1
-11 1998 m 128,-1,9
 -18 1958 -18 1958 5 1930 c 128,-1,10
 28 1902 28 1902 68 1902 c 128,-1,11
 108 1902 108 1902 141 1930 c 128,-1,12
 174 1958 174 1958 181 1998 c 128,-1,13
 188 2038 188 2038 165 2066 c 128,-1,14
 142 2094 142 2094 102 2094 c 128,-1,15
 62 2094 62 2094 29 2066 c 128,-1,8
 -4 2038 -4 2038 -11 1998 c 128,-1,9
EndSplineSet
EndChar
StartChar: exclam
Encoding: 33 33 5
Width: 934
Flags: HW
HStem: 0 356<287 647>
VStem: 287 360<0 356 869.643 1493>
Fore
550 1493 m 1,0,-1
 910 1493 l 1,1,-1
 809 920 l 1,2,-1
 685 502 l 1,3,-1
 427 502 l 1,4,-1
 449 920 l 1,5,-1
 550 1493 l 1,0,-1
350 356 m 1,6,-1
 710 356 l 1,7,-1
 647 0 l 1,8,-1
 287 0 l 1,9,-1
 350 356 l 1,6,-1
EndSplineSet
EndChar
StartChar: quotedbl
Encoding: 34 34 6
Width: 1067
Flags: HW
VStem: 195 237<938 1493> 635 237<938 1493>
Fore
1135 1493 m 1,0,-1
 1037 938 l 1,1,-1
 800 938 l 1,2,-1
 898 1493 l 1,3,-1
 1135 1493 l 1,0,-1
695 1493 m 1,4,-1
 597 938 l 1,5,-1
 360 938 l 1,6,-1
 458 1493 l 1,7,-1
 695 1493 l 1,4,-1
EndSplineSet
EndChar
StartChar: numbersign
Encoding: 35 35 7
Width: 1716
Flags: HW
HStem: 0 21G<322 545 809 1030> 383 215<139 418 690 905 1178 1462> 872 213<254 537 815 1024 1300 1577> 1450 20G<688 911 1176 1397>
Fore
1170 1470 m 1,0,-1
 1006 1085 l 1,1,-1
 1270 1085 l 1,2,-1
 1435 1470 l 1,3,-1
 1656 1470 l 1,4,-1
 1491 1085 l 1,5,-1
 1768 1085 l 1,6,-1
 1731 872 l 1,7,-1
 1401 872 l 1,8,-1
 1283 598 l 1,9,-1
 1567 598 l 1,10,-1
 1530 383 l 1,11,-1
 1194 383 l 1,12,-1
 1030 0 l 1,13,-1
 809 0 l 1,14,-1
 973 383 l 1,15,-1
 709 383 l 1,16,-1
 545 0 l 1,17,-1
 322 0 l 1,18,-1
 486 383 l 1,19,-1
 207 383 l 1,20,-1
 244 598 l 1,21,-1
 572 598 l 1,22,-1
 691 872 l 1,23,-1
 408 872 l 1,24,-1
 445 1085 l 1,25,-1
 783 1085 l 1,26,-1
 947 1470 l 1,27,-1
 1170 1470 l 1,0,-1
1178 872 m 1,28,-1
 914 872 l 1,29,-1
 795 598 l 1,30,-1
 1059 598 l 1,31,-1
 1178 872 l 1,28,-1
EndSplineSet
EndChar
StartChar: dollar
Encoding: 36 36 8
Width: 1425
Flags: HW
HStem: 0 228<475.7 633>
VStem: 633 162<-301 0 232 510 836 1097 1329 1556>
Fore
742 -301 m 1,0,-1
 580 -301 l 1,1,-1
 632 0 l 1,2,3
 508 5 508 5 395 28 c 128,-1,4
 282 51 282 51 178 92 c 1,5,-1
 224 354 l 1,6,7
 329 295 329 295 441 263.5 c 128,-1,8
 553 232 553 232 673 228 c 1,9,-1
 728 539 l 1,10,-1
 696 545 l 2,11,12
 465 587 465 587 380 677 c 128,-1,13
 295 767 295 767 325 936 c 0,14,15
 357 1115 357 1115 497 1215.5 c 128,-1,16
 637 1316 637 1316 866 1325 c 1,17,-1
 907 1556 l 1,18,-1
 1069 1556 l 1,19,-1
 1029 1329 l 1,20,21
 1128 1321 1128 1321 1225 1304 c 128,-1,22
 1322 1287 1322 1287 1418 1260 c 1,23,-1
 1373 1006 l 1,24,25
 1281 1048 1281 1048 1185 1071.5 c 128,-1,26
 1089 1095 1089 1095 989 1100 c 1,27,-1
 938 813 l 1,28,-1
 969 807 l 2,29,30
 1216 767 1216 767 1302 673.5 c 128,-1,31
 1388 580 1388 580 1356 397 c 0,32,33
 1324 213 1324 213 1184.5 114.5 c 128,-1,34
 1045 16 1045 16 795 2 c 1,35,-1
 742 -301 l 1,0,-1
780 836 m 1,36,-1
 826 1097 l 1,37,38
 755 1093 755 1093 706.5 1058.5 c 128,-1,39
 658 1024 658 1024 648 971 c 0,40,41
 638 912 638 912 671 878.5 c 128,-1,42
 704 845 704 845 780 836 c 1,36,-1
885 510 m 1,43,-1
 836 232 l 1,44,45
 923 233 923 233 972.5 266 c 128,-1,46
 1022 299 1022 299 1033 365 c 0,47,48
 1045 433 1045 433 1011 466.5 c 128,-1,49
 977 500 977 500 885 510 c 1,43,-1
EndSplineSet
EndChar
StartChar: percent
Encoding: 37 37 9
Width: 2052
Flags: HW
HStem: -29 170<1493.41 1680.6> 616 168<1494.71 1679.29> 707 167<371.4 558.6> 1352 168<371.4 557.3>
VStem: 66 249<964.493 1262.21> 614 250<964.5 1262.2> 1186 252<229.5 527.2> 1735 252<229.5 527.2>
Fore
1696 616 m 256,0,1
 1625 616 1625 616 1575 554.5 c 128,-1,2
 1525 493 1525 493 1505 379 c 0,3,4
 1485 264 1485 264 1512.5 202.5 c 128,-1,5
 1540 141 1540 141 1612 141 c 256,6,7
 1684 141 1684 141 1733 202.5 c 128,-1,8
 1782 264 1782 264 1802 379 c 0,9,10
 1822 493 1822 493 1794.5 554.5 c 128,-1,11
 1767 616 1767 616 1696 616 c 256,0,1
1725 784 m 256,12,13
 1911 784 1911 784 1999 676 c 128,-1,14
 2087 568 2087 568 2054 379 c 256,15,16
 2021 190 2021 190 1894.5 80.5 c 128,-1,17
 1768 -29 1768 -29 1582 -29 c 256,18,19
 1396 -29 1396 -29 1307.5 80.5 c 128,-1,20
 1219 190 1219 190 1253 379 c 0,21,22
 1286 567 1286 567 1412.5 675.5 c 128,-1,23
 1539 784 1539 784 1725 784 c 256,12,13
665 -29 m 1,24,-1
 444 -29 l 1,25,-1
 1650 1520 l 1,26,-1
 1872 1520 l 1,27,-1
 665 -29 l 1,24,-1
733 1520 m 256,28,29
 919 1520 919 1520 1006.5 1411.5 c 128,-1,30
 1094 1303 1094 1303 1060 1114 c 256,31,32
 1027 925 1027 925 901.5 816 c 128,-1,33
 776 707 776 707 590 707 c 256,34,35
 404 707 404 707 316.5 816 c 128,-1,36
 229 925 229 925 262 1114 c 256,37,38
 296 1303 296 1303 421.5 1411.5 c 128,-1,39
 547 1520 547 1520 733 1520 c 256,28,29
703 1352 m 0,40,41
 631 1352 631 1352 581.5 1290 c 128,-1,42
 532 1228 532 1228 511 1114 c 0,43,44
 491 999 491 999 519 936.5 c 128,-1,45
 547 874 547 874 619 874 c 256,46,47
 691 874 691 874 740.5 936.5 c 128,-1,48
 790 999 790 999 810 1114 c 0,49,50
 831 1228 831 1228 802.5 1290 c 128,-1,51
 774 1352 774 1352 703 1352 c 0,40,41
EndSplineSet
EndChar
StartChar: ampersand
Encoding: 38 38 10
Width: 1786
Flags: HW
HStem: -29 258<603.3 849.766> 1278 242<763.9 966.573>
VStem: 123 346<356.5 598.3>
Fore
974 991 m 2,0,-1
 1303 541 l 1,1,2
 1369 611 1369 611 1411.5 698 c 128,-1,3
 1454 785 1454 785 1479 895 c 1,4,-1
 1790 895 l 1,5,6
 1743 713 1743 713 1662.5 571 c 128,-1,7
 1582 429 1582 429 1464 322 c 1,8,-1
 1700 0 l 1,9,-1
 1276 0 l 1,10,-1
 1197 109 l 1,11,12
 1080 39 1080 39 958 5 c 128,-1,13
 836 -29 836 -29 706 -29 c 0,14,15
 443 -29 443 -29 305 109.5 c 128,-1,16
 167 248 167 248 205 467 c 0,17,18
 231 613 231 613 322.5 725.5 c 128,-1,19
 414 838 414 838 594 944 c 1,20,21
 562 997 562 997 551 1050 c 128,-1,22
 540 1103 540 1103 551 1161 c 0,23,24
 579 1324 579 1324 723.5 1422 c 128,-1,25
 868 1520 868 1520 1079 1520 c 0,26,27
 1170 1520 1170 1520 1266 1505.5 c 128,-1,28
 1362 1491 1362 1491 1464 1462 c 1,29,-1
 1415 1184 l 1,30,31
 1329 1232 1329 1232 1249 1255 c 128,-1,32
 1169 1278 1169 1278 1089 1278 c 0,33,34
 1012 1278 1012 1278 964.5 1248.5 c 128,-1,35
 917 1219 917 1219 907 1165 c 0,36,37
 901 1131 901 1131 918 1087.5 c 128,-1,38
 935 1044 935 1044 974 991 c 2,0,-1
731 743 m 1,39,40
 658 696 658 696 614.5 636.5 c 128,-1,41
 571 577 571 577 558 506 c 0,42,43
 538 391 538 391 608.5 310 c 128,-1,44
 679 229 679 229 798 229 c 0,45,46
 865 229 865 229 927 249.5 c 128,-1,47
 989 270 989 270 1046 311 c 1,48,-1
 731 743 l 1,39,40
EndSplineSet
EndChar
StartChar: quotesingle
Encoding: 39 39 11
Width: 627
Flags: HW
VStem: 195 237<938 1493>
Fore
695 1493 m 1,0,-1
 597 938 l 1,1,-1
 360 938 l 1,2,-1
 458 1493 l 1,3,-1
 695 1493 l 1,0,-1
EndSplineSet
EndChar
StartChar: parenleft
Encoding: 40 40 12
Width: 936
Flags: HW
VStem: 176 340<356.3 925.7>
Fore
724 -270 m 1,0,-1
 427 -270 l 1,1,2
 318 -23 318 -23 284 199.5 c 128,-1,3
 250 422 250 422 289 641 c 256,4,5
 328 860 328 860 441 1084.5 c 128,-1,6
 554 1309 554 1309 749 1554 c 1,7,-1
 1046 1554 l 1,8,9
 876 1317 876 1317 772 1090.5 c 128,-1,10
 668 864 668 864 629 643 c 256,11,12
 590 422 590 422 613.5 195 c 128,-1,13
 637 -32 637 -32 724 -270 c 1,0,-1
EndSplineSet
EndChar
StartChar: parenright
Encoding: 41 41 13
Width: 936
Flags: HW
VStem: 420 340<356.3 925.7>
Fore
116 -270 m 1,0,1
 286 -32 286 -32 390 195 c 128,-1,2
 494 422 494 422 533 643 c 256,3,4
 572 864 572 864 548 1090.5 c 128,-1,5
 524 1317 524 1317 438 1554 c 1,6,-1
 735 1554 l 1,7,8
 844 1309 844 1309 878 1084.5 c 128,-1,9
 912 860 912 860 873 641 c 256,10,11
 834 422 834 422 722 199.5 c 128,-1,12
 610 -23 610 -23 413 -270 c 1,13,-1
 116 -270 l 1,0,1
EndSplineSet
EndChar
StartChar: asterisk
Encoding: 42 42 14
Width: 1071
Flags: HW
VStem: 451 170<569 913 1176 1520>
Fore
1245 1217 m 1,0,-1
 884 1044 l 1,1,-1
 1183 870 l 1,2,-1
 1083 729 l 1,3,-1
 782 913 l 1,4,-1
 721 569 l 1,5,-1
 551 569 l 1,6,-1
 612 913 l 1,7,-1
 246 729 l 1,8,-1
 194 870 l 1,9,-1
 559 1044 l 1,10,-1
 256 1217 l 1,11,-1
 356 1358 l 1,12,-1
 658 1176 l 1,13,-1
 719 1520 l 1,14,-1
 889 1520 l 1,15,-1
 828 1176 l 1,16,-1
 1193 1358 l 1,17,-1
 1245 1217 l 1,0,-1
EndSplineSet
EndChar
StartChar: plus
Encoding: 43 43 15
Width: 1716
Flags: HW
HStem: 0 21G<739 977> 524 236<217 739 977 1499>
VStem: 739 238<0 524 760 1284>
Fore
1203 1284 m 1,0,-1
 1111 760 l 1,1,-1
 1633 760 l 1,2,-1
 1591 524 l 1,3,-1
 1069 524 l 1,4,-1
 977 0 l 1,5,-1
 739 0 l 1,6,-1
 831 524 l 1,7,-1
 309 524 l 1,8,-1
 351 760 l 1,9,-1
 873 760 l 1,10,-1
 965 1284 l 1,11,-1
 1203 1284 l 1,0,-1
EndSplineSet
EndChar
StartChar: comma
Encoding: 44 44 16
Width: 778
Flags: HW
VStem: 209 360<82 387>
Fore
277 387 m 1,0,-1
 637 387 l 1,1,-1
 583 82 l 1,2,-1
 271 -291 l 1,3,-1
 58 -291 l 1,4,-1
 223 82 l 1,5,-1
 277 387 l 1,0,-1
EndSplineSet
EndChar
StartChar: hyphen
Encoding: 45 45 17
Width: 850
Flags: HW
HStem: 444 291<111 739>
Fore
241 735 m 1,0,-1
 869 735 l 1,1,-1
 817 444 l 1,2,-1
 189 444 l 1,3,-1
 241 735 l 1,0,-1
EndSplineSet
EndChar
StartChar: period
Encoding: 46 46 18
Width: 778
Flags: HW
HStem: 0 387<209 569>
VStem: 209 360<0 387>
Fore
277 387 m 1,0,-1
 637 387 l 1,1,-1
 569 0 l 1,2,-1
 209 0 l 1,3,-1
 277 387 l 1,0,-1
EndSplineSet
EndChar
StartChar: slash
Encoding: 47 47 19
Width: 748
Flags: HW
VStem: 0 748<-190 1493>
Fore
789 1493 m 1,0,-1
 1011 1493 l 1,1,-1
 187 -190 l 1,2,-1
 -34 -190 l 1,3,-1
 789 1493 l 1,0,-1
EndSplineSet
EndChar
StartChar: zero
Encoding: 48 48 20
Width: 1425
Flags: HW
HStem: -29 262<551.8 872.9> 1257 263<551.8 874.2>
VStem: 98 385<380.1 1112.01> 942 385<380.1 1112>
Fore
1074 748 m 0,0,1
 1123 1028 1123 1028 1091 1142.5 c 128,-1,2
 1059 1257 1059 1257 935 1257 c 256,3,4
 811 1257 811 1257 737.5 1142.5 c 128,-1,5
 664 1028 664 1028 615 748 c 0,6,7
 565 465 565 465 597.5 349 c 128,-1,8
 630 233 630 233 754 233 c 0,9,10
 877 233 877 233 950.5 349 c 128,-1,11
 1024 465 1024 465 1074 748 c 0,0,1
1458 745 m 0,12,13
 1393 374 1393 374 1197.5 172.5 c 128,-1,14
 1002 -29 1002 -29 708 -29 c 0,15,16
 413 -29 413 -29 288.5 172.5 c 128,-1,17
 164 374 164 374 229 745 c 0,18,19
 295 1117 295 1117 490.5 1318.5 c 128,-1,20
 686 1520 686 1520 981 1520 c 0,21,22
 1275 1520 1275 1520 1399.5 1318.5 c 128,-1,23
 1524 1117 1524 1117 1458 745 c 0,12,13
EndSplineSet
EndChar
StartChar: one
Encoding: 49 49 21
Width: 1425
Flags: HW
HStem: 0 266<240 580 944 1284>
VStem: 580 364<266 1231>
Fore
287 266 m 1,0,-1
 627 266 l 1,1,-1
 797 1231 l 1,2,-1
 435 1159 l 1,3,-1
 482 1421 l 1,4,-1
 841 1493 l 1,5,-1
 1207 1493 l 1,6,-1
 991 266 l 1,7,-1
 1331 266 l 1,8,-1
 1284 0 l 1,9,-1
 240 0 l 1,10,-1
 287 266 l 1,0,-1
EndSplineSet
EndChar
StartChar: two
Encoding: 50 50 22
Width: 1425
Flags: HW
HStem: 0 283<590 1247> 1257 263<506.716 744.1>
Fore
640 283 m 1,0,-1
 1297 283 l 1,1,-1
 1247 0 l 1,2,-1
 162 0 l 1,3,-1
 212 283 l 1,4,-1
 842 764 l 2,5,6
 926 830 926 830 972.5 893 c 128,-1,7
 1019 956 1019 956 1031 1024 c 0,8,9
 1049 1129 1049 1129 990 1193 c 128,-1,10
 931 1257 931 1257 814 1257 c 0,11,12
 724 1257 724 1257 610 1218.5 c 128,-1,13
 496 1180 496 1180 361 1104 c 1,14,-1
 418 1432 l 1,15,16
 556 1475 556 1475 687 1497.5 c 128,-1,17
 818 1520 818 1520 940 1520 c 0,18,19
 1208 1520 1208 1520 1335.5 1402 c 128,-1,20
 1463 1284 1463 1284 1426 1073 c 0,21,22
 1405 951 1405 951 1323 845.5 c 128,-1,23
 1241 740 1241 740 1008 563 c 2,24,-1
 640 283 l 1,0,-1
EndSplineSet
EndChar
StartChar: three
Encoding: 51 51 23
Width: 1425
Flags: HW
HStem: -29 262<427.607 759.9> 645 248<393 743.5> 1257 263<473.957 741.8>
VStem: 877 385<309.3 570.6>
Fore
1096 805 m 1,0,1
 1240 766 1240 766 1301.5 669.5 c 128,-1,2
 1363 573 1363 573 1337 424 c 0,3,4
 1298 202 1298 202 1107.5 86.5 c 128,-1,5
 917 -29 917 -29 591 -29 c 0,6,7
 476 -29 476 -29 363.5 -10.5 c 128,-1,8
 251 8 251 8 145 45 c 1,9,-1
 197 342 l 1,10,11
 296 288 296 288 397.5 260.5 c 128,-1,12
 499 233 499 233 602 233 c 0,13,14
 755 233 755 233 846 286 c 128,-1,15
 937 339 937 339 954 438 c 0,16,17
 972 540 972 540 898 592.5 c 128,-1,18
 824 645 824 645 661 645 c 2,19,-1
 507 645 l 1,20,-1
 550 893 l 1,21,-1
 712 893 l 2,22,23
 857 893 857 893 936.5 938.5 c 128,-1,24
 1016 984 1016 984 1032 1077 c 0,25,26
 1047 1163 1047 1163 986.5 1210 c 128,-1,27
 926 1257 926 1257 800 1257 c 0,28,29
 707 1257 707 1257 608 1236 c 128,-1,30
 509 1215 509 1215 408 1174 c 1,31,-1
 458 1456 l 1,32,33
 577 1488 577 1488 692 1504 c 128,-1,34
 807 1520 807 1520 915 1520 c 0,35,36
 1206 1520 1206 1520 1333.5 1424.5 c 128,-1,37
 1461 1329 1461 1329 1427 1137 c 0,38,39
 1404 1006 1404 1006 1320.5 922.5 c 128,-1,40
 1237 839 1237 839 1096 805 c 1,0,1
EndSplineSet
EndChar
StartChar: four
Encoding: 52 52 24
Width: 1425
Flags: HW
HStem: 0 21G<754 1118> 272 279<332 754 1118 1331>
VStem: 754 364<0 272 551 1176>
Fore
961 1176 m 1,0,-1
 429 551 l 1,1,-1
 851 551 l 1,2,-1
 961 1176 l 1,0,-1
953 1493 m 1,3,-1
 1381 1493 l 1,4,-1
 1215 551 l 1,5,-1
 1428 551 l 1,6,-1
 1379 272 l 1,7,-1
 1166 272 l 1,8,-1
 1118 0 l 1,9,-1
 754 0 l 1,10,-1
 802 272 l 1,11,-1
 140 272 l 1,12,-1
 198 602 l 1,13,-1
 953 1493 l 1,3,-1
EndSplineSet
EndChar
StartChar: five
Encoding: 53 53 25
Width: 1425
Flags: HW
HStem: -29 262<491.9 778> 741 263<588.373 778> 1210 283<524 1174>
VStem: 217 307<979 1210> 897 385<334.9 640.4>
Fore
480 1493 m 1,0,-1
 1437 1493 l 1,1,-1
 1387 1210 l 1,2,-1
 737 1210 l 1,3,-1
 697 979 l 1,4,5
 743 991 743 991 788.5 997.5 c 128,-1,6
 834 1004 834 1004 882 1004 c 0,7,8
 1155 1004 1155 1004 1283 867.5 c 128,-1,9
 1411 731 1411 731 1368 487 c 0,10,11
 1325 245 1325 245 1135.5 108 c 128,-1,12
 946 -29 946 -29 652 -29 c 0,13,14
 525 -29 525 -29 405 -4.5 c 128,-1,15
 285 20 285 20 170 70 c 1,16,-1
 224 373 l 1,17,18
 333 303 333 303 436.5 268 c 128,-1,19
 540 233 540 233 637 233 c 0,20,21
 777 233 777 233 869.5 301.5 c 128,-1,22
 962 370 962 370 983 487 c 0,23,24
 1004 605 1004 605 935.5 673 c 128,-1,25
 867 741 867 741 727 741 c 0,26,27
 644 741 644 741 546 719.5 c 128,-1,28
 448 698 448 698 332 653 c 1,29,-1
 480 1493 l 1,0,-1
EndSplineSet
EndChar
StartChar: six
Encoding: 54 54 26
Width: 1425
Flags: HW
HStem: -29 242<609.7 873.6> 737 248<686.7 873.6> 1266 252<650.4 985.294>
VStem: 127 412<304.7 725> 944 371<304.7 645.3>
Fore
871 737 m 0,0,1
 770 737 770 737 708 671.5 c 128,-1,2
 646 606 646 606 623 475 c 256,3,4
 600 344 600 344 639 278.5 c 128,-1,5
 678 213 678 213 779 213 c 0,6,7
 881 213 881 213 943 278.5 c 128,-1,8
 1005 344 1005 344 1028 475 c 256,9,10
 1051 606 1051 606 1012 671.5 c 128,-1,11
 973 737 973 737 871 737 c 0,0,1
1473 1454 m 1,12,-1
 1425 1178 l 1,13,14
 1338 1223 1338 1223 1257.5 1244.5 c 128,-1,15
 1177 1266 1177 1266 1097 1266 c 0,16,17
 925 1266 925 1266 812.5 1170.5 c 128,-1,18
 700 1075 700 1075 650 887 c 1,19,20
 725 936 725 936 806.5 960.5 c 128,-1,21
 888 985 888 985 979 985 c 0,22,23
 1208 985 1208 985 1324.5 851 c 128,-1,24
 1441 717 1441 717 1403 500 c 0,25,26
 1361 260 1361 260 1178.5 115.5 c 128,-1,27
 996 -29 996 -29 732 -29 c 0,28,29
 441 -29 441 -29 316 167.5 c 128,-1,30
 191 364 191 364 255 725 c 0,31,32
 320 1095 320 1095 544 1306.5 c 128,-1,33
 768 1518 768 1518 1093 1518 c 0,34,35
 1196 1518 1196 1518 1290 1502 c 128,-1,36
 1384 1486 1384 1486 1473 1454 c 1,12,-1
EndSplineSet
EndChar
StartChar: seven
Encoding: 55 55 27
Width: 1425
Flags: HW
HStem: 0 21G<305 680> 1210 283<137 856>
Fore
400 1493 m 1,0,-1
 1525 1493 l 1,1,-1
 1487 1276 l 1,2,-1
 680 0 l 1,3,-1
 305 0 l 1,4,-1
 1069 1210 l 1,5,-1
 350 1210 l 1,6,-1
 400 1493 l 1,0,-1
EndSplineSet
EndChar
StartChar: eight
Encoding: 56 56 28
Width: 1425
Flags: HW
HStem: -29 242<572.6 852.1> 668 241<593.4 830> 1278 242<593.4 830>
VStem: 125 364<297 583> 934 364<297 584.3>
Fore
831 668 m 0,0,1
 723 668 723 668 654.5 609 c 128,-1,2
 586 550 586 550 567 440 c 256,3,4
 547 330 547 330 595 271.5 c 128,-1,5
 643 213 643 213 751 213 c 0,6,7
 858 213 858 213 925 271.5 c 128,-1,8
 992 330 992 330 1012 440 c 0,9,10
 1031 551 1031 551 984.5 609.5 c 128,-1,11
 938 668 938 668 831 668 c 0,0,1
572 795 m 1,12,13
 443 836 443 836 389 921 c 128,-1,14
 335 1006 335 1006 358 1133 c 0,15,16
 391 1322 391 1322 549.5 1421 c 128,-1,17
 708 1520 708 1520 981 1520 c 0,18,19
 1252 1520 1252 1520 1375.5 1421.5 c 128,-1,20
 1499 1323 1499 1323 1466 1133 c 0,21,22
 1443 1006 1443 1006 1358.5 921 c 128,-1,23
 1274 836 1274 836 1131 795 c 1,24,25
 1276 753 1276 753 1336.5 658.5 c 128,-1,26
 1397 564 1397 564 1372 420 c 0,27,28
 1333 198 1333 198 1165.5 84.5 c 128,-1,29
 998 -29 998 -29 708 -29 c 0,30,31
 417 -29 417 -29 288.5 84.5 c 128,-1,32
 160 198 160 198 199 420 c 0,33,34
 224 564 224 564 318.5 658.5 c 128,-1,35
 413 753 413 753 572 795 c 1,12,13
715 1094 m 0,36,37
 699 1005 699 1005 740 957 c 128,-1,38
 781 909 781 909 873 909 c 0,39,40
 963 909 963 909 1020.5 957 c 128,-1,41
 1078 1005 1078 1005 1094 1094 c 256,42,43
 1110 1183 1110 1183 1069 1230.5 c 128,-1,44
 1028 1278 1028 1278 938 1278 c 0,45,46
 846 1278 846 1278 788 1230 c 128,-1,47
 730 1182 730 1182 715 1094 c 0,36,37
EndSplineSet
EndChar
StartChar: nine
Encoding: 57 57 29
Width: 1425
Flags: HW
HStem: -29 252<433.004 770.6> 502 250<548.7 733> 1276 242<548.7 811.3>
VStem: 106 371<843.7 1183> 883 411<764 1183.01>
Fore
211 33 m 1,0,-1
 259 309 l 1,1,2
 344 266 344 266 424 244.5 c 128,-1,3
 504 223 504 223 586 223 c 0,4,5
 758 223 758 223 871 318.5 c 128,-1,6
 984 414 984 414 1034 602 c 1,7,8
 957 552 957 552 876 527 c 128,-1,9
 795 502 795 502 705 502 c 0,10,11
 476 502 476 502 359 635.5 c 128,-1,12
 242 769 242 769 280 987 c 0,13,14
 323 1228 323 1228 505 1373 c 128,-1,15
 687 1518 687 1518 950 1518 c 0,16,17
 1242 1518 1242 1518 1367 1321 c 128,-1,18
 1492 1124 1492 1124 1429 764 c 0,19,20
 1363 394 1363 394 1139 182.5 c 128,-1,21
 915 -29 915 -29 589 -29 c 0,22,23
 484 -29 484 -29 390.5 -13.5 c 128,-1,24
 297 2 297 2 211 33 c 1,0,-1
813 752 m 256,25,26
 914 752 914 752 976.5 817.5 c 128,-1,27
 1039 883 1039 883 1062 1014 c 0,28,29
 1085 1144 1085 1144 1045.5 1210 c 128,-1,30
 1006 1276 1006 1276 905 1276 c 256,31,32
 804 1276 804 1276 741.5 1210 c 128,-1,33
 679 1144 679 1144 656 1014 c 0,34,35
 633 883 633 883 672.5 817.5 c 128,-1,36
 712 752 712 752 813 752 c 256,25,26
EndSplineSet
EndChar
StartChar: colon
Encoding: 58 58 30
Width: 819
Flags: HW
HStem: 0 387<229 590> 733 387<229 590>
VStem: 229 361<0 387 733 1120>
Fore
426 1120 m 1,0,-1
 787 1120 l 1,1,-1
 719 733 l 1,2,-1
 358 733 l 1,3,-1
 426 1120 l 1,0,-1
297 387 m 1,4,-1
 658 387 l 1,5,-1
 590 0 l 1,6,-1
 229 0 l 1,7,-1
 297 387 l 1,4,-1
EndSplineSet
EndChar
StartChar: semicolon
Encoding: 59 59 31
Width: 819
Flags: HW
HStem: 733 387<229 590>
VStem: 229 361<82 387 733 1120>
Fore
297 387 m 1,0,-1
 658 387 l 1,1,-1
 604 82 l 1,2,-1
 291 -291 l 1,3,-1
 78 -291 l 1,4,-1
 243 82 l 1,5,-1
 297 387 l 1,0,-1
426 1120 m 1,6,-1
 787 1120 l 1,7,-1
 719 733 l 1,8,-1
 358 733 l 1,9,-1
 426 1120 l 1,6,-1
EndSplineSet
EndChar
StartChar: less
Encoding: 60 60 32
Width: 1716
Flags: HW
Fore
1671 973 m 1,0,-1
 648 641 l 1,1,-1
 1554 311 l 1,2,-1
 1510 61 l 1,3,-1
 309 524 l 1,4,-1
 351 760 l 1,5,-1
 1715 1223 l 1,6,-1
 1671 973 l 1,0,-1
EndSplineSet
EndChar
StartChar: equal
Encoding: 61 61 33
Width: 1716
Flags: HW
HStem: 295 237<217 1499> 752 235<217 1499>
Fore
391 987 m 1,0,-1
 1673 987 l 1,1,-1
 1632 752 l 1,2,-1
 350 752 l 1,3,-1
 391 987 l 1,0,-1
311 532 m 1,4,-1
 1593 532 l 1,5,-1
 1551 295 l 1,6,-1
 269 295 l 1,7,-1
 311 532 l 1,4,-1
EndSplineSet
EndChar
StartChar: greater
Encoding: 62 62 34
Width: 1716
Flags: HW
Fore
389 973 m 1,0,-1
 433 1223 l 1,1,-1
 1633 760 l 1,2,-1
 1591 524 l 1,3,-1
 228 61 l 1,4,-1
 272 311 l 1,5,-1
 1295 641 l 1,6,-1
 389 973 l 1,0,-1
EndSplineSet
EndChar
StartChar: question
Encoding: 63 63 35
Width: 1188
Flags: HW
HStem: 0 356<348 709> 1257 263<420.044 623.8>
VStem: 348 361<0 356 504 594.696>
Fore
798 504 m 1,0,-1
 437 504 l 1,1,-1
 446 553 l 2,2,3
 460 635 460 635 504 698.5 c 128,-1,4
 548 762 548 762 672 860 c 2,5,-1
 746 918 l 2,6,7
 812 970 812 970 846.5 1016 c 128,-1,8
 881 1062 881 1062 889 1108 c 0,9,10
 902 1178 902 1178 861 1217.5 c 128,-1,11
 820 1257 820 1257 734 1257 c 0,12,13
 653 1257 653 1257 553 1223.5 c 128,-1,14
 453 1190 453 1190 339 1124 c 1,15,-1
 395 1438 l 1,16,17
 523 1480 523 1480 626.5 1500 c 128,-1,18
 730 1520 730 1520 823 1520 c 0,19,20
 1067 1520 1067 1520 1177.5 1420.5 c 128,-1,21
 1288 1321 1288 1321 1254 1130 c 0,22,23
 1237 1032 1237 1032 1184.5 954.5 c 128,-1,24
 1132 877 1132 877 1022 788 c 2,25,-1
 948 731 l 2,26,27
 869 669 869 669 841.5 631.5 c 128,-1,28
 814 594 814 594 806 549 c 2,29,-1
 798 504 l 1,0,-1
411 356 m 1,30,-1
 772 356 l 1,31,-1
 709 0 l 1,32,-1
 348 0 l 1,33,-1
 411 356 l 1,30,-1
EndSplineSet
EndChar
StartChar: at
Encoding: 64 64 36
Width: 2048
Flags: HW
HStem: -356 188<844.9 1199.8> 88 186<909 1104.71> 801 186<909.6 1104.69> 1253 187<902.2 1268.8>
VStem: 135 187<349.3 778.3> 602 229<379.1 696.3> 1221 229<380.4 696.3> 1241 209<836 967> 1716 187<446.9 781>
Fore
926 539 m 0,0,1
 904 416 904 416 944 345 c 128,-1,2
 984 274 984 274 1074 274 c 0,3,4
 1163 274 1163 274 1229 345.5 c 128,-1,5
 1295 417 1295 417 1316 539 c 0,6,7
 1337 660 1337 660 1296 730.5 c 128,-1,8
 1255 801 1255 801 1165 801 c 0,9,10
 1077 801 1077 801 1012 730.5 c 128,-1,11
 947 660 947 660 926 539 c 0,0,1
1283 238 m 1,12,13
 1240 167 1240 167 1167 127.5 c 128,-1,14
 1094 88 1094 88 1005 88 c 0,15,16
 833 88 833 88 747 212.5 c 128,-1,17
 661 337 661 337 697 537 c 256,18,19
 732 737 732 737 862 862 c 128,-1,20
 992 987 992 987 1163 987 c 0,21,22
 1252 987 1252 987 1311.5 947 c 128,-1,23
 1371 907 1371 907 1388 836 c 1,24,-1
 1412 967 l 1,25,-1
 1621 967 l 1,26,-1
 1498 274 l 1,27,28
 1626 293 1626 293 1714.5 393.5 c 128,-1,29
 1803 494 1803 494 1831 651 c 0,30,31
 1848 751 1848 751 1834.5 838.5 c 128,-1,32
 1821 926 1821 926 1775 999 c 0,33,34
 1702 1121 1702 1121 1571 1187 c 128,-1,35
 1440 1253 1440 1253 1274 1253 c 0,36,37
 1158 1253 1158 1253 1046.5 1222.5 c 128,-1,38
 935 1192 935 1192 835 1133 c 0,39,40
 670 1035 670 1035 560 879.5 c 128,-1,41
 450 724 450 724 418 543 c 0,42,43
 391 394 391 394 421.5 263.5 c 128,-1,44
 452 133 452 133 536 33 c 0,45,46
 619 -65 619 -65 739 -116.5 c 128,-1,47
 859 -168 859 -168 1006 -168 c 0,48,49
 1132 -168 1132 -168 1266.5 -121 c 128,-1,50
 1401 -74 1401 -74 1504 6 c 1,51,-1
 1582 -156 l 1,52,53
 1440 -253 1440 -253 1283.5 -304.5 c 128,-1,54
 1127 -356 1127 -356 975 -356 c 0,55,56
 790 -356 790 -356 637.5 -290.5 c 128,-1,57
 485 -225 485 -225 379 -100 c 256,58,59
 273 25 273 25 235 189.5 c 128,-1,60
 197 354 197 354 231 543 c 0,61,62
 263 725 263 725 360 890 c 128,-1,63
 457 1055 457 1055 605 1180 c 0,64,65
 753 1304 753 1304 932.5 1372 c 128,-1,66
 1112 1440 1112 1440 1292 1440 c 0,67,68
 1516 1440 1516 1440 1684 1354.5 c 128,-1,69
 1852 1269 1852 1269 1946 1108 c 0,70,71
 2004 1010 2004 1010 2022.5 895.5 c 128,-1,72
 2041 781 2041 781 2018 655 c 0,73,74
 1971 384 1971 384 1781.5 234 c 128,-1,75
 1592 84 1592 84 1295 84 c 2,76,-1
 1256 84 l 1,77,-1
 1283 238 l 1,12,13
EndSplineSet
EndChar
StartChar: A
Encoding: 65 65 37
Width: 1585
Flags: HW
HStem: 0 21G<10 397 1188 1575> 272 277<588 997>
Fore
1142 272 m 1,0,-1
 540 272 l 1,1,-1
 397 0 l 1,2,-1
 10 0 l 1,3,-1
 826 1493 l 1,4,-1
 1285 1493 l 1,5,-1
 1575 0 l 1,6,-1
 1188 0 l 1,7,-1
 1142 272 l 1,0,-1
685 549 m 1,8,-1
 1094 549 l 1,9,-1
 995 1143 l 1,10,-1
 685 549 l 1,8,-1
EndSplineSet
EndChar
StartChar: B
Encoding: 66 66 38
Width: 1561
Flags: HW
HStem: 0 262<573 949.8> 653 262<573 904.3> 1231 262<573 904.3>
VStem: 188 385<262 653 915 1231>
Fore
947 915 m 6,0,1
 1038 915 1038 915 1092 955 c 128,-1,2
 1146 995 1146 995 1160 1073 c 0,3,4
 1174 1150 1174 1150 1134 1190.5 c 128,-1,5
 1094 1231 1094 1231 1003 1231 c 2,6,-1
 790 1231 l 1,7,-1
 734 915 l 1,8,-1
 947 915 l 6,0,1
845 262 m 6,9,10
 961 262 961 262 1028 311 c 128,-1,11
 1095 360 1095 360 1113 459 c 0,12,13
 1130 556 1130 556 1080.5 604.5 c 128,-1,14
 1031 653 1031 653 914 653 c 2,15,-1
 688 653 l 1,16,-1
 619 262 l 1,17,-1
 845 262 l 6,9,10
1298 799 m 5,18,19
 1416 763 1416 763 1466.5 666 c 128,-1,20
 1517 569 1517 569 1492 428 c 0,21,22
 1454 212 1454 212 1289.5 106 c 128,-1,23
 1125 -0 1125 -0 827 0 c 2,24,-1
 188 0 l 1,25,-1
 451 1493 l 1,26,-1
 1029 1493 l 2,27,28
 1340 1493 1340 1493 1463 1399 c 128,-1,29
 1586 1305 1586 1305 1550 1098 c 0,30,31
 1530 989 1530 989 1465.5 912.5 c 128,-1,32
 1401 836 1401 836 1298 799 c 5,18,19
EndSplineSet
EndChar
StartChar: C
Encoding: 67 67 39
Width: 1503
Flags: HW
HStem: -29 279<674.2 1073.49> 1241 279<674.2 1073.5>
VStem: 102 398<444.7 1046.6>
Fore
1386 82 m 1,0,1
 1271 27 1271 27 1151 -1 c 128,-1,2
 1031 -29 1031 -29 906 -29 c 0,3,4
 533 -29 533 -29 351.5 179.5 c 128,-1,5
 170 388 170 388 233 745 c 0,6,7
 296 1103 296 1103 551 1311.5 c 128,-1,8
 806 1520 806 1520 1179 1520 c 0,9,10
 1304 1520 1304 1520 1414 1492 c 128,-1,11
 1524 1464 1524 1464 1620 1409 c 1,12,-1
 1566 1100 l 1,13,14
 1472 1173 1472 1173 1374 1207 c 128,-1,15
 1276 1241 1276 1241 1161 1241 c 0,16,17
 955 1241 955 1241 813.5 1109 c 128,-1,18
 672 977 672 977 631 745 c 0,19,20
 591 514 591 514 685.5 382 c 128,-1,21
 780 250 780 250 986 250 c 0,22,23
 1101 250 1101 250 1211 284 c 128,-1,24
 1321 318 1321 318 1441 391 c 1,25,-1
 1386 82 l 1,0,1
EndSplineSet
EndChar
StartChar: D
Encoding: 68 68 40
Width: 1700
Flags: HW
HStem: 0 291<573 947> 1202 291<573 948>
VStem: 188 385<291 1202> 1196 397<528.3 965.1>
Fore
785 1202 m 1,0,-1
 624 291 l 1,1,-1
 762 291 l 2,2,3
 998 291 998 291 1143.5 408 c 128,-1,4
 1289 525 1289 525 1328 748 c 0,5,6
 1367 970 1367 970 1263.5 1086 c 128,-1,7
 1160 1202 1160 1202 923 1202 c 2,8,-1
 785 1202 l 1,0,-1
451 1493 m 1,9,-1
 857 1493 l 2,10,11
 1197 1493 1197 1493 1355 1444.5 c 128,-1,12
 1513 1396 1513 1396 1612 1280 c 0,13,14
 1699 1179 1699 1179 1726.5 1047 c 128,-1,15
 1754 915 1754 915 1725 748 c 0,16,17
 1695 579 1695 579 1620.5 446.5 c 128,-1,18
 1546 314 1546 314 1424 213 c 0,19,20
 1283 97 1283 97 1106.5 48.5 c 128,-1,21
 930 0 930 0 594 0 c 2,22,-1
 188 0 l 1,23,-1
 451 1493 l 1,9,-1
EndSplineSet
EndChar
StartChar: E
Encoding: 69 69 41
Width: 1399
Flags: HW
HStem: 0 291<573 1249> 633 291<573 1188> 1202 291<573 1227>
VStem: 188 385<291 633 924 1202>
Fore
451 1493 m 1,0,-1
 1490 1493 l 1,1,-1
 1439 1202 l 1,2,-1
 785 1202 l 1,3,-1
 736 924 l 1,4,-1
 1351 924 l 1,5,-1
 1300 633 l 1,6,-1
 685 633 l 1,7,-1
 624 291 l 1,8,-1
 1300 291 l 1,9,-1
 1249 0 l 1,10,-1
 188 0 l 1,11,-1
 451 1493 l 1,0,-1
EndSplineSet
EndChar
StartChar: F
Encoding: 70 70 42
Width: 1399
Flags: HW
HStem: 0 21G<188 573> 633 291<573 1188> 1202 291<573 1227>
VStem: 188 385<0 633 924 1202>
Fore
451 1493 m 1,0,-1
 1490 1493 l 1,1,-1
 1439 1202 l 1,2,-1
 785 1202 l 1,3,-1
 736 924 l 1,4,-1
 1351 924 l 1,5,-1
 1300 633 l 1,6,-1
 685 633 l 1,7,-1
 573 0 l 1,8,-1
 188 0 l 1,9,-1
 451 1493 l 1,0,-1
EndSplineSet
EndChar
StartChar: G
Encoding: 71 71 43
Width: 1681
Flags: HW
HStem: -29 279<673.7 1091.18> 571 258<930 1165> 1241 279<680 1125.69>
VStem: 102 398<436.9 1055.69> 1165 365<281 571>
Fore
1550 111 m 1,0,1
 1393 41 1393 41 1232 6 c 128,-1,2
 1071 -29 1071 -29 906 -29 c 0,3,4
 533 -29 533 -29 351.5 179.5 c 128,-1,5
 170 388 170 388 233 745 c 0,6,7
 297 1106 297 1106 555.5 1313 c 128,-1,8
 814 1520 814 1520 1200 1520 c 0,9,10
 1349 1520 1349 1520 1480.5 1492 c 128,-1,11
 1612 1464 1612 1464 1723 1409 c 1,12,-1
 1669 1100 l 1,13,14
 1556 1171 1556 1171 1439 1206 c 128,-1,15
 1322 1241 1322 1241 1198 1241 c 0,16,17
 968 1241 968 1241 821 1112.5 c 128,-1,18
 674 984 674 984 631 745 c 0,19,20
 590 508 590 508 687 379 c 128,-1,21
 784 250 784 250 1005 250 c 0,22,23
 1065 250 1065 250 1118 257.5 c 128,-1,24
 1171 265 1171 265 1215 281 c 1,25,-1
 1266 571 l 1,26,-1
 1031 571 l 1,27,-1
 1076 829 l 1,28,-1
 1676 829 l 1,29,-1
 1550 111 l 1,0,1
EndSplineSet
EndChar
StartChar: H
Encoding: 72 72 44
Width: 1714
Flags: HW
HStem: 0 21G<188 573 1141 1526> 633 291<573 1141>
VStem: 188 385<0 633 924 1493> 1141 385<0 633 924 1493>
Fore
451 1493 m 1,0,-1
 836 1493 l 1,1,-1
 736 924 l 1,2,-1
 1304 924 l 1,3,-1
 1404 1493 l 1,4,-1
 1789 1493 l 1,5,-1
 1526 0 l 1,6,-1
 1141 0 l 1,7,-1
 1253 633 l 1,8,-1
 685 633 l 1,9,-1
 573 0 l 1,10,-1
 188 0 l 1,11,-1
 451 1493 l 1,0,-1
EndSplineSet
EndChar
StartChar: I
Encoding: 73 73 45
Width: 762
Flags: HW
HStem: 0 21G<188 573>
VStem: 188 385<0 1493>
Fore
451 1493 m 1,0,-1
 836 1493 l 1,1,-1
 573 0 l 1,2,-1
 188 0 l 1,3,-1
 451 1493 l 1,0,-1
EndSplineSet
EndChar
StartChar: J
Encoding: 74 74 46
Width: 762
Flags: HW
HStem: -410 291<-115 101>
VStem: 188 385<15 1493>
Fore
451 1493 m 1,0,-1
 836 1493 l 1,1,-1
 599 145 l 2,2,3
 549 -134 549 -134 373.5 -272 c 128,-1,4
 198 -410 198 -410 -109 -410 c 2,5,-1
 -187 -410 l 1,6,-1
 -136 -119 l 1,7,-1
 -76 -119 l 2,8,9
 44 -119 44 -119 117.5 -52 c 128,-1,10
 191 15 191 15 214 145 c 2,11,-1
 451 1493 l 1,0,-1
EndSplineSet
EndChar
StartChar: K
Encoding: 75 75 47
Width: 1587
Flags: HW
HStem: 0 21G<188 573 1167 1649>
VStem: 188 385<0 588 948 1493>
Fore
451 1493 m 1,0,-1
 836 1493 l 1,1,-1
 740 948 l 1,2,-1
 1391 1493 l 1,3,-1
 1838 1493 l 1,4,-1
 995 786 l 1,5,-1
 1649 0 l 1,6,-1
 1167 0 l 1,7,-1
 677 588 l 1,8,-1
 573 0 l 1,9,-1
 188 0 l 1,10,-1
 451 1493 l 1,0,-1
EndSplineSet
EndChar
StartChar: L
Encoding: 76 76 48
Width: 1305
Flags: HW
HStem: 0 291<573 1249>
VStem: 188 385<291 1493>
Fore
451 1493 m 1,0,-1
 836 1493 l 1,1,-1
 624 291 l 1,2,-1
 1300 291 l 1,3,-1
 1249 0 l 1,4,-1
 188 0 l 1,5,-1
 451 1493 l 1,0,-1
EndSplineSet
EndChar
StartChar: M
Encoding: 77 77 49
Width: 2038
Flags: HW
HStem: 0 21G<188 553 1485 1849>
VStem: 188 365<0 1092> 1485 364<0 1092>
Fore
451 1493 m 1,0,-1
 941 1493 l 1,1,-1
 1140 694 l 1,2,-1
 1623 1493 l 1,3,-1
 2112 1493 l 1,4,-1
 1849 0 l 1,5,-1
 1485 0 l 1,6,-1
 1678 1092 l 1,7,-1
 1192 287 l 1,8,-1
 948 287 l 1,9,-1
 746 1092 l 1,10,-1
 553 0 l 1,11,-1
 188 0 l 1,12,-1
 451 1493 l 1,0,-1
EndSplineSet
EndChar
StartChar: N
Encoding: 78 78 50
Width: 1714
Flags: HW
HStem: 0 21G<188 553 1096 1526>
VStem: 188 365<0 1024> 1161 365<469 1493>
Fore
451 1493 m 1,0,-1
 881 1493 l 1,1,-1
 1244 469 l 1,2,-1
 1424 1493 l 1,3,-1
 1789 1493 l 1,4,-1
 1526 0 l 1,5,-1
 1096 0 l 1,6,-1
 734 1024 l 1,7,-1
 553 0 l 1,8,-1
 188 0 l 1,9,-1
 451 1493 l 1,0,-1
EndSplineSet
EndChar
StartChar: O
Encoding: 79 79 51
Width: 1741
Flags: HW
HStem: -29 279<641.2 1100.1> 1241 279<641.2 1100.09>
VStem: 102 398<439.5 1051.79> 1241 397<439.5 1051.8>
Fore
1089 1241 m 0,0,1
 913 1241 913 1241 793 1111 c 128,-1,2
 673 981 673 981 631 745 c 0,3,4
 590 510 590 510 664 380 c 128,-1,5
 738 250 738 250 914 250 c 0,6,7
 1091 250 1091 250 1211 380 c 128,-1,8
 1331 510 1331 510 1372 745 c 0,9,10
 1414 981 1414 981 1340 1111 c 128,-1,11
 1266 1241 1266 1241 1089 1241 c 0,0,1
1138 1520 m 0,12,13
 1498 1520 1498 1520 1665.5 1314 c 128,-1,14
 1833 1108 1833 1108 1769 745 c 0,15,16
 1706 383 1706 383 1465.5 177 c 128,-1,17
 1225 -29 1225 -29 865 -29 c 0,18,19
 506 -29 506 -29 338 177 c 128,-1,20
 170 383 170 383 233 745 c 0,21,22
 297 1108 297 1108 538 1314 c 128,-1,23
 779 1520 779 1520 1138 1520 c 0,12,13
EndSplineSet
EndChar
StartChar: P
Encoding: 80 80 52
Width: 1501
Flags: HW
HStem: 0 21G<188 573> 518 279<573 898> 1214 279<573 931.6>
VStem: 188 385<0 518 797 1214>
Fore
451 1493 m 1,0,-1
 1090 1493 l 2,1,2
 1375 1493 1375 1493 1505.5 1366.5 c 128,-1,3
 1636 1240 1636 1240 1594 1006 c 0,4,5
 1553 771 1553 771 1378 644.5 c 128,-1,6
 1203 518 1203 518 918 518 c 2,7,-1
 664 518 l 1,8,-1
 573 0 l 1,9,-1
 188 0 l 1,10,-1
 451 1493 l 1,0,-1
787 1214 m 1,11,-1
 714 797 l 1,12,-1
 927 797 l 2,13,14
 1039 797 1039 797 1109.5 851.5 c 128,-1,15
 1180 906 1180 906 1197 1006 c 256,16,17
 1215 1106 1215 1106 1163.5 1160 c 128,-1,18
 1112 1214 1112 1214 1000 1214 c 2,19,-1
 787 1214 l 1,11,-1
EndSplineSet
EndChar
StartChar: Q
Encoding: 81 81 53
Width: 1741
Flags: HW
HStem: -27 277<636 911> 1241 279<641.2 1100.09>
VStem: 102 398<433 1051.79> 1241 397<439.5 1051.8>
Fore
906 -27 m 1,0,-1
 876 -27 l 2,1,2
 507 -27 507 -27 338 177 c 128,-1,3
 169 381 169 381 233 745 c 0,4,5
 297 1108 297 1108 538 1314 c 128,-1,6
 779 1520 779 1520 1138 1520 c 0,7,8
 1501 1520 1501 1520 1667.5 1316 c 128,-1,9
 1834 1112 1834 1112 1769 745 c 0,10,11
 1725 493 1725 493 1585.5 311 c 128,-1,12
 1446 129 1446 129 1228 37 c 1,13,-1
 1469 -299 l 1,14,-1
 1102 -299 l 1,15,-1
 906 -27 l 1,0,-1
1089 1241 m 0,16,17
 913 1241 913 1241 793 1111 c 128,-1,18
 673 981 673 981 631 745 c 0,19,20
 589 505 589 505 661.5 377.5 c 128,-1,21
 734 250 734 250 914 250 c 0,22,23
 1091 250 1091 250 1211 380 c 128,-1,24
 1331 510 1331 510 1372 745 c 0,25,26
 1414 981 1414 981 1340 1111 c 128,-1,27
 1266 1241 1266 1241 1089 1241 c 0,16,17
EndSplineSet
EndChar
StartChar: R
Encoding: 82 82 54
Width: 1577
Flags: HW
HStem: 0 21G<188 573 1126 1536> 565 266<573 804.2> 1214 279<573 892.3>
VStem: 188 385<0 565 831 1214> 961 385<890.1 1156.6>
Fore
882 831 m 2,0,1
 1003 831 1003 831 1063 876 c 128,-1,2
 1123 921 1123 921 1142 1024 c 0,3,4
 1160 1126 1160 1126 1115 1170 c 128,-1,5
 1070 1214 1070 1214 949 1214 c 2,6,-1
 787 1214 l 1,7,-1
 720 831 l 1,8,-1
 882 831 l 2,0,1
673 565 m 1,9,-1
 573 0 l 1,10,-1
 188 0 l 1,11,-1
 451 1493 l 1,12,-1
 1039 1493 l 2,13,14
 1334 1493 1334 1493 1454 1394 c 128,-1,15
 1574 1295 1574 1295 1537 1081 c 0,16,17
 1511 933 1511 933 1422.5 838 c 128,-1,18
 1334 743 1334 743 1182 698 c 1,19,20
 1258 680 1258 680 1309 616.5 c 128,-1,21
 1360 553 1360 553 1402 424 c 2,22,-1
 1536 0 l 1,23,-1
 1126 0 l 1,24,-1
 1009 371 l 2,25,26
 974 483 974 483 925 524 c 128,-1,27
 876 565 876 565 782 565 c 2,28,-1
 673 565 l 1,9,-1
EndSplineSet
EndChar
StartChar: S
Encoding: 83 83 55
Width: 1475
Flags: HW
HStem: -29 279<546.4 857.8> 1241 279<586.6 887.767>
Fore
1482 1446 m 1,0,-1
 1426 1130 l 1,1,2
 1313 1185 1313 1185 1201 1213 c 128,-1,3
 1089 1241 1089 1241 985 1241 c 0,4,5
 847 1241 847 1241 774 1203 c 128,-1,6
 701 1165 701 1165 687 1085 c 0,7,8
 677 1025 677 1025 715.5 991.5 c 128,-1,9
 754 958 754 958 867 934 c 2,10,-1
 1025 901 l 2,11,12
 1265 851 1265 851 1352 749 c 128,-1,13
 1439 647 1439 647 1406 459 c 0,14,15
 1362 212 1362 212 1194.5 91.5 c 128,-1,16
 1027 -29 1027 -29 726 -29 c 0,17,18
 584 -29 584 -29 445.5 -2 c 128,-1,19
 307 25 307 25 174 78 c 1,20,-1
 231 403 l 1,21,22
 361 327 361 327 487.5 288.5 c 128,-1,23
 614 250 614 250 738 250 c 0,24,25
 864 250 864 250 938.5 292 c 128,-1,26
 1013 334 1013 334 1027 412 c 0,27,28
 1039 482 1039 482 1000 520 c 128,-1,29
 961 558 961 558 831 588 c 2,30,-1
 687 621 l 2,31,32
 472 669 472 669 387 774 c 128,-1,33
 302 879 302 879 333 1057 c 0,34,35
 373 1280 373 1280 538 1400 c 128,-1,36
 703 1520 703 1520 973 1520 c 0,37,38
 1096 1520 1096 1520 1222.5 1501.5 c 128,-1,39
 1349 1483 1349 1483 1482 1446 c 1,0,-1
EndSplineSet
EndChar
StartChar: T
Encoding: 84 84 56
Width: 1397
Flags: HW
HStem: 0 21G<506 891> 1202 291<10 506 891 1386>
VStem: 506 385<0 1202>
Fore
273 1493 m 1,0,-1
 1649 1493 l 1,1,-1
 1598 1202 l 1,2,-1
 1103 1202 l 1,3,-1
 891 0 l 1,4,-1
 506 0 l 1,5,-1
 718 1202 l 1,6,-1
 222 1202 l 1,7,-1
 273 1493 l 1,0,-1
EndSplineSet
EndChar
StartChar: U
Encoding: 85 85 57
Width: 1663
Flags: HW
HStem: -29 283<652.9 1010.4>
VStem: 188 385<413 1493> 1090 385<357.5 1493>
Fore
451 1493 m 1,0,-1
 836 1493 l 1,1,-1
 678 598 l 2,2,3
 646 413 646 413 692.5 333.5 c 128,-1,4
 739 254 739 254 876 254 c 0,5,6
 1014 254 1014 254 1088.5 333.5 c 128,-1,7
 1163 413 1163 413 1195 598 c 2,8,-1
 1353 1493 l 1,9,-1
 1738 1493 l 1,10,-1
 1580 598 l 2,11,12
 1525 281 1525 281 1338.5 126 c 128,-1,13
 1152 -29 1152 -29 826 -29 c 0,14,15
 501 -29 501 -29 369.5 126 c 128,-1,16
 238 281 238 281 293 598 c 2,17,-1
 451 1493 l 1,0,-1
EndSplineSet
EndChar
StartChar: V
Encoding: 86 86 58
Width: 1585
Flags: HW
HStem: 0 21G<563 1022>
Fore
273 1493 m 1,0,-1
 660 1493 l 1,1,-1
 862 391 l 1,2,-1
 1451 1493 l 1,3,-1
 1838 1493 l 1,4,-1
 1022 0 l 1,5,-1
 563 0 l 1,6,-1
 273 1493 l 1,0,-1
EndSplineSet
EndChar
StartChar: W
Encoding: 87 87 59
Width: 2259
Flags: HW
HStem: 0 21G<416 860 1399 1843>
Fore
324 1493 m 1,0,-1
 693 1493 l 1,1,-1
 760 408 l 1,2,-1
 1207 1493 l 1,3,-1
 1578 1493 l 1,4,-1
 1643 408 l 1,5,-1
 2092 1493 l 1,6,-1
 2458 1493 l 1,7,-1
 1843 0 l 1,8,-1
 1399 0 l 1,9,-1
 1328 1135 l 1,10,-1
 860 0 l 1,11,-1
 416 0 l 1,12,-1
 324 1493 l 1,0,-1
EndSplineSet
EndChar
StartChar: X
Encoding: 88 88 60
Width: 1579
Flags: HW
HStem: 0 21G<39 442 1137 1538>
Fore
1154 762 m 1,0,-1
 1538 0 l 1,1,-1
 1137 0 l 1,2,-1
 878 510 l 1,3,-1
 442 0 l 1,4,-1
 39 0 l 1,5,-1
 691 762 l 1,6,-1
 322 1493 l 1,7,-1
 724 1493 l 1,8,-1
 966 1012 l 1,9,-1
 1377 1493 l 1,10,-1
 1781 1493 l 1,11,-1
 1154 762 l 1,0,-1
EndSplineSet
EndChar
StartChar: Y
Encoding: 89 89 61
Width: 1483
Flags: HW
HStem: 0 21G<549 934>
VStem: 549 385<0 629>
Fore
243 1493 m 1,0,-1
 664 1493 l 1,1,-1
 910 961 l 1,2,-1
 1344 1493 l 1,3,-1
 1766 1493 l 1,4,-1
 1045 629 l 1,5,-1
 934 0 l 1,6,-1
 549 0 l 1,7,-1
 660 629 l 1,8,-1
 243 1493 l 1,0,-1
EndSplineSet
EndChar
StartChar: Z
Encoding: 90 90 62
Width: 1485
Flags: HW
HStem: 0 291<569 1393> 1202 291<115 893>
Fore
378 1493 m 1,0,-1
 1633 1493 l 1,1,-1
 1592 1260 l 1,2,-1
 620 291 l 1,3,-1
 1444 291 l 1,4,-1
 1393 0 l 1,5,-1
 92 0 l 1,6,-1
 133 233 l 1,7,-1
 1105 1202 l 1,8,-1
 327 1202 l 1,9,-1
 378 1493 l 1,0,-1
EndSplineSet
EndChar
StartChar: bracketleft
Encoding: 91 91 63
Width: 936
Flags: HW
HStem: -270 225<516 797> 1331 225<516 797>
VStem: 176 340<-45 1331>
Fore
450 1556 m 1,0,-1
 1071 1556 l 1,1,-1
 1032 1331 l 1,2,-1
 751 1331 l 1,3,-1
 508 -45 l 1,4,-1
 789 -45 l 1,5,-1
 749 -270 l 1,6,-1
 128 -270 l 1,7,-1
 450 1556 l 1,0,-1
EndSplineSet
EndChar
StartChar: backslash
Encoding: 92 92 64
Width: 748
Flags: HW
VStem: 0 748<-190 1493>
Fore
492 -190 m 1,0,-1
 263 1493 l 1,1,-1
 484 1493 l 1,2,-1
 714 -190 l 1,3,-1
 492 -190 l 1,0,-1
EndSplineSet
EndChar
StartChar: bracketright
Encoding: 93 93 65
Width: 936
Flags: HW
HStem: -270 225<139 420> 1331 225<139 420>
VStem: 420 340<-45 1331>
Fore
712 -270 m 1,0,-1
 91 -270 l 1,1,-1
 131 -45 l 1,2,-1
 412 -45 l 1,3,-1
 655 1331 l 1,4,-1
 374 1331 l 1,5,-1
 413 1556 l 1,6,-1
 1034 1556 l 1,7,-1
 712 -270 l 1,0,-1
EndSplineSet
EndChar
StartChar: asciicircum
Encoding: 94 94 66
Width: 1716
Flags: HW
HStem: 936 557<981 1509>
Fore
1244 1493 m 1,0,-1
 1674 936 l 1,1,-1
 1433 936 l 1,2,-1
 1076 1237 l 1,3,-1
 614 936 l 1,4,-1
 372 936 l 1,5,-1
 998 1493 l 1,6,-1
 1244 1493 l 1,0,-1
EndSplineSet
EndChar
StartChar: underscore
Encoding: 95 95 67
Width: 1024
Flags: HW
HStem: -483 190<0 1024>
Fore
972 -293 m 1,0,-1
 939 -483 l 1,1,-1
 -85 -483 l 1,2,-1
 -52 -293 l 1,3,-1
 972 -293 l 1,0,-1
EndSplineSet
EndChar
StartChar: grave
Encoding: 96 96 68
Width: 1024
Flags: HW
HStem: 1262 376<377 659>
VStem: 94 565<1262 1638>
Fore
666 1638 m 1,0,-1
 882 1262 l 1,1,-1
 686 1262 l 1,2,-1
 383 1638 l 1,3,-1
 666 1638 l 1,0,-1
EndSplineSet
EndChar
StartChar: a
Encoding: 97 97 69
Width: 1382
Flags: HW
HStem: 0 21G<860 1221> 504 213<528.4 860> 909 238<455.763 768.6>
VStem: 860 361<0 166 321.3 504 717 830>
Fore
763 504 m 2,0,1
 651 504 651 504 587.5 466 c 128,-1,2
 524 428 524 428 511 354 c 0,3,4
 499 286 499 286 538 247.5 c 128,-1,5
 577 209 577 209 658 209 c 0,6,7
 759 209 759 209 840.5 281.5 c 128,-1,8
 922 354 922 354 942 463 c 2,9,-1
 949 504 l 1,10,-1
 763 504 l 2,0,1
1334 639 m 2,11,-1
 1221 0 l 1,12,-1
 860 0 l 1,13,-1
 889 166 l 1,14,15
 799 64 799 64 701 17.5 c 128,-1,16
 603 -29 603 -29 474 -29 c 0,17,18
 300 -29 300 -29 209.5 72.5 c 128,-1,19
 119 174 119 174 147 336 c 0,20,21
 182 533 182 533 333.5 625 c 128,-1,22
 485 717 485 717 775 717 c 2,23,-1
 986 717 l 1,24,-1
 991 745 l 2,25,26
 1006 830 1006 830 946 869.5 c 128,-1,27
 886 909 886 909 744 909 c 0,28,29
 629 909 629 909 526 886 c 128,-1,30
 423 863 423 863 330 817 c 1,31,-1
 378 1090 l 1,32,33
 498 1118 498 1118 616.5 1132.5 c 128,-1,34
 735 1147 735 1147 851 1147 c 0,35,36
 1154 1147 1154 1147 1267.5 1027.5 c 128,-1,37
 1381 908 1381 908 1334 639 c 2,11,-1
EndSplineSet
EndChar
StartChar: b
Encoding: 98 98 70
Width: 1466
Flags: HW
HStem: 0 21G<172 530> 1127 20G<842.5 1004.5>
VStem: 172 358<0 162 352.3 765.7 956 1556> 1004 370<351 767>
Fore
809 231 m 256,0,1
 924 231 924 231 999 315 c 128,-1,2
 1074 399 1074 399 1103 559 c 256,3,4
 1131 719 1131 719 1085 803 c 128,-1,5
 1039 887 1039 887 924 887 c 256,6,7
 809 887 809 887 733 802.5 c 128,-1,8
 657 718 657 718 629 559 c 256,9,10
 601 400 601 400 647.5 315.5 c 128,-1,11
 694 231 694 231 809 231 c 256,0,1
699 956 m 1,12,13
 790 1054 790 1054 888 1100.5 c 128,-1,14
 986 1147 986 1147 1103 1147 c 0,15,16
 1310 1147 1310 1147 1414 982.5 c 128,-1,17
 1518 818 1518 818 1473 559 c 256,18,19
 1427 300 1427 300 1265 135.5 c 128,-1,20
 1103 -29 1103 -29 896 -29 c 0,21,22
 779 -29 779 -29 697 17.5 c 128,-1,23
 615 64 615 64 559 162 c 1,24,-1
 530 0 l 1,25,-1
 172 0 l 1,26,-1
 446 1556 l 1,27,-1
 804 1556 l 1,28,-1
 699 956 l 1,12,13
EndSplineSet
EndChar
StartChar: c
Encoding: 99 99 71
Width: 1214
Flags: HW
HStem: -29 256<583 874.121> 891 256<583 874.73>
VStem: 88 373<354.9 763.1>
Fore
1268 1085 m 1,0,-1
 1217 793 l 1,1,2
 1153 843 1153 843 1083.5 867 c 128,-1,3
 1014 891 1014 891 935 891 c 0,4,5
 785 891 785 891 686 803.5 c 128,-1,6
 587 716 587 716 560 559 c 256,7,8
 532 402 532 402 600 314.5 c 128,-1,9
 668 227 668 227 818 227 c 0,10,11
 902 227 902 227 982 252 c 128,-1,12
 1062 277 1062 277 1134 326 c 1,13,-1
 1083 33 l 1,14,15
 993 2 993 2 904 -13.5 c 128,-1,16
 815 -29 815 -29 728 -29 c 0,17,18
 425 -29 425 -29 281.5 126.5 c 128,-1,19
 138 282 138 282 187 559 c 256,20,21
 235 836 235 836 433.5 991.5 c 128,-1,22
 632 1147 632 1147 935 1147 c 0,23,24
 1023 1147 1023 1147 1106 1131.5 c 128,-1,25
 1189 1116 1189 1116 1268 1085 c 1,0,-1
EndSplineSet
EndChar
StartChar: d
Encoding: 100 100 72
Width: 1466
Flags: HW
HStem: 0 21G<934 1294>
VStem: 92 371<351 767> 934 360<0 162 351 767 956 1556>
Fore
1103 956 m 1,0,-1
 1208 1556 l 1,1,-1
 1568 1556 l 1,2,-1
 1294 0 l 1,3,-1
 934 0 l 1,4,-1
 963 162 l 1,5,6
 871 63 871 63 774 17 c 128,-1,7
 677 -29 677 -29 560 -29 c 0,8,9
 353 -29 353 -29 249 135.5 c 128,-1,10
 145 300 145 300 191 559 c 256,11,12
 236 818 236 818 398 982.5 c 128,-1,13
 560 1147 560 1147 767 1147 c 0,14,15
 883 1147 883 1147 964.5 1100.5 c 128,-1,16
 1046 1054 1046 1054 1103 956 c 1,0,-1
739 231 m 0,17,18
 854 231 854 231 929 315 c 128,-1,19
 1004 399 1004 399 1033 559 c 256,20,21
 1061 719 1061 719 1015 803 c 128,-1,22
 969 887 969 887 854 887 c 0,23,24
 740 887 740 887 665 803 c 128,-1,25
 590 719 590 719 562 559 c 256,26,27
 533 399 533 399 579 315 c 128,-1,28
 625 231 625 231 739 231 c 0,17,18
EndSplineSet
EndChar
StartChar: e
Encoding: 101 101 73
Width: 1389
Flags: HW
HStem: -29 238<580 894.099> 461 221<457 922> 909 238<571.8 831.8>
VStem: 922 368<563 814.6>
Fore
1389 563 m 2,0,-1
 1371 461 l 1,1,-1
 534 461 l 1,2,3
 525 335 525 335 592 272 c 128,-1,4
 659 209 659 209 799 209 c 0,5,6
 912 209 912 209 1036.5 242.5 c 128,-1,7
 1161 276 1161 276 1298 344 c 1,8,-1
 1249 68 l 1,9,10
 1114 20 1114 20 982.5 -4.5 c 128,-1,11
 851 -29 851 -29 724 -29 c 0,12,13
 420 -29 420 -29 278.5 125.5 c 128,-1,14
 137 280 137 280 187 559 c 0,15,16
 235 833 235 833 428 990 c 128,-1,17
 621 1147 621 1147 911 1147 c 0,18,19
 1175 1147 1175 1147 1305.5 988 c 128,-1,20
 1436 829 1436 829 1389 563 c 2,0,-1
1042 682 m 1,21,22
 1060 784 1060 784 1011.5 846.5 c 128,-1,23
 963 909 963 909 867 909 c 0,24,25
 763 909 763 909 688 850.5 c 128,-1,26
 613 792 613 792 577 682 c 1,27,-1
 1042 682 l 1,21,22
EndSplineSet
EndChar
StartChar: f
Encoding: 102 102 74
Width: 891
Flags: HW
HStem: 0 21G<217 575> 864 256<39 217 575 881> 1321 235<635 909>
VStem: 217 358<0 864 1120 1286.41>
Fore
1183 1556 m 1,0,-1
 1142 1321 l 1,1,-1
 944 1321 l 2,2,3
 868 1321 868 1321 833 1293.5 c 128,-1,4
 798 1266 798 1266 786 1198 c 2,5,-1
 772 1120 l 1,6,-1
 1078 1120 l 1,7,-1
 1033 864 l 1,8,-1
 727 864 l 1,9,-1
 575 0 l 1,10,-1
 217 0 l 1,11,-1
 369 864 l 1,12,-1
 191 864 l 1,13,-1
 236 1120 l 1,14,-1
 414 1120 l 1,15,-1
 428 1198 l 2,16,17
 461 1381 461 1381 578 1468.5 c 128,-1,18
 695 1556 695 1556 909 1556 c 2,19,-1
 1183 1556 l 1,0,-1
EndSplineSet
EndChar
StartChar: g
Encoding: 103 103 75
Width: 1466
Flags: HW
HStem: -442 237<475.7 822.8> 1125 20G<462.5 623.5>
VStem: 92 371<372.8 768> 934 360<-51.0001 190 379.3 768 954 1120>
Fore
968 190 m 1,0,1
 876 92 876 92 779 46 c 128,-1,2
 682 -0 682 -0 565 0 c 0,3,4
 360 0 360 0 254.5 161.5 c 128,-1,5
 149 323 149 323 193 573 c 0,6,7
 237 824 237 824 399.5 984.5 c 128,-1,8
 562 1145 562 1145 767 1145 c 0,9,10
 884 1145 884 1145 965 1099 c 128,-1,11
 1046 1053 1046 1053 1102 954 c 1,12,-1
 1131 1120 l 1,13,-1
 1491 1120 l 1,14,-1
 1314 113 l 2,15,16
 1266 -157 1266 -157 1070.5 -299.5 c 128,-1,17
 875 -442 875 -442 551 -442 c 0,18,19
 446 -442 446 -442 351 -426 c 128,-1,20
 256 -410 256 -410 163 -377 c 1,21,-1
 212 -98 l 1,22,23
 296 -152 296 -152 381.5 -178.5 c 128,-1,24
 467 -205 467 -205 558 -205 c 0,25,26
 734 -205 734 -205 829.5 -128 c 128,-1,27
 925 -51 925 -51 954 113 c 2,28,-1
 968 190 l 1,0,1
854 887 m 0,29,30
 743 887 743 887 666.5 805 c 128,-1,31
 590 723 590 723 564 573 c 0,32,33
 537 419 537 419 583 339.5 c 128,-1,34
 629 260 629 260 744 260 c 0,35,36
 856 260 856 260 932.5 342 c 128,-1,37
 1009 424 1009 424 1035 573 c 0,38,39
 1061 723 1061 723 1013.5 805 c 128,-1,40
 966 887 966 887 854 887 c 0,29,30
EndSplineSet
EndChar
StartChar: h
Encoding: 104 104 76
Width: 1458
Flags: HW
HStem: 0 21G<172 530 938 1298> 1127 20G<848 999.995>
VStem: 172 358<0 749.9 956 1556> 938 360<0 778.014>
Fore
1418 682 m 2,0,-1
 1298 0 l 1,1,-1
 938 0 l 1,2,-1
 958 111 l 1,3,-1
 1030 520 l 2,4,5
 1056 667 1056 667 1059 722 c 128,-1,6
 1062 777 1062 777 1051 803 c 0,7,8
 1036 838 1036 838 1003.5 857.5 c 128,-1,9
 971 877 971 877 925 877 c 0,10,11
 813 877 813 877 733.5 790.5 c 128,-1,12
 654 704 654 704 627 551 c 2,13,-1
 530 0 l 1,14,-1
 172 0 l 1,15,-1
 446 1556 l 1,16,-1
 804 1556 l 1,17,-1
 699 956 l 1,18,19
 797 1054 797 1054 896 1100.5 c 128,-1,20
 995 1147 995 1147 1105 1147 c 0,21,22
 1299 1147 1299 1147 1378.5 1028 c 128,-1,23
 1458 909 1458 909 1418 682 c 2,0,-1
EndSplineSet
EndChar
StartChar: i
Encoding: 105 105 77
Width: 702
Flags: HW
HStem: 0 21G<172 530> 1264 292<172 530>
VStem: 172 358<0 1120 1264 1556>
Fore
369 1120 m 1,0,-1
 727 1120 l 1,1,-1
 530 0 l 1,2,-1
 172 0 l 1,3,-1
 369 1120 l 1,0,-1
446 1556 m 1,4,-1
 804 1556 l 1,5,-1
 753 1264 l 1,6,-1
 395 1264 l 1,7,-1
 446 1556 l 1,4,-1
EndSplineSet
EndChar
StartChar: j
Encoding: 106 106 78
Width: 702
Flags: HW
HStem: -442 235<-68 96> 1264 292<172 530>
VStem: 172 358<-114.999 1120 1264 1556>
Fore
369 1120 m 1,0,-1
 727 1120 l 1,1,-1
 534 20 l 2,2,3
 494 -205 494 -205 365 -323.5 c 128,-1,4
 236 -442 236 -442 31 -442 c 2,5,-1
 -146 -442 l 1,6,-1
 -104 -207 l 1,7,-1
 -42 -207 l 2,8,9
 60 -207 60 -207 106 -161 c 128,-1,10
 152 -115 152 -115 176 20 c 2,11,-1
 369 1120 l 1,0,-1
446 1556 m 1,12,-1
 804 1556 l 1,13,-1
 753 1264 l 1,14,-1
 395 1264 l 1,15,-1
 446 1556 l 1,12,-1
EndSplineSet
EndChar
StartChar: k
Encoding: 107 107 79
Width: 1362
Flags: HW
HStem: 0 21G<172 530 967 1401>
VStem: 172 358<0 467 709 1556>
Fore
446 1556 m 1,0,-1
 804 1556 l 1,1,-1
 655 709 l 1,2,-1
 1139 1120 l 1,3,-1
 1555 1120 l 1,4,-1
 918 606 l 1,5,-1
 1401 0 l 1,6,-1
 967 0 l 1,7,-1
 612 467 l 1,8,-1
 530 0 l 1,9,-1
 172 0 l 1,10,-1
 446 1556 l 1,0,-1
EndSplineSet
EndChar
StartChar: l
Encoding: 108 108 80
Width: 702
Flags: HW
HStem: 0 21G<172 530>
VStem: 172 358<0 1556>
Fore
446 1556 m 1,0,-1
 804 1556 l 1,1,-1
 530 0 l 1,2,-1
 172 0 l 1,3,-1
 446 1556 l 1,0,-1
EndSplineSet
EndChar
StartChar: m
Encoding: 109 109 81
Width: 2134
Flags: HW
HStem: 0 21G<170 530 891 1251 1612 1972> 1127 20G<818.5 928>
VStem: 170 360<0 755.1 956 1120> 891 360<0 756.7> 1614 358<0 805.7>
Fore
1375 934 m 1,0,1
 1461 1038 1461 1038 1564 1092.5 c 128,-1,2
 1667 1147 1667 1147 1779 1147 c 0,3,4
 1972 1147 1972 1147 2052 1028 c 128,-1,5
 2132 909 2132 909 2092 682 c 2,6,-1
 1972 0 l 1,7,-1
 1612 0 l 1,8,-1
 1715 584 l 2,9,10
 1718 597 1718 597 1721 611 c 128,-1,11
 1724 625 1724 625 1729 651 c 0,12,13
 1750 770 1750 770 1724.5 823.5 c 128,-1,14
 1699 877 1699 877 1621 877 c 0,15,16
 1519 877 1519 877 1448.5 793 c 128,-1,17
 1378 709 1378 709 1348 550 c 2,18,-1
 1251 0 l 1,19,-1
 891 0 l 1,20,-1
 994 584 l 2,21,22
 1027 770 1027 770 1004.5 823.5 c 128,-1,23
 982 877 982 877 900 877 c 0,24,25
 797 877 797 877 726 792.5 c 128,-1,26
 655 708 655 708 627 551 c 2,27,-1
 530 0 l 1,28,-1
 170 0 l 1,29,-1
 367 1120 l 1,30,-1
 727 1120 l 1,31,-1
 699 956 l 1,32,33
 781 1051 781 1051 875 1099 c 128,-1,34
 969 1147 969 1147 1072 1147 c 0,35,36
 1188 1147 1188 1147 1267 1091 c 128,-1,37
 1346 1035 1346 1035 1375 934 c 1,0,1
EndSplineSet
EndChar
StartChar: n
Encoding: 110 110 82
Width: 1458
Flags: HW
HStem: 0 21G<172 530 938 1298> 1127 20G<848 999.995>
VStem: 172 358<0 749.9 956 1120> 938 360<0 777.417>
Fore
1418 682 m 2,0,-1
 1298 0 l 1,1,-1
 938 0 l 1,2,-1
 958 111 l 1,3,-1
 1030 522 l 2,4,5
 1056 667 1056 667 1059 722 c 128,-1,6
 1062 777 1062 777 1051 803 c 0,7,8
 1036 838 1036 838 1003.5 857.5 c 128,-1,9
 971 877 971 877 925 877 c 0,10,11
 813 877 813 877 733.5 790.5 c 128,-1,12
 654 704 654 704 627 551 c 2,13,-1
 530 0 l 1,14,-1
 172 0 l 1,15,-1
 369 1120 l 1,16,-1
 727 1120 l 1,17,-1
 699 956 l 1,18,19
 797 1054 797 1054 896 1100.5 c 128,-1,20
 995 1147 995 1147 1105 1147 c 0,21,22
 1299 1147 1299 1147 1378.5 1028 c 128,-1,23
 1458 909 1458 909 1418 682 c 2,0,-1
EndSplineSet
EndChar
StartChar: o
Encoding: 111 111 83
Width: 1407
Flags: HW
HStem: -29 256<550.3 857.1> 891 256<550.3 857.1>
VStem: 88 373<349.7 768.3> 946 373<349.7 768.3>
Fore
862 891 m 0,0,1
 743 891 743 891 665.5 805.5 c 128,-1,2
 588 720 588 720 560 559 c 256,3,4
 531 398 531 398 578.5 312.5 c 128,-1,5
 626 227 626 227 745 227 c 0,6,7
 862 227 862 227 939 312.5 c 128,-1,8
 1016 398 1016 398 1045 559 c 256,9,10
 1073 720 1073 720 1026 805.5 c 128,-1,11
 979 891 979 891 862 891 c 0,0,1
907 1147 m 0,12,13
 1196 1147 1196 1147 1331 991 c 128,-1,14
 1466 835 1466 835 1418 559 c 256,15,16
 1369 283 1369 283 1179 127 c 128,-1,17
 989 -29 989 -29 700 -29 c 0,18,19
 410 -29 410 -29 274 127 c 128,-1,20
 138 283 138 283 187 559 c 256,21,22
 235 835 235 835 426 991 c 128,-1,23
 617 1147 617 1147 907 1147 c 0,12,13
EndSplineSet
EndChar
StartChar: p
Encoding: 112 112 84
Width: 1466
Flags: HW
HStem: 1127 20G<842.5 1004.5>
VStem: 172 358<-426 162 352.3 765.7 956 1120> 1004 370<351 767>
Fore
559 162 m 1,0,-1
 455 -426 l 1,1,-1
 97 -426 l 1,2,-1
 369 1120 l 1,3,-1
 727 1120 l 1,4,-1
 699 956 l 1,5,6
 790 1054 790 1054 888 1100.5 c 128,-1,7
 986 1147 986 1147 1103 1147 c 0,8,9
 1310 1147 1310 1147 1414 982.5 c 128,-1,10
 1518 818 1518 818 1473 559 c 256,11,12
 1427 300 1427 300 1265 135.5 c 128,-1,13
 1103 -29 1103 -29 896 -29 c 0,14,15
 779 -29 779 -29 697 17.5 c 128,-1,16
 615 64 615 64 559 162 c 1,0,-1
924 887 m 256,17,18
 809 887 809 887 733 802.5 c 128,-1,19
 657 718 657 718 629 559 c 256,20,21
 601 400 601 400 647.5 315.5 c 128,-1,22
 694 231 694 231 809 231 c 256,23,24
 924 231 924 231 999 315 c 128,-1,25
 1074 399 1074 399 1103 559 c 256,26,27
 1131 719 1131 719 1085 803 c 128,-1,28
 1039 887 1039 887 924 887 c 256,17,18
EndSplineSet
EndChar
StartChar: q
Encoding: 113 113 85
Width: 1466
Flags: HW
HStem: 1125 20G<461.5 623.5>
VStem: 92 371<351 767> 934 360<-426 162 351 767 954 1120>
Fore
854 887 m 0,0,1
 740 887 740 887 665 803 c 128,-1,2
 590 719 590 719 562 559 c 256,3,4
 533 399 533 399 579 315 c 128,-1,5
 625 231 625 231 739 231 c 0,6,7
 854 231 854 231 929 315 c 128,-1,8
 1004 399 1004 399 1033 559 c 256,9,10
 1061 719 1061 719 1015 803 c 128,-1,11
 969 887 969 887 854 887 c 0,0,1
963 162 m 1,12,13
 871 63 871 63 774 17 c 128,-1,14
 677 -29 677 -29 560 -29 c 0,15,16
 353 -29 353 -29 249 135.5 c 128,-1,17
 145 300 145 300 191 559 c 256,18,19
 236 818 236 818 398 981.5 c 128,-1,20
 560 1145 560 1145 767 1145 c 0,21,22
 884 1145 884 1145 965 1099 c 128,-1,23
 1046 1053 1046 1053 1102 954 c 1,24,-1
 1131 1120 l 1,25,-1
 1491 1120 l 1,26,-1
 1219 -426 l 1,27,-1
 859 -426 l 1,28,-1
 963 162 l 1,12,13
EndSplineSet
EndChar
StartChar: r
Encoding: 114 114 86
Width: 1010
Flags: HW
HStem: 0 21G<172 530>
VStem: 172 358<0 730.5 936 1120>
Fore
1148 815 m 1,0,1
 1105 837 1105 837 1060 847.5 c 128,-1,2
 1015 858 1015 858 968 858 c 0,3,4
 830 858 830 858 740 769.5 c 128,-1,5
 650 681 650 681 621 516 c 2,6,-1
 530 0 l 1,7,-1
 172 0 l 1,8,-1
 369 1120 l 1,9,-1
 727 1120 l 1,10,-1
 695 936 l 1,11,12
 783 1046 783 1046 881.5 1096.5 c 128,-1,13
 980 1147 980 1147 1105 1147 c 0,14,15
 1123 1147 1123 1147 1144 1145.5 c 128,-1,16
 1165 1144 1165 1144 1204 1139 c 1,17,-1
 1148 815 l 1,0,1
EndSplineSet
EndChar
StartChar: s
Encoding: 115 115 87
Width: 1219
Flags: HW
HStem: -29 238<425.894 707.5> 431 265<477.626 709.697> 909 238<490.4 750.4>
Fore
1238 1085 m 1,0,-1
 1190 813 l 1,1,2
 1084 861 1084 861 981 885 c 128,-1,3
 878 909 878 909 783 909 c 0,4,5
 681 909 681 909 627 883.5 c 128,-1,6
 573 858 573 858 564 805 c 0,7,8
 556 762 556 762 589.5 739 c 128,-1,9
 623 716 623 716 718 705 c 2,10,-1
 780 696 l 2,11,12
 1049 661 1049 661 1129.5 581 c 128,-1,13
 1210 501 1210 501 1180 330 c 0,14,15
 1149 151 1149 151 1001 61 c 128,-1,16
 853 -29 853 -29 591 -29 c 0,17,18
 480 -29 480 -29 364.5 -11.5 c 128,-1,19
 249 6 249 6 130 41 c 1,20,-1
 178 313 l 1,21,22
 276 261 276 261 384 235 c 128,-1,23
 492 209 492 209 608 209 c 0,24,25
 713 209 713 209 771 238 c 128,-1,26
 829 267 829 267 839 324 c 0,27,28
 848 372 848 372 815.5 395.5 c 128,-1,29
 783 419 783 419 676 432 c 2,30,-1
 615 440 l 2,31,32
 381 470 381 470 299 551 c 128,-1,33
 217 632 217 632 247 797 c 0,34,35
 278 975 278 975 415 1061 c 128,-1,36
 552 1147 552 1147 804 1147 c 0,37,38
 903 1147 903 1147 1009.5 1132 c 128,-1,39
 1116 1117 1116 1117 1238 1085 c 1,0,-1
EndSplineSet
EndChar
StartChar: t
Encoding: 116 116 88
Width: 979
Flags: HW
HStem: 0 256<597.4 901> 864 256<27 205 563 932>
VStem: 205 358<311 864 1120 1438>
Fore
817 1438 m 1,0,-1
 760 1120 l 1,1,-1
 1129 1120 l 1,2,-1
 1084 864 l 1,3,-1
 715 864 l 1,4,-1
 632 389 l 2,5,6
 618 311 618 311 644 283.5 c 128,-1,7
 670 256 670 256 762 256 c 2,8,-1
 946 256 l 1,9,-1
 901 0 l 1,10,-1
 594 0 l 2,11,12
 382 0 382 0 309 88.5 c 128,-1,13
 236 177 236 177 274 389 c 2,14,-1
 357 864 l 1,15,-1
 179 864 l 1,16,-1
 224 1120 l 1,17,-1
 402 1120 l 1,18,-1
 459 1438 l 1,19,-1
 817 1438 l 1,0,-1
EndSplineSet
EndChar
StartChar: u
Encoding: 117 117 89
Width: 1458
Flags: HW
HStem: 0 21G<928 1286>
VStem: 160 358<355.835 1120> 928 358<0 162 368.1 1120>
Fore
237 436 m 2,0,-1
 357 1120 l 1,1,-1
 717 1120 l 1,2,-1
 698 1008 l 2,3,4
 682 917 682 917 656.5 779.5 c 128,-1,5
 631 642 631 642 623 596 c 0,6,7
 599 461 599 461 595.5 401.5 c 128,-1,8
 592 342 592 342 605 315 c 0,9,10
 620 280 620 280 652.5 261 c 128,-1,11
 685 242 685 242 731 242 c 0,12,13
 843 242 843 242 922 328 c 128,-1,14
 1001 414 1001 414 1028 567 c 2,15,-1
 1125 1120 l 1,16,-1
 1483 1120 l 1,17,-1
 1286 0 l 1,18,-1
 928 0 l 1,19,-1
 957 162 l 1,20,21
 858 64 858 64 759.5 17.5 c 128,-1,22
 661 -29 661 -29 552 -29 c 0,23,24
 358 -29 358 -29 277.5 90 c 128,-1,25
 197 209 197 209 237 436 c 2,0,-1
EndSplineSet
EndChar
StartChar: v
Encoding: 118 118 90
Width: 1335
Flags: HW
HStem: 0 21G<471 864>
Fore
228 1120 m 1,0,-1
 586 1120 l 1,1,-1
 729 346 l 1,2,-1
 1143 1120 l 1,3,-1
 1502 1120 l 1,4,-1
 864 0 l 1,5,-1
 471 0 l 1,6,-1
 228 1120 l 1,0,-1
EndSplineSet
EndChar
StartChar: w
Encoding: 119 119 91
Width: 1892
Flags: HW
HStem: 0 21G<367 758 1135 1526>
Fore
269 1120 m 1,0,-1
 617 1120 l 1,1,-1
 669 348 l 1,2,-1
 994 1120 l 1,3,-1
 1293 1120 l 1,4,-1
 1347 356 l 1,5,-1
 1670 1120 l 1,6,-1
 2018 1120 l 1,7,-1
 1526 0 l 1,8,-1
 1135 0 l 1,9,-1
 1082 770 l 1,10,-1
 758 0 l 1,11,-1
 367 0 l 1,12,-1
 269 1120 l 1,0,-1
EndSplineSet
EndChar
StartChar: x
Encoding: 120 120 92
Width: 1321
Flags: HW
HStem: 0 21G<31 410 911 1290>
Fore
556 573 m 1,0,-1
 248 1120 l 1,1,-1
 627 1120 l 1,2,-1
 798 788 l 1,3,-1
 1088 1120 l 1,4,-1
 1467 1120 l 1,5,-1
 967 575 l 1,6,-1
 1290 0 l 1,7,-1
 911 0 l 1,8,-1
 721 354 l 1,9,-1
 410 0 l 1,10,-1
 31 0 l 1,11,-1
 556 573 l 1,0,-1
EndSplineSet
EndChar
StartChar: y
Encoding: 121 121 93
Width: 1335
Flags: HW
HStem: -442 235<205 408>
Fore
222 1120 m 1,0,-1
 580 1120 l 1,1,-1
 747 360 l 1,2,-1
 1137 1120 l 1,3,-1
 1495 1120 l 1,4,-1
 808 -106 l 2,5,6
 704 -293 704 -293 596.5 -367.5 c 128,-1,7
 489 -442 489 -442 334 -442 c 2,8,-1
 127 -442 l 1,9,-1
 168 -207 l 1,10,-1
 280 -207 l 2,11,12
 372 -207 372 -207 418.5 -178 c 128,-1,13
 465 -149 465 -149 501 -74 c 2,14,-1
 516 -43 l 1,15,-1
 222 1120 l 1,0,-1
EndSplineSet
EndChar
StartChar: z
Encoding: 122 122 94
Width: 1192
Flags: HW
HStem: 0 256<504 1094> 864 256<117 682>
Fore
314 1120 m 1,0,-1
 1291 1120 l 1,1,-1
 1247 870 l 1,2,-1
 549 256 l 1,3,-1
 1139 256 l 1,4,-1
 1094 0 l 1,5,-1
 92 0 l 1,6,-1
 136 250 l 1,7,-1
 834 864 l 1,8,-1
 269 864 l 1,9,-1
 314 1120 l 1,0,-1
EndSplineSet
EndChar
StartChar: braceleft
Encoding: 123 123 95
Width: 1458
Flags: HW
HStem: -334 225<992 1202> 494 223<256 501.6> 1331 225<992 1202>
VStem: 567 340<-22 377 788 1244>
Fore
1183 -109 m 1,0,-1
 1143 -334 l 1,1,-1
 926 -334 l 2,2,3
 708 -334 708 -334 623.5 -246 c 128,-1,4
 539 -158 539 -158 573 35 c 2,5,-1
 607 227 l 2,6,7
 633 377 633 377 589.5 435.5 c 128,-1,8
 546 494 546 494 404 494 c 2,9,-1
 343 494 l 1,10,-1
 382 717 l 1,11,-1
 443 717 l 2,12,13
 585 717 585 717 649.5 775 c 128,-1,14
 714 833 714 833 740 983 c 2,15,-1
 776 1188 l 2,16,17
 811 1381 811 1381 926 1468.5 c 128,-1,18
 1041 1556 1041 1556 1259 1556 c 2,19,-1
 1476 1556 l 1,20,-1
 1437 1331 l 1,21,-1
 1368 1331 l 2,22,23
 1227 1331 1227 1331 1176.5 1287.5 c 128,-1,24
 1126 1244 1126 1244 1101 1102 c 2,25,-1
 1072 936 l 2,26,27
 1044 779 1044 779 986.5 708 c 128,-1,28
 929 637 929 637 815 612 c 1,29,30
 921 585 921 585 953 514 c 128,-1,31
 985 443 985 443 958 287 c 2,32,-1
 928 121 l 2,33,34
 903 -22 903 -22 938 -65.5 c 128,-1,35
 973 -109 973 -109 1114 -109 c 2,36,-1
 1183 -109 l 1,0,-1
EndSplineSet
EndChar
StartChar: bar
Encoding: 124 124 96
Width: 748
Flags: HW
VStem: 260 227<-483 1565>
Fore
763 1565 m 1,0,-1
 402 -483 l 1,1,-1
 175 -483 l 1,2,-1
 536 1565 l 1,3,-1
 763 1565 l 1,0,-1
EndSplineSet
EndChar
StartChar: braceright
Encoding: 125 125 97
Width: 1458
Flags: HW
HStem: -334 225<256 466> 494 223<956.4 1202> 1331 225<256 508>
VStem: 551 340<-64.9 377 788 1244.01>
Fore
237 -109 m 1,0,-1
 307 -109 l 2,1,2
 447 -109 447 -109 497 -65.5 c 128,-1,3
 547 -22 547 -22 572 121 c 2,4,-1
 602 287 l 2,5,6
 629 443 629 443 686.5 514 c 128,-1,7
 744 585 744 585 860 612 c 1,8,9
 753 637 753 637 720.5 708 c 128,-1,10
 688 779 688 779 716 936 c 2,11,-1
 745 1102 l 2,12,13
 770 1244 770 1244 735.5 1287.5 c 128,-1,14
 701 1331 701 1331 561 1331 c 2,15,-1
 491 1331 l 1,16,-1
 530 1556 l 1,17,-1
 747 1556 l 2,18,19
 965 1556 965 1556 1050 1468.5 c 128,-1,20
 1135 1381 1135 1381 1100 1188 c 2,21,-1
 1064 983 l 2,22,23
 1038 833 1038 833 1081.5 775 c 128,-1,24
 1125 717 1125 717 1267 717 c 2,25,-1
 1328 717 l 1,26,-1
 1289 494 l 1,27,-1
 1228 494 l 2,28,29
 1086 494 1086 494 1021.5 435.5 c 128,-1,30
 957 377 957 377 931 227 c 2,31,-1
 897 35 l 2,32,33
 863 -158 863 -158 747.5 -246 c 128,-1,34
 632 -334 632 -334 414 -334 c 2,35,-1
 197 -334 l 1,36,-1
 237 -109 l 1,0,-1
EndSplineSet
EndChar
StartChar: asciitilde
Encoding: 126 126 98
Width: 1716
Flags: HW
HStem: 457 233<1018.8 1242.79> 594 233<473.2 697.2>
Fore
1649 850 m 1,0,-1
 1606 606 l 1,1,2
 1486 526 1486 526 1390.5 491.5 c 128,-1,3
 1295 457 1295 457 1199 457 c 0,4,5
 1092 457 1092 457 959 515 c 0,6,7
 946 521 946 521 938 524 c 2,8,-1
 918 533 l 2,9,10
 774 594 774 594 680 594 c 0,11,12
 592 594 592 594 499 555.5 c 128,-1,13
 406 517 406 517 294 434 c 1,14,-1
 337 678 l 1,15,16
 458 758 458 758 553 792.5 c 128,-1,17
 648 827 648 827 744 827 c 0,18,19
 851 827 851 827 984 769 c 2,20,-1
 1004 760 l 257,21,-1
 1024 751 l 2,22,23
 1169 690 1169 690 1263 690 c 0,24,25
 1349 690 1349 690 1440 727.5 c 128,-1,26
 1531 765 1531 765 1649 850 c 1,0,-1
EndSplineSet
EndChar
StartChar: exclamdown
Encoding: 161 161 100
Width: 934
Flags: HW
HStem: 0 21G<287 647> 1137 356<287 647>
VStem: 287 360<0 623.357 1137 1493>
Fore
287 0 m 1,0,-1
 388 573 l 1,1,-1
 513 991 l 1,2,-1
 771 991 l 1,3,-1
 748 573 l 1,4,-1
 647 0 l 1,5,-1
 287 0 l 1,0,-1
487 1137 m 1,6,-1
 550 1493 l 1,7,-1
 910 1493 l 1,8,-1
 847 1137 l 1,9,-1
 487 1137 l 1,6,-1
EndSplineSet
EndChar
StartChar: cent
Encoding: 162 162 101
Width: 1425
Flags: HW
VStem: 174 373<417.3 699.4> 702 162<-313 -29 260 858 1145 1432>
Fore
853 858 m 1,0,1
 768 814 768 814 716.5 740.5 c 128,-1,2
 665 667 665 667 646 559 c 0,3,4
 626 450 626 450 651.5 376 c 128,-1,5
 677 302 677 302 748 260 c 1,6,-1
 853 858 l 1,0,1
1352 1085 m 1,7,-1
 1301 793 l 1,8,9
 1235 841 1235 841 1168 866 c 128,-1,10
 1101 891 1101 891 1036 891 c 2,11,-1
 1021 891 l 1,12,-1
 904 228 l 1,13,14
 993 229 993 229 1073 254 c 128,-1,15
 1153 279 1153 279 1218 326 c 1,16,-1
 1167 33 l 1,17,18
 1079 3 1079 3 1003 -13 c 128,-1,19
 927 -29 927 -29 869 -29 c 2,20,-1
 859 -29 l 1,21,-1
 809 -313 l 1,22,-1
 647 -313 l 1,23,-1
 698 -25 l 1,24,25
 443 15 443 15 336.5 166 c 128,-1,26
 230 317 230 317 275 575 c 0,27,28
 318 819 318 819 479 964.5 c 128,-1,29
 640 1110 640 1110 904 1145 c 1,30,-1
 954 1432 l 1,31,-1
 1116 1432 l 1,32,-1
 1067 1145 l 1,33,34
 1137 1142 1137 1142 1208 1127.5 c 128,-1,35
 1279 1113 1279 1113 1352 1085 c 1,7,-1
EndSplineSet
EndChar
StartChar: sterling
Encoding: 163 163 102
Width: 1425
Flags: HW
HStem: 0 266<125 352 717 1255> 592 239<158 352 717 1090> 1257 263<794.6 1040.84>
VStem: 352 365<266 592 831 1171.29>
Fore
1501 1466 m 1,0,-1
 1451 1180 l 1,1,2
 1388 1219 1388 1219 1317.5 1238 c 128,-1,3
 1247 1257 1247 1257 1170 1257 c 0,4,5
 1052 1257 1052 1257 984.5 1194.5 c 128,-1,6
 917 1132 917 1132 894 1001 c 2,7,-1
 864 831 l 1,8,-1
 1237 831 l 1,9,-1
 1194 592 l 1,10,-1
 821 592 l 1,11,-1
 764 266 l 1,12,-1
 1302 266 l 1,13,-1
 1255 0 l 1,14,-1
 125 0 l 1,15,-1
 172 266 l 1,16,-1
 399 266 l 1,17,-1
 456 592 l 1,18,-1
 262 592 l 1,19,-1
 305 831 l 1,20,-1
 499 831 l 1,21,-1
 529 1001 l 2,22,23
 576 1272 576 1272 725 1396 c 128,-1,24
 874 1520 874 1520 1149 1520 c 0,25,26
 1241 1520 1241 1520 1329 1506.5 c 128,-1,27
 1417 1493 1417 1493 1501 1466 c 1,0,-1
EndSplineSet
EndChar
StartChar: currency
Encoding: 164 164 103
Width: 1303
Flags: HW
HStem: 213 209<554.029 747.988> 860 209<557.43 747.331>
VStem: 225 209<543.449 736.471> 872 209<543.957 733.697>
Fore
481 268 m 1,0,-1
 238 61 l 1,1,-1
 112 215 l 1,2,-1
 355 422 l 1,3,4
 336 471 336 471 331.5 524.5 c 128,-1,5
 327 578 327 578 338 641 c 256,6,7
 349 704 349 704 373.5 758 c 128,-1,8
 398 812 398 812 436 858 c 1,9,-1
 263 1063 l 1,10,-1
 444 1217 l 1,11,-1
 614 1010 l 1,12,13
 667 1040 667 1040 723.5 1054.5 c 128,-1,14
 780 1069 780 1069 841 1069 c 0,15,16
 895 1069 895 1069 947 1055.5 c 128,-1,17
 999 1042 999 1042 1051 1014 c 1,18,-1
 1294 1221 l 1,19,-1
 1419 1067 l 1,20,-1
 1176 860 l 1,21,22
 1195 805 1195 805 1199.5 750 c 128,-1,23
 1204 695 1204 695 1194 641 c 0,24,25
 1183 578 1183 578 1159 525.5 c 128,-1,26
 1135 473 1135 473 1097 426 c 1,27,-1
 1268 219 l 1,28,-1
 1087 66 l 1,29,-1
 916 272 l 1,30,31
 865 242 865 242 809.5 227.5 c 128,-1,32
 754 213 754 213 691 213 c 0,33,34
 633 213 633 213 581 226.5 c 128,-1,35
 529 240 529 240 481 268 c 1,0,-1
727 422 m 0,36,37
 818 422 818 422 893.5 485.5 c 128,-1,38
 969 549 969 549 985 641 c 256,39,40
 1001 733 1001 733 949 796.5 c 128,-1,41
 897 860 897 860 805 860 c 0,42,43
 714 860 714 860 638.5 796.5 c 128,-1,44
 563 733 563 733 547 641 c 0,45,46
 531 548 531 548 582.5 485 c 128,-1,47
 634 422 634 422 727 422 c 0,36,37
EndSplineSet
EndChar
StartChar: yen
Encoding: 165 165 104
Width: 1425
Flags: HW
HStem: 0 21G<522 903> 416 194<68 522 903 1358> 762 192<68 360 1065 1358>
VStem: 522 381<0 416 610 676>
Fore
1431 416 m 1,0,-1
 976 416 l 1,1,-1
 903 0 l 1,2,-1
 522 0 l 1,3,-1
 595 416 l 1,4,-1
 141 416 l 1,5,-1
 176 610 l 1,6,-1
 630 610 l 1,7,-1
 641 676 l 1,8,-1
 607 762 l 1,9,-1
 202 762 l 1,10,-1
 236 954 l 1,11,-1
 528 954 l 1,12,-1
 288 1493 l 1,13,-1
 687 1493 l 1,14,-1
 895 1032 l 1,15,-1
 1264 1493 l 1,16,-1
 1664 1493 l 1,17,-1
 1233 954 l 1,18,-1
 1526 954 l 1,19,-1
 1492 762 l 1,20,-1
 1086 762 l 1,21,-1
 1022 676 l 1,22,-1
 1011 610 l 1,23,-1
 1466 610 l 1,24,-1
 1431 416 l 1,0,-1
EndSplineSet
EndChar
StartChar: brokenbar
Encoding: 166 166 105
Width: 748
Flags: HW
VStem: 260 227<-350 408 674 1432>
Fore
740 1432 m 1,0,-1
 606 674 l 1,1,-1
 379 674 l 1,2,-1
 512 1432 l 1,3,-1
 740 1432 l 1,0,-1
559 408 m 1,4,-1
 425 -350 l 1,5,-1
 198 -350 l 1,6,-1
 332 408 l 1,7,-1
 559 408 l 1,4,-1
EndSplineSet
EndChar
StartChar: section
Encoding: 167 167 106
Width: 1024
Flags: HW
HStem: -195 211<377.794 553.5> 1313 207<473.5 660.6>
Fore
1143 1462 m 1,0,-1
 1103 1235 l 1,1,2
 1011 1274 1011 1274 935.5 1293.5 c 128,-1,3
 860 1313 860 1313 803 1313 c 0,4,5
 728 1313 728 1313 685.5 1288.5 c 128,-1,6
 643 1264 643 1264 635 1217 c 0,7,8
 623 1150 623 1150 797 1071 c 0,9,10
 821 1060 821 1060 833 1055 c 0,11,12
 1027 966 1027 966 1091.5 879.5 c 128,-1,13
 1156 793 1156 793 1134 668 c 0,14,15
 1113 551 1113 551 1042.5 471.5 c 128,-1,16
 972 392 972 392 847 344 c 1,17,18
 916 303 916 303 944 246.5 c 128,-1,19
 972 190 972 190 959 117 c 0,20,21
 933 -28 933 -28 797.5 -111.5 c 128,-1,22
 662 -195 662 -195 449 -195 c 0,23,24
 364 -195 364 -195 276 -180.5 c 128,-1,25
 188 -166 188 -166 91 -137 c 1,26,-1
 133 100 l 1,27,28
 240 59 240 59 327.5 37.5 c 128,-1,29
 415 16 415 16 472 16 c 0,30,31
 537 16 537 16 580.5 41 c 128,-1,32
 624 66 624 66 631 106 c 0,33,34
 643 176 643 176 476 250 c 0,35,36
 443 264 443 264 425 272 c 0,37,38
 237 359 237 359 173 448.5 c 128,-1,39
 109 538 109 538 132 668 c 0,40,41
 150 772 150 772 219 849 c 128,-1,42
 288 926 288 926 410 977 c 1,43,44
 344 1028 344 1028 321.5 1083.5 c 128,-1,45
 299 1139 299 1139 312 1214 c 0,46,47
 337 1358 337 1358 466 1439 c 128,-1,48
 595 1520 595 1520 796 1520 c 0,49,50
 880 1520 880 1520 967.5 1505.5 c 128,-1,51
 1055 1491 1055 1491 1143 1462 c 1,0,-1
585 856 m 1,52,53
 512 828 512 828 472 790 c 128,-1,54
 432 752 432 752 423 702 c 0,55,56
 411 635 411 635 464 586 c 128,-1,57
 517 537 517 537 687 471 c 1,58,59
 756 494 756 494 798 533.5 c 128,-1,60
 840 573 840 573 849 625 c 0,61,62
 861 692 861 692 801.5 745 c 128,-1,63
 742 798 742 798 585 856 c 1,52,53
EndSplineSet
EndChar
StartChar: dieresis
Encoding: 168 168 107
Width: 1024
Flags: HW
HStem: 1339 246<197 432 592 827>
VStem: 197 235<1339 1585> 592 235<1339 1585>
Fore
476 1585 m 1,0,-1
 711 1585 l 1,1,-1
 668 1339 l 1,2,-1
 433 1339 l 1,3,-1
 476 1585 l 1,0,-1
871 1585 m 1,4,-1
 1106 1585 l 1,5,-1
 1063 1339 l 1,6,-1
 828 1339 l 1,7,-1
 871 1585 l 1,4,-1
EndSplineSet
EndChar
StartChar: copyright
Encoding: 169 169 108
Width: 2048
Flags: HW
HStem: 0 154<866.7 1183.9> 313 187<949.8 1183.21> 983 186<951.107 1183.03> 1331 154<866.7 1181.3>
VStem: 283 151<583.7 899.6> 600 258<591.5 889.2> 1614 151<583.7 899.6>
Fore
1522 1126 m 1,0,-1
 1484 911 l 1,1,2
 1433 948 1433 948 1380.5 965.5 c 128,-1,3
 1328 983 1328 983 1271 983 c 0,4,5
 1158 983 1158 983 1083.5 919 c 128,-1,6
 1009 855 1009 855 989 741 c 0,7,8
 968 626 968 626 1020 563 c 128,-1,9
 1072 500 1072 500 1186 500 c 0,10,11
 1250 500 1250 500 1311 518 c 128,-1,12
 1372 536 1372 536 1424 571 c 1,13,-1
 1386 358 l 1,14,15
 1317 336 1317 336 1249.5 324.5 c 128,-1,16
 1182 313 1182 313 1120 313 c 0,17,18
 909 313 909 313 802.5 430 c 128,-1,19
 696 547 696 547 731 741 c 0,20,21
 765 936 765 936 912.5 1052.5 c 128,-1,22
 1060 1169 1060 1169 1271 1169 c 0,23,24
 1340 1169 1340 1169 1402 1158.5 c 128,-1,25
 1464 1148 1464 1148 1522 1126 c 1,0,-1
1259 1331 m 256,26,27
 1138 1331 1138 1331 1026 1287.5 c 128,-1,28
 914 1244 914 1244 812 1157 c 256,29,30
 710 1070 710 1070 648 966.5 c 128,-1,31
 586 863 586 863 565 741 c 0,32,33
 543 620 543 620 568.5 516.5 c 128,-1,34
 594 413 594 413 665 326 c 0,35,36
 736 240 736 240 833 197 c 128,-1,37
 930 154 930 154 1051 154 c 0,38,39
 1174 154 1174 154 1284.5 196.5 c 128,-1,40
 1395 239 1395 239 1497 326 c 256,41,42
 1600 413 1600 413 1661.5 516.5 c 128,-1,43
 1723 620 1723 620 1745 741 c 0,44,45
 1766 863 1766 863 1741 966.5 c 128,-1,46
 1716 1070 1716 1070 1644 1157 c 0,47,48
 1572 1245 1572 1245 1476 1288 c 128,-1,49
 1380 1331 1380 1331 1259 1331 c 256,26,27
1286 1485 m 256,50,51
 1438 1485 1438 1485 1559.5 1430 c 128,-1,52
 1681 1375 1681 1375 1771 1266 c 256,53,54
 1861 1157 1861 1157 1892 1026 c 128,-1,55
 1923 895 1923 895 1896 741 c 0,56,57
 1869 589 1869 589 1792 458.5 c 128,-1,58
 1715 328 1715 328 1587 219 c 256,59,60
 1458 110 1458 110 1317 55 c 128,-1,61
 1176 -0 1176 -0 1024 0 c 256,62,63
 872 0 872 0 750 55 c 128,-1,64
 628 110 628 110 539 219 c 256,65,66
 449 328 449 328 418 458.5 c 128,-1,67
 387 589 387 589 414 741 c 0,68,69
 441 895 441 895 518 1026 c 128,-1,70
 595 1157 595 1157 723 1266 c 256,71,72
 851 1375 851 1375 992.5 1430 c 128,-1,73
 1134 1485 1134 1485 1286 1485 c 256,50,51
EndSplineSet
EndChar
StartChar: ordfeminine
Encoding: 170 170 109
Width: 1155
Flags: HW
HStem: 373 200<176 989> 696 162<454.6 589.2> 1081 138<470.1 731> 1354 166<427.966 667.5>
VStem: 158 248<900.7 1047.61> 733 268<945.9 1081 1219 1294.99> 756 245<717 844>
Fore
277 573 m 1,0,-1
 1090 573 l 1,1,-1
 1055 373 l 1,2,-1
 242 373 l 1,3,-1
 277 573 l 1,0,-1
834 1081 m 2,4,5
 701 1081 701 1081 644 1055 c 128,-1,6
 587 1029 587 1029 577 967 c 0,7,8
 568 916 568 916 595.5 887 c 128,-1,9
 623 858 623 858 681 858 c 0,10,11
 770 858 770 858 837 915 c 128,-1,12
 904 972 904 972 920 1059 c 2,13,-1
 924 1081 l 1,14,-1
 834 1081 l 2,4,5
1206 1165 m 2,15,-1
 1127 717 l 1,16,-1
 882 717 l 1,17,-1
 905 844 l 1,18,19
 836 768 836 768 760 732 c 128,-1,20
 684 696 684 696 590 696 c 0,21,22
 445 696 445 696 374.5 763 c 128,-1,23
 304 830 304 830 325 946 c 0,24,25
 350 1087 350 1087 466.5 1153 c 128,-1,26
 583 1219 583 1219 809 1219 c 2,27,-1
 946 1219 l 1,28,-1
 949 1239 l 2,29,30
 959 1295 959 1295 920 1324.5 c 128,-1,31
 881 1354 881 1354 796 1354 c 0,32,33
 709 1354 709 1354 623 1336.5 c 128,-1,34
 537 1319 537 1319 451 1284 c 1,35,-1
 483 1464 l 1,36,37
 580 1492 580 1492 667 1506 c 128,-1,38
 754 1520 754 1520 829 1520 c 0,39,40
 1053 1520 1053 1520 1145.5 1432.5 c 128,-1,41
 1238 1345 1238 1345 1206 1165 c 2,15,-1
EndSplineSet
EndChar
StartChar: guillemotleft
Encoding: 171 171 110
Width: 1323
Flags: HW
HStem: 137 926<651 651>
VStem: 158 972<506 1063>
Fore
838 1063 m 1,0,-1
 796 821 l 1,1,-1
 464 600 l 1,2,-1
 718 379 l 1,3,-1
 675 137 l 1,4,-1
 247 506 l 1,5,-1
 280 692 l 1,6,-1
 838 1063 l 1,0,-1
1317 1063 m 1,7,-1
 1275 821 l 1,8,-1
 944 600 l 1,9,-1
 1197 379 l 1,10,-1
 1154 137 l 1,11,-1
 726 506 l 1,12,-1
 759 692 l 1,13,-1
 1317 1063 l 1,7,-1
EndSplineSet
EndChar
StartChar: logicalnot
Encoding: 172 172 111
Width: 1716
Flags: HW
HStem: 672 237<217 1264>
VStem: 1264 235<287 672>
Fore
377 909 m 1,0,-1
 1659 909 l 1,1,-1
 1550 287 l 1,2,-1
 1315 287 l 1,3,-1
 1382 672 l 1,4,-1
 335 672 l 1,5,-1
 377 909 l 1,0,-1
EndSplineSet
EndChar
StartChar: uni00AD
Encoding: 173 173 112
Width: 850
Flags: HW
HStem: 444 291<111 739>
Fore
241 735 m 1,0,-1
 869 735 l 1,1,-1
 817 444 l 1,2,-1
 189 444 l 1,3,-1
 241 735 l 1,0,-1
EndSplineSet
EndChar
StartChar: registered
Encoding: 174 174 113
Width: 2048
Flags: HW
HStem: 0 154<866.7 1183.9> 1036 138<932 1070.99> 1331 154<866.7 1181.3>
VStem: 283 151<583.7 899.6> 719 213<338 694 829 1036> 1124 230<866.4 1001.6> 1614 151<583.7 899.6>
Fore
1259 1331 m 256,0,1
 1138 1331 1138 1331 1026 1287.5 c 128,-1,2
 914 1244 914 1244 812 1157 c 256,3,4
 710 1070 710 1070 648 966.5 c 128,-1,5
 586 863 586 863 565 741 c 0,6,7
 543 620 543 620 568.5 516.5 c 128,-1,8
 594 413 594 413 665 326 c 0,9,10
 736 240 736 240 833 197 c 128,-1,11
 930 154 930 154 1051 154 c 0,12,13
 1174 154 1174 154 1284.5 196.5 c 128,-1,14
 1395 239 1395 239 1497 326 c 256,15,16
 1600 413 1600 413 1661.5 516.5 c 128,-1,17
 1723 620 1723 620 1745 741 c 0,18,19
 1766 863 1766 863 1741 966.5 c 128,-1,20
 1716 1070 1716 1070 1644 1157 c 0,21,22
 1572 1245 1572 1245 1476 1288 c 128,-1,23
 1380 1331 1380 1331 1259 1331 c 256,0,1
1150 1036 m 2,24,-1
 1115 1036 l 1,25,-1
 1078 829 l 1,26,-1
 1113 829 l 2,27,28
 1191 829 1191 829 1235.5 855.5 c 128,-1,29
 1280 882 1280 882 1289 934 c 256,30,31
 1298 986 1298 986 1264 1011 c 128,-1,32
 1230 1036 1230 1036 1150 1036 c 2,24,-1
1211 1174 m 2,33,34
 1387 1174 1387 1174 1463.5 1114.5 c 128,-1,35
 1540 1055 1540 1055 1519 934 c 0,36,37
 1504 848 1504 848 1441.5 792 c 128,-1,38
 1379 736 1379 736 1280 719 c 1,39,40
 1317 697 1317 697 1345.5 657 c 128,-1,41
 1374 617 1374 617 1393 559 c 2,42,-1
 1465 338 l 1,43,-1
 1236 338 l 1,44,-1
 1166 551 l 2,45,46
 1142 629 1142 629 1118.5 661.5 c 128,-1,47
 1095 694 1095 694 1066 694 c 2,48,-1
 1054 694 l 1,49,-1
 992 338 l 1,50,-1
 779 338 l 1,51,-1
 926 1174 l 1,52,-1
 1211 1174 l 2,33,34
1286 1485 m 256,53,54
 1438 1485 1438 1485 1559.5 1430 c 128,-1,55
 1681 1375 1681 1375 1771 1266 c 256,56,57
 1861 1157 1861 1157 1892 1026 c 128,-1,58
 1923 895 1923 895 1896 741 c 0,59,60
 1869 589 1869 589 1792 458.5 c 128,-1,61
 1715 328 1715 328 1587 219 c 256,62,63
 1458 110 1458 110 1317 55 c 128,-1,64
 1176 -0 1176 -0 1024 0 c 256,65,66
 872 0 872 0 750 55 c 128,-1,67
 628 110 628 110 539 219 c 256,68,69
 449 328 449 328 418 458.5 c 128,-1,70
 387 589 387 589 414 741 c 0,71,72
 441 895 441 895 518 1026 c 128,-1,73
 595 1157 595 1157 723 1266 c 256,74,75
 851 1375 851 1375 992.5 1430 c 128,-1,76
 1134 1485 1134 1485 1286 1485 c 256,53,54
EndSplineSet
EndChar
StartChar: macron
Encoding: 175 175 114
Width: 1024
Flags: HW
HStem: 1368 188<197 827>
Fore
471 1556 m 1,0,-1
 1101 1556 l 1,1,-1
 1068 1368 l 1,2,-1
 438 1368 l 1,3,-1
 471 1556 l 1,0,-1
EndSplineSet
EndChar
StartChar: degree
Encoding: 176 176 115
Width: 1024
Flags: HW
HStem: 868 162<417.1 598.4> 1372 162<418.4 597.8>
VStem: 178 162<1106.4 1293.61> 684 160<1112.89 1288.4>
Fore
754 1372 m 0,0,1
 682 1372 682 1372 623 1322 c 128,-1,2
 564 1272 564 1272 552 1200 c 256,3,4
 539 1128 539 1128 580 1079 c 128,-1,5
 621 1030 621 1030 694 1030 c 0,6,7
 766 1030 766 1030 824.5 1079.5 c 128,-1,8
 883 1129 883 1129 896 1200 c 0,9,10
 908 1272 908 1272 866.5 1322 c 128,-1,11
 825 1372 825 1372 754 1372 c 0,0,1
782 1534 m 0,12,13
 848 1534 848 1534 904.5 1508.5 c 128,-1,14
 961 1483 961 1483 1001 1436 c 0,15,16
 1040 1388 1040 1388 1054 1328 c 128,-1,17
 1068 1268 1068 1268 1056 1200 c 0,18,19
 1044 1133 1044 1133 1008.5 1072.5 c 128,-1,20
 973 1012 973 1012 921 967 c 0,21,22
 864 919 864 919 797.5 893.5 c 128,-1,23
 731 868 731 868 663 868 c 0,24,25
 522 868 522 868 443.5 963.5 c 128,-1,26
 365 1059 365 1059 390 1200 c 256,27,28
 414 1341 414 1341 527.5 1437.5 c 128,-1,29
 641 1534 641 1534 782 1534 c 0,12,13
EndSplineSet
EndChar
StartChar: plusminus
Encoding: 177 177 116
Width: 1716
Flags: HW
HStem: 0 238<217 1499> 694 236<217 739 977 1499>
VStem: 739 238<340 694 930 1284>
Fore
1203 1284 m 1,0,-1
 1141 930 l 1,1,-1
 1663 930 l 1,2,-1
 1621 694 l 1,3,-1
 1099 694 l 1,4,-1
 1037 340 l 1,5,-1
 799 340 l 1,6,-1
 861 694 l 1,7,-1
 339 694 l 1,8,-1
 381 930 l 1,9,-1
 903 930 l 1,10,-1
 965 1284 l 1,11,-1
 1203 1284 l 1,0,-1
259 238 m 1,12,-1
 1541 238 l 1,13,-1
 1499 0 l 1,14,-1
 217 0 l 1,15,-1
 259 238 l 1,12,-1
EndSplineSet
EndChar
StartChar: uni00B2
Encoding: 178 178 117
Width: 897
Flags: HW
HStem: 668 168<412 782> 1372 148<316.771 479.7>
Fore
559 836 m 1,0,-1
 929 836 l 1,1,-1
 900 668 l 1,2,-1
 227 668 l 1,3,-1
 254 821 l 1,4,-1
 614 1087 l 2,5,6
 684 1140 684 1140 717 1180 c 128,-1,7
 750 1220 750 1220 757 1260 c 0,8,9
 766 1310 766 1310 735 1341 c 128,-1,10
 704 1372 704 1372 645 1372 c 0,11,12
 583 1372 583 1372 508 1349.5 c 128,-1,13
 433 1327 433 1327 341 1280 c 1,14,-1
 373 1466 l 1,15,16
 465 1493 465 1493 549 1506.5 c 128,-1,17
 633 1520 633 1520 708 1520 c 0,18,19
 866 1520 866 1520 944.5 1455.5 c 128,-1,20
 1023 1391 1023 1391 1004 1280 c 0,21,22
 991 1208 991 1208 945 1147.5 c 128,-1,23
 899 1087 899 1087 783 1001 c 2,24,-1
 559 836 l 1,0,-1
EndSplineSet
EndChar
StartChar: uni00B3
Encoding: 179 179 118
Width: 897
Flags: HW
HStem: 653 146<254.605 467.5> 1047 137<248 459.4> 1372 148<265.588 466>
VStem: 520 244<1215.71 1340.5> 543 243<845.3 1005.2>
Fore
789 1120 m 1,0,1
 878 1102 878 1102 919.5 1047 c 128,-1,2
 961 992 961 992 947 911 c 0,3,4
 924 782 924 782 813.5 717.5 c 128,-1,5
 703 653 703 653 502 653 c 0,6,7
 421 653 421 653 349 664.5 c 128,-1,8
 277 676 277 676 213 698 c 1,9,-1
 244 872 l 1,10,11
 303 836 303 836 364 817.5 c 128,-1,12
 425 799 425 799 485 799 c 0,13,14
 580 799 580 799 637.5 831 c 128,-1,15
 695 863 695 863 706 922 c 0,16,17
 717 986 717 986 669 1016.5 c 128,-1,18
 621 1047 621 1047 507 1047 c 2,19,-1
 433 1047 l 1,20,-1
 457 1184 l 1,21,-1
 541 1184 l 2,22,23
 639 1184 639 1184 688 1207.5 c 128,-1,24
 737 1231 737 1231 746 1282 c 0,25,26
 754 1327 754 1327 719 1349.5 c 128,-1,27
 684 1372 684 1372 604 1372 c 0,28,29
 552 1372 552 1372 488 1359 c 128,-1,30
 424 1346 424 1346 350 1319 c 1,31,-1
 379 1485 l 1,32,33
 447 1502 447 1502 524 1511 c 128,-1,34
 601 1520 601 1520 688 1520 c 0,35,36
 855 1520 855 1520 933.5 1464 c 128,-1,37
 1012 1408 1012 1408 994 1303 c 0,38,39
 982 1234 982 1234 928.5 1186 c 128,-1,40
 875 1138 875 1138 789 1120 c 1,0,1
EndSplineSet
EndChar
StartChar: acute
Encoding: 180 180 119
Width: 1024
Flags: HW
HStem: 1262 376<561 647>
VStem: 365 565<1262 1638>
Fore
936 1638 m 1,0,-1
 1219 1638 l 1,1,-1
 784 1262 l 1,2,-1
 588 1262 l 1,3,-1
 936 1638 l 1,0,-1
EndSplineSet
EndChar
StartChar: mu
Encoding: 181 181 120
Width: 1507
Flags: HW
HStem: -29 269<646.8 858.7>
VStem: 174 361<-428 66 353 1120> 940 360<318.2 1120>
Fore
99 -428 m 1,0,-1
 371 1120 l 1,1,-1
 732 1120 l 1,2,-1
 618 469 l 2,3,4
 597 353 597 353 637 296.5 c 128,-1,5
 677 240 677 240 779 240 c 0,6,7
 882 240 882 240 942 296.5 c 128,-1,8
 1002 353 1002 353 1023 469 c 2,9,-1
 1137 1120 l 1,10,-1
 1497 1120 l 1,11,-1
 1365 371 l 2,12,13
 1353 300 1353 300 1364.5 272 c 128,-1,14
 1376 244 1376 244 1415 244 c 0,15,16
 1433 244 1433 244 1450.5 249 c 128,-1,17
 1468 254 1468 254 1489 266 c 1,18,-1
 1445 16 l 1,19,20
 1388 -7 1388 -7 1339.5 -18 c 128,-1,21
 1291 -29 1291 -29 1246 -29 c 0,22,23
 1157 -29 1157 -29 1107 8.5 c 128,-1,24
 1057 46 1057 46 1037 129 c 1,25,26
 976 50 976 50 901.5 10.5 c 128,-1,27
 827 -29 827 -29 738 -29 c 0,28,29
 664 -29 664 -29 616 -5.5 c 128,-1,30
 568 18 568 18 547 66 c 1,31,-1
 460 -428 l 1,32,-1
 99 -428 l 1,0,-1
EndSplineSet
EndChar
StartChar: paragraph
Encoding: 182 182 121
Width: 1303
Flags: HW
HStem: 1346 147<745 934>
VStem: 555 190<-197 649> 934 190<-197 1346>
Fore
867 1493 m 2,0,-1
 1387 1493 l 1,1,-1
 1089 -197 l 1,2,-1
 899 -197 l 1,3,-1
 1171 1346 l 1,4,-1
 982 1346 l 1,5,-1
 710 -197 l 1,6,-1
 520 -197 l 1,7,-1
 669 649 l 1,8,9
 470 674 470 674 378 783.5 c 128,-1,10
 286 893 286 893 318 1071 c 0,11,12
 351 1261 351 1261 501.5 1377 c 128,-1,13
 652 1493 652 1493 867 1493 c 2,0,-1
EndSplineSet
EndChar
StartChar: periodcentered
Encoding: 183 183 122
Width: 778
Flags: HW
HStem: 518 387<209 569>
VStem: 209 360<518 905>
Fore
369 905 m 1,0,-1
 729 905 l 1,1,-1
 660 518 l 1,2,-1
 300 518 l 1,3,-1
 369 905 l 1,0,-1
EndSplineSet
EndChar
StartChar: cedilla
Encoding: 184 184 123
Width: 1024
Flags: HW
HStem: -401 147<342.819 503.4> -20 20G<463 602>
Fore
602 0 m 1,0,1
 649 -62 649 -62 667 -115 c 128,-1,2
 685 -168 685 -168 677 -215 c 0,3,4
 660 -310 660 -310 590.5 -355.5 c 128,-1,5
 521 -401 521 -401 394 -401 c 0,6,7
 346 -401 346 -401 296.5 -394.5 c 128,-1,8
 247 -388 247 -388 197 -375 c 1,9,-1
 223 -223 l 1,10,11
 270 -239 270 -239 310 -246.5 c 128,-1,12
 350 -254 350 -254 383 -254 c 0,13,14
 441 -254 441 -254 477.5 -231 c 128,-1,15
 514 -208 514 -208 521 -168 c 0,16,17
 526 -142 526 -142 511.5 -101 c 128,-1,18
 497 -60 497 -60 463 0 c 1,19,-1
 602 0 l 1,0,1
EndSplineSet
EndChar
StartChar: uni0E01
Encoding: 3585 3585 124
Width: 1470
Flags: HMW
HStem: 0 21G<170 481 998 1309> 984 241<691.5 794.5>
VStem: 170 311<0 554.8> 998 311<0 931.2>
Fore
1452 812 m 2,0,-1
 1309 0 l 1,1,-1
 998 0 l 1,2,-1
 1138 796 l 2,3,4
 1157 900 1157 900 1094 942 c 128,-1,5
 1031 984 1031 984 906 984 c 4,6,7
 825 984 825 984 753 974.5 c 128,-1,8
 681 965 681 965 618 938 c 1,9,-1
 793 847 l 1,10,-1
 759 651 l 1,11,12
 674 621 674 621 624.5 576.5 c 128,-1,13
 575 532 575 532 561 456 c 2,14,-1
 481 0 l 1,15,-1
 170 0 l 1,16,-1
 250 456 l 2,17,18
 265 536 265 536 320 615.5 c 128,-1,19
 375 695 375 695 454 735 c 1,20,-1
 282 812 l 1,21,-1
 331 1088 l 1,22,23
 527 1164 527 1164 675 1194.5 c 128,-1,24
 823 1225 823 1225 944 1225 c 4,25,26
 1253 1225 1253 1225 1371 1121.5 c 128,-1,27
 1489 1018 1489 1018 1452 812 c 2,0,-1
EndSplineSet
EndChar
StartChar: uni0E02
Encoding: 3586 3586 125
Width: 1380
Flags: HW
HStem: 0 222<574 878> 712 136<216.4 300.047> 997 218<221.4 359>
VStem: 39 144<883.421 964.3> 264 310<222 457.388> 878 312<190.8 1205>
Fore
439 997 m 28,0,1
 407 998 407 998 379.5 976.5 c 132,-1,2
 352 955 352 955 345.5 924 c 132,-1,3
 339 893 339 893 357.5 871 c 132,-1,4
 376 849 376 849 408 848 c 4,5,6
 438 847 438 847 465 868.5 c 132,-1,7
 492 890 492 890 498.5 921 c 132,-1,8
 505 952 505 952 487.5 974 c 132,-1,9
 470 996 470 996 439 997 c 28,0,1
633 1009 m 5,10,11
 657 970 657 970 647 913 c 4,0,0
 635 847 635 847 565 779.5 c 132,-1,12
 495 712 495 712 386 712 c 4,13,14
 292 712 292 712 239 775 c 132,-1,15
 186 838 186 838 203 929 c 4,16,17
 225 1055 225 1055 337.5 1133.5 c 132,-1,18
 450 1212 450 1212 573 1215 c 4,19,20
 737 1219 737 1219 839 1129 c 132,-1,21
 941 1039 941 1039 910 864 c 4,22,23
 903 824 903 824 880.5 776.5 c 132,-1,24
 858 729 858 729 780 632 c 132,-1,25
 702 535 702 535 675.5 481 c 132,-1,26
 649 427 649 427 638 361 c 6,27,-1
 613 222 l 1,28,-1
 809 222 l 2,29,30
 917 222 917 222 935 326 c 2,31,-1
 1091 1206 l 1,32,-1
 1403 1206 l 1,33,-1
 1246 320 l 2,34,35
 1190 0 1190 0 768 0 c 2,36,-1
 264 0 l 1,37,-1
 336 406 l 6,38,39
 346 465 346 465 378.5 524.5 c 132,-1,40
 411 584 411 584 506.5 669 c 132,-1,41
 602 754 602 754 637 803.5 c 132,-1,42
 672 853 672 853 679 895 c 4,0,0
 692 970 692 970 633 1009 c 5,10,11
EndSplineSet
EndChar
StartChar: uni0E03
Encoding: 3587 3587 126
Width: 1530
Flags: HW
HStem: 0 222<721 1058.4> 605 136<216.7 299.047> 1186 20G<1026 1336>
VStem: 38 144<776.421 857.3> 411 310<222 457.388> 660 254<835.415 975.527> 1026 310<190.8 1206>
Fore
1392 319 m 2,0,1
 1336 0 1336 0 924 0 c 2,2,-1
 411 0 l 1,3,-1
 483 406 l 6,4,5
 504 526 504 526 572.5 614 c 132,-1,6
 641 702 641 702 722 763 c 132,-1,7
 803 824 803 824 820 910 c 260,8,9
 830 955 830 955 818 978 c 132,-1,10
 806 1001 806 1001 771 1008 c 5,11,-1
 661 970 l 5,12,-1
 515 1051 l 5,13,-1
 466 1032 l 5,14,15
 546 1020 546 1020 589 962 c 132,-1,16
 632 904 632 904 622 812 c 4,17,18
 614 733 614 733 543.5 669 c 132,-1,19
 473 605 473 605 367 605 c 4,20,21
 273 605 273 605 220 668 c 132,-1,22
 167 731 167 731 188 852 c 4,23,24
 218 1022 218 1022 331.5 1114 c 132,-1,25
 445 1206 445 1206 562 1215 c 5,26,-1
 691 1126 l 5,27,-1
 840 1215 l 5,28,29
 967 1199 967 1199 1030 1114.5 c 132,-1,30
 1093 1030 1093 1030 1074 909 c 260,31,32
 1065 854 1065 854 1017.5 766 c 132,-1,33
 970 678 970 678 909.5 606.5 c 132,-1,34
 849 535 849 535 822.5 481 c 132,-1,35
 796 427 796 427 785 361 c 6,36,-1
 760 222 l 1,37,-1
 957 222 l 2,38,39
 1065 222 1065 222 1083 326 c 2,40,-1
 1239 1206 l 1,41,-1
 1549 1206 l 1,42,-1
 1392 319 l 2,0,1
419 890 m 28,43,44
 387 891 387 891 360 869.5 c 132,-1,45
 333 848 333 848 326.5 817 c 132,-1,46
 320 786 320 786 338.5 764 c 132,-1,47
 357 742 357 742 387.5 741 c 132,-1,48
 418 740 418 740 445 761.5 c 132,-1,49
 472 783 472 783 478.5 814 c 132,-1,50
 485 845 485 845 467.5 867.5 c 132,-1,51
 450 890 450 890 419 890 c 28,43,44
EndSplineSet
EndChar
StartChar: uni0E04
Encoding: 3588 3588 127
Width: 1570
Flags: HMW
HStem: 0 21G<177 488> 360 127<738.7 819.3> 636 139<738.4 821.6> 984 239<775 783>
VStem: 156 319<547 876.7> 177 311<0 208> 856 143<521 601.6> 1080 311<1 881>
Fore
920 805 m 4,0,1
 1003 805 1003 805 1060.5 742.5 c 132,-1,2
 1118 680 1118 680 1104 593 c 4,3,4
 1090 509 1090 509 1011 448.5 c 132,-1,5
 932 388 932 388 851 390 c 4,6,7
 743 393 743 393 704 453 c 5,8,9
 629 357 629 357 572.5 258.5 c 132,-1,10
 516 160 516 160 488 0 c 5,11,-1
 177 0 l 1,12,-1
 285 732 l 2,13,14
 321 972 321 972 510.5 1096.5 c 128,-1,15
 700 1221 700 1221 991 1223 c 0,16,17
 1271 1225 1271 1225 1416 1093.5 c 128,-1,18
 1561 962 1561 962 1520 729 c 2,19,-1
 1391 0 l 1,20,-1
 1079 1 l 1,21,-1
 1210 738 l 2,22,23
 1230 848 1230 848 1161.5 916 c 128,-1,24
 1093 984 1093 984 957 984 c 0,25,26
 814 984 814 984 719 914 c 128,-1,27
 624 844 624 844 605 735 c 2,28,-1
 577 577 l 5,29,30
 637 678 637 678 730 741.5 c 132,-1,31
 823 805 823 805 920 805 c 4,0,1
870 517 m 156,-1,33
 901 517 901 517 928 538.5 c 132,-1,34
 955 560 955 560 960 590 c 4,35,36
 966 622 966 622 947.5 644 c 132,-1,37
 929 666 929 666 897 666 c 132,-1,38
 865 666 865 666 839.5 644 c 132,-1,39
 814 622 814 622 808 590 c 4,40,41
 803 559 803 559 821 538 c 132,-1,32
 839 517 839 517 870 517 c 156,-1,33
EndSplineSet
EndChar
StartChar: uni0E05
Encoding: 3589 3589 128
Width: 1570
Flags: HW
HStem: 0 21G<177 488> 353 124<738.7 819.3> 626 137<738.4 821.6>
VStem: 156 319<597 847.7> 856 128<511 591.6> 1080 312<1 848.1>
Fore
870 517 m 152,-1,33
 901 517 901 517 928 538.5 c 128,-1,34
 955 560 955 560 960 590 c 0,35,36
 966 622 966 622 947.5 644 c 128,-1,37
 929 666 929 666 897 666 c 128,-1,38
 865 666 865 666 839.5 644 c 128,-1,39
 814 622 814 622 808 590 c 0,40,41
 803 559 803 559 821 538 c 128,-1,32
 839 517 839 517 870 517 c 152,-1,33
488 0 m 5,10,-1
 177 0 l 1,11,-1
 287 742 l 2,12,13
 321 974 321 974 465 1080 c 0
 609 1185 609 1185 774 1218 c 1,15,-1
 984 1081 l 1,16,-1
 1239 1218 l 1,17,18
 1395 1178 1395 1178 1476.5 1060.5 c 128,-1,19
 1558 943 1558 943 1522 739 c 2,20,-1
 1392 0 l 1,21,-1
 1080 1 l 1,22,-1
 1212 748 l 2,23,24
 1225 825 1225 825 1203.5 877.5 c 128,-1,25
 1182 930 1182 930 1146 952 c 1,26,-1
 990 868 l 1,27,-1
 899 868 l 1,28,-1
 758 961 l 1,29,30
 701 926 701 926 660.5 875 c 128,-1,31
 620 824 620 824 606 745 c 2,32,-1
 577 576 l 1,33,34
 637 678 637 678 730 741.5 c 128,-1,31
 823 805 823 805 920 805 c 0,0,1
 1003 805 1003 805 1060.5 742.5 c 128,-1,2
 1118 680 1118 680 1104 593 c 0,3,4
 1090 509 1090 509 1011 448.5 c 128,-1,5
 932 388 932 388 851 390 c 0,6,7
 743 393 743 393 704 453 c 1,8,9
 629 357 629 357 572.5 258.5 c 128,-1,10
 516 160 516 160 488 0 c 5,10,-1
EndSplineSet
EndChar
StartChar: uni0E06
Encoding: 3590 3590 129
Width: 1600
Flags: HW
HStem: 0 21G<1080 1411> 645 136<236.7 319.047> 1185 20G<1085 1411>
VStem: 58 144<816.421 897.3> 687 229<826.1 949.919> 1085 326<336 1205>
Fore
871 540 m 1
 954 516 954 516 1044 449.5 c 128,-1,31
 1134 383 1134 383 1144 336 c 1,32,-1
 1297 1205 l 1,33,-1
 1623 1205 l 1,34,-1
 1411 0 l 1,35,-1
 1080 0 l 1,36,37
 1052 98 1052 98 980 189 c 128,-1,38
 908 280 908 280 833 315 c 1,39,-1
 824 265 l 2,40,41
 802 142 802 142 701.5 65.5 c 128,-1,42
 601 -11 601 -11 466 -11 c 0,43,44
 323 -11 323 -11 249 69.5 c 128,-1,45
 175 150 175 150 198 284 c 0,46,47
 218 395 218 395 311 487 c 128,-1,48
 404 579 404 579 577 588 c 1
 630 692 630 692 727 759.5 c 128,-1,7
 824 827 824 827 840 910 c 256,8,9
 850 955 850 955 838 978 c 128,-1,10
 826 1001 826 1001 791 1008 c 1,11,-1
 681 970 l 1,12,-1
 535 1051 l 1,13,-1
 486 1032 l 1,14,15
 566 1020 566 1020 609 962 c 128,-1,16
 652 904 652 904 642 812 c 0,17,18
 634 733 634 733 563.5 669 c 128,-1,19
 493 605 493 605 387 605 c 0,20,21
 293 605 293 605 240 668 c 128,-1,22
 187 731 187 731 208 852 c 0,23,24
 238 1022 238 1022 351.5 1114 c 128,-1,25
 465 1206 465 1206 582 1215 c 1,26,-1
 711 1126 l 1,27,-1
 860 1215 l 1,28,29
 983 1199 983 1199 1054.5 1113 c 128,-1,30
 1126 1027 1126 1027 1105 909 c 256,31,32
 1095 851 1095 851 1056 775 c 128,-1,33
 1017 699 1017 699 954.5 644.5 c 128,-1,34
 892 590 892 590 871 540 c 1
439 890 m 24,43,44
 407 891 407 891 380 869.5 c 128,-1,45
 353 848 353 848 346.5 817 c 128,-1,46
 340 786 340 786 358.5 764 c 128,-1,47
 377 742 377 742 407.5 741 c 128,-1,48
 438 740 438 740 465 761.5 c 128,-1,49
 492 783 492 783 498.5 814 c 128,-1,50
 505 845 505 845 487.5 867.5 c 128,-1,51
 470 890 470 890 439 890 c 24,43,44
494 205 m 24,58,59
 529 205 529 205 558.5 229.5 c 128,-1,60
 588 254 588 254 594 288 c 0,61,62
 600 323 600 323 579 348 c 128,-1,63
 558 373 558 373 523 373 c 128,-1,64
 488 373 488 373 458 348 c 128,-1,65
 428 323 428 323 422 288 c 128,-1,66
 416 253 416 253 437 229 c 128,-1,67
 458 205 458 205 494 205 c 24,58,59
EndSplineSet
EndChar
StartChar: uni0E07
Encoding: 3591 3591 130
Width: 1130
Flags: HW
HStem: 0 21G<574 941> 744 146<518.7 599.3> 1195 20G<529.5 691>
VStem: 324 160<922.7 1003.3> 626 315<371 752>
Back
372 960 m 4,0,1
 372 1064 372 1064 446 1138 c 0,2,3
 520 1212 520 1212 624 1212 c 0,4,5
 728 1212 728 1212 802 1138 c 0,6,7
 876 1064 876 1064 876 960 c 0,8,9
 876 856 876 856 802 782 c 0,10,11
 728 708 728 708 624 708 c 0,12,13
 520 708 520 708 446 782 c 0,14,15
 372 856 372 856 372 960 c 4,0,1
548 962 m 4,8,9
 548 993 548 993 569.5 1014.5 c 0,10,11
 591 1036 591 1036 622 1036 c 0,12,13
 653 1036 653 1036 674.5 1014.5 c 0,14,15
 696 993 696 993 696 962 c 0,16,17
 696 931 696 931 674.5 909.5 c 0,18,19
 653 888 653 888 622 888 c 0,20,21
 591 888 591 888 569.5 909.5 c 0,22,23
 548 931 548 931 548 962 c 4,8,9
EndSplineSet
Fore
716 890 m 152,-1,1
 747 890 747 890 774 911.5 c 128,-1,2
 801 933 801 933 806 963 c 0,3,4
 811 994 811 994 793 1016.5 c 128,-1,5
 775 1039 775 1039 743 1039 c 128,-1,6
 711 1039 711 1039 685 1016.5 c 128,-1,7
 659 994 659 994 653.5 963 c 128,-1,8
 648 932 648 932 666.5 911 c 128,-1,0
 685 890 685 890 716 890 c 152,-1,1
941 0 m 25,9,-1
 574 0 l 1,10,11
 460 197 460 197 351.5 337 c 128,-1,12
 243 477 243 477 140 570 c 1,13,-1
 237 761 l 1,14,15
 339 705 339 705 478 590.5 c 128,-1,16
 617 476 617 476 691 371 c 1,17,-1
 759 752 l 1,18,19
 743 744 743 744 690 744 c 0,20,21
 595 744 595 744 536.5 809 c 128,-1,22
 478 874 478 874 494 963 c 0,23,24
 513 1072 513 1072 594 1143.5 c 128,-1,25
 675 1215 675 1215 812 1215 c 0,26,27
 998 1215 998 1215 1056 1097.5 c 128,-1,28
 1114 980 1114 980 1086 822 c 2,29,-1
 941 0 l 25,9,-1
EndSplineSet
EndChar
StartChar: uni0E08
Encoding: 3592 3592 131
Width: 1360
Flags: HMW
HStem: 0 21G<852 1163> 364 144<422.7 503.3> 657 144<422.4 505.6> 994 240<538 615.5>
VStem: 244 144<540.7 621.3> 852 311<518 929.5>
Fore
1302 789 m 10,0,-1
 1163 0 l 1,1,-1
 852 0 l 1,2,3
 853 321 853 321 730 460 c 1,4,5
 709 423 709 423 644.5 393 c 128,-1,6
 580 363 580 363 529 364 c 0,7,8
 450 365 450 365 390 427 c 128,-1,9
 330 489 330 489 345 574 c 0,10,11
 363 674 363 674 443.5 738 c 128,-1,12
 524 802 524 802 623 801 c 0,13,14
 764 801 764 801 843.5 713.5 c 128,-1,15
 923 626 923 626 943 518 c 1,16,-1
 994 806 l 2,17,18
 1011 901 1011 901 939.5 947.5 c 128,-1,19
 868 994 868 994 713 994 c 4,20,21
 575 992 575 992 446.5 951 c 128,-1,22
 318 910 318 910 204 822 c 1,23,-1
 252 1095 l 1,24,25
 393 1172 393 1172 518.5 1203.5 c 128,-1,26
 644 1235 644 1235 756 1234 c 4,27,28
 1025 1234 1025 1234 1186 1138.5 c 128,-1,29
 1347 1043 1347 1043 1302 789 c 10,0,-1
553 508 m 152,-1,31
 584 508 584 508 610.5 529.5 c 128,-1,32
 637 551 637 551 642 581 c 0,33,34
 648 612 648 612 630 634.5 c 128,-1,35
 612 657 612 657 580 657 c 128,-1,36
 548 657 548 657 522 634.5 c 128,-1,37
 496 612 496 612 490.5 581 c 128,-1,38
 485 550 485 550 503.5 529 c 128,-1,30
 522 508 522 508 553 508 c 152,-1,31
EndSplineSet
EndChar
StartChar: uni0E09
Encoding: 3593 3593 132
Width: 1470
Flags: HMW
HStem: 0 21G<369 675> 324 146<261.7 342.3> 994 241<618 675>
VStem: 67 160<502.7 583.3> 932 311<507 908.7>
Fore
385 470 m 152,-1,1
 416 470 416 470 442.5 491.5 c 128,-1,2
 469 513 469 513 475 543 c 0,3,4
 480 574 480 574 461.5 596.5 c 128,-1,5
 443 619 443 619 412 619 c 128,-1,6
 381 619 381 619 354.5 596.5 c 128,-1,7
 328 574 328 574 322.5 543 c 128,-1,8
 317 512 317 512 335.5 491 c 128,-1,0
 354 470 354 470 385 470 c 152,-1,1
751 432 m 2,9,-1
 729 305 l 1,10,11
 852 402 852 402 1015 471 c 1,12,-1
 1074 806 l 2,13,14
 1088 885 1088 885 1032.5 940 c 128,-1,15
 977 995 977 995 793 994 c 4,16,17
 666 993 666 993 532 946 c 128,-1,18
 398 899 398 899 264 822 c 1,19,-1
 312 1095 l 1,20,21
 458 1169 458 1169 603.5 1202 c 128,-1,22
 749 1235 749 1235 893 1235 c 4,23,24
 1172 1235 1172 1235 1297 1125.5 c 128,-1,25
 1422 1016 1422 1016 1382 789 c 2,26,-1
 1332 507 l 1,27,28
 1381 507 1381 507 1439.5 434 c 128,-1,29
 1498 361 1498 361 1478 251 c 0,30,31
 1460 149 1460 149 1381.5 69.5 c 128,-1,32
 1303 -10 1303 -10 1162 -10 c 0,33,34
 947 -10 947 -10 930 185 c 1,35,36
 792 144 792 144 675 0 c 1,37,-1
 369 0 l 1,38,-1
 428 332 l 1,39,40
 412 324 412 324 359 324 c 0,41,42
 264 324 264 324 205.5 389 c 128,-1,43
 147 454 147 454 163 543 c 0,44,45
 182 652 182 652 263 723.5 c 128,-1,46
 344 795 344 795 481 795 c 0,47,48
 635 795 635 795 704 676 c 128,-1,49
 773 557 773 557 751 432 c 2,9,-1
1193 164 m 152,-1,51
 1224 164 1224 164 1251 185.5 c 128,-1,52
 1278 207 1278 207 1283 237 c 0,53,54
 1288 268 1288 268 1269.5 290.5 c 128,-1,55
 1251 313 1251 313 1220 313 c 128,-1,56
 1189 313 1189 313 1162.5 290.5 c 128,-1,57
 1136 268 1136 268 1130.5 237 c 128,-1,58
 1125 206 1125 206 1143.5 185 c 128,-1,50
 1162 164 1162 164 1193 164 c 152,-1,51
EndSplineSet
EndChar
StartChar: uni0E0A
Encoding: 3594 3594 133
Width: 1420
Flags: HW
HStem: 0 222<574 911> 712 136<216.4 300.047> 997 218<221.4 359>
VStem: 39 144<883.421 964.3> 264 310<222 457.388> 336 150<880.7 962.636> 521 237<839.915 993.049> 911 312<190.8 702>
Fore
439 997 m 24,0,1
 407 998 407 998 379.5 976.5 c 128,-1,2
 352 955 352 955 345.5 924 c 128,-1,3
 339 893 339 893 357.5 871 c 128,-1,4
 376 849 376 849 408 848 c 0,5,6
 438 847 438 847 465 868.5 c 128,-1,7
 492 890 492 890 498.5 921 c 128,-1,8
 505 952 505 952 487.5 974 c 128,-1,9
 470 996 470 996 439 997 c 24,0,1
638 361 m 2,10,-1
 613 222 l 1,11,-1
 842 222 l 2,12,13
 950 222 950 222 968 326 c 2,14,-1
 1018 608 l 2,15,16
 1042 744 1042 744 918 761 c 1,17,-1
 968 1042 l 1,18,19
 1053 1059 1053 1059 1123.5 1157 c 128,-1,20
 1194 1255 1194 1255 1210 1373 c 1,21,-1
 1540 1373 l 1,22,23
 1511 1198 1511 1198 1416 1069.5 c 128,-1,24
 1321 941 1321 941 1214 894 c 1,25,26
 1276 864 1276 864 1311.5 783 c 128,-1,27
 1347 702 1347 702 1331 614 c 2,28,-1
 1279 320 l 18,29,30
 1223 0 1223 0 811 0 c 2,31,-1
 264 0 l 1,32,-1
 336 406 l 2,33,34
 346 465 346 465 378.5 524.5 c 128,-1,35
 411 584 411 584 506.5 669 c 128,-1,36
 602 754 602 754 637 803.5 c 128,-1,37
 672 853 672 853 679 895 c 0,38,39
 692 970 692 970 633 1009 c 1,40,41
 657 970 657 970 647 913 c 0,42,43
 635 847 635 847 565 779.5 c 128,-1,44
 495 712 495 712 386 712 c 0,45,46
 292 712 292 712 239 775 c 128,-1,47
 186 838 186 838 203 929 c 0,48,49
 225 1055 225 1055 337.5 1133.5 c 128,-1,50
 450 1212 450 1212 573 1215 c 0,51,52
 737 1219 737 1219 839 1129 c 128,-1,53
 941 1039 941 1039 910 864 c 0,54,55
 903 824 903 824 880.5 776.5 c 128,-1,56
 858 729 858 729 780 632 c 128,-1,57
 702 535 702 535 675.5 481 c 128,-1,58
 649 427 649 427 638 361 c 2,10,-1
EndSplineSet
EndChar
StartChar: uni0E0B
Encoding: 3595 3595 134
Width: 1580
Flags: HW
HStem: 0 222<721 1076> 605 136<216.7 299.047>
VStem: 38 144<776.421 857.3> 411 310<222 457.388> 660 254<835.415 975.527> 1076 312<190.8 702>
Fore
785 361 m 2,0,-1
 760 222 l 1,1,-1
 1007 222 l 2,2,3
 1115 222 1115 222 1133 326 c 2,4,-1
 1183 608 l 2,5,6
 1209 755 1209 755 1083 761 c 5,7,-1
 1134 1052 l 1,8,9
 1226 1069 1226 1069 1292.5 1162 c 128,-1,10
 1359 1255 1359 1255 1375 1373 c 1,11,-1
 1705 1373 l 1,12,13
 1676 1198 1676 1198 1581 1069.5 c 128,-1,14
 1486 941 1486 941 1379 894 c 1,15,16
 1441 864 1441 864 1476.5 783 c 128,-1,17
 1512 702 1512 702 1496 614 c 2,18,-1
 1439 290 l 18,19,20
 1388 0 1388 0 995 0 c 2,21,-1
 411 0 l 1,22,-1
 483 406 l 2,23,24
 504 526 504 526 572.5 614 c 128,-1,25
 641 702 641 702 722 763 c 128,-1,26
 803 824 803 824 820 910 c 256,27,28
 830 955 830 955 818 978 c 128,-1,29
 806 1001 806 1001 771 1008 c 1,30,-1
 661 970 l 1,31,-1
 515 1051 l 1,32,-1
 466 1032 l 1,33,34
 546 1020 546 1020 589 962 c 128,-1,35
 632 904 632 904 622 812 c 0,36,37
 614 733 614 733 543.5 669 c 128,-1,38
 473 605 473 605 367 605 c 0,39,40
 273 605 273 605 220 668 c 128,-1,41
 167 731 167 731 188 852 c 0,42,43
 218 1022 218 1022 331.5 1114 c 128,-1,44
 445 1206 445 1206 562 1215 c 1,45,-1
 691 1126 l 1,46,-1
 840 1215 l 1,47,48
 967 1199 967 1199 1030 1114.5 c 128,-1,49
 1093 1030 1093 1030 1074 909 c 256,50,51
 1065 854 1065 854 1017.5 766 c 128,-1,52
 970 678 970 678 909.5 606.5 c 128,-1,53
 849 535 849 535 822.5 481 c 128,-1,54
 796 427 796 427 785 361 c 2,0,-1
419 890 m 24,55,56
 387 891 387 891 360 869.5 c 128,-1,57
 333 848 333 848 326.5 817 c 128,-1,58
 320 786 320 786 338.5 764 c 128,-1,59
 357 742 357 742 387.5 741 c 128,-1,60
 418 740 418 740 445 761.5 c 128,-1,61
 472 783 472 783 478.5 814 c 128,-1,62
 485 845 485 845 467.5 867.5 c 128,-1,63
 450 890 450 890 419 890 c 24,55,56
EndSplineSet
EndChar
StartChar: uni0E0C
Encoding: 3596 3596 135
Width: 2060
Flags: HMW
HStem: -20 186<402 499.3> 315 148<419.7 500.3> 984 241<594.5 794.5>
VStem: 535 158<200.4 282.3> 962 306<547 909.506> 1547 304<366 1204>
Fore
1065 -20 m 0,0,1
 954 -20 954 -20 870.5 56 c 128,-1,2
 787 132 787 132 811 268 c 0,3,4
 828 365 828 365 895.5 433.5 c 128,-1,5
 963 502 963 502 1055 536 c 1,6,-1
 1102 796 l 2,7,8
 1118 883 1118 883 1074.5 933.5 c 132,-1,10
 1031 984 1031 984 906 984 c 0,11,12
 832 984 832 984 752.5 974.5 c 128,-1,13
 673 965 673 965 601 936 c 1,14,-1
 739 850 l 1,15,-1
 714 708 l 1,16,17
 634 680 634 680 569 634.5 c 128,-1,18
 504 589 504 589 491 516 c 2,19,-1
 482 463 l 1,20,21
 484 464 484 464 567.5 463 c 128,-1,22
 651 462 651 462 701.5 398.5 c 128,-1,23
 752 335 752 335 732 220 c 0,24,25
 715 126 715 126 626 53 c 128,-1,26
 537 -20 537 -20 398 -20 c 0,27,28
 281 -20 281 -20 199.5 70.5 c 128,-1,29
 118 161 118 161 149 337 c 2,30,-1
 173 468 l 2,31,32
 192 579 192 579 252.5 650.5 c 128,-1,33
 313 722 313 722 398 765 c 1,34,-1
 240 854 l 1,35,-1
 279 1074 l 1,36,37
 445 1158 445 1158 594.5 1191.5 c 128,-1,38
 744 1225 744 1225 877 1225 c 0,39,40
 1197 1224 1197 1224 1321 1115 c 132,-1,42
 1445 1006 1445 1006 1411 812 c 2,43,-1
 1365 547 l 1,44,45
 1527 510 1527 510 1612 366 c 1,46,-1
 1759 1204 l 1,47,-1
 2063 1204 l 1,48,-1
 1851 0 l 1,49,-1
 1541 0 l 1,50,51
 1496 182 1496 182 1394 220 c 1,52,53
 1381 131 1381 131 1288.5 55.5 c 128,-1,54
 1196 -20 1196 -20 1065 -20 c 0,0,1
1104 186 m 24,55,56
 1139 186 1139 186 1168 210.5 c 128,-1,57
 1197 235 1197 235 1203 269 c 0,58,59
 1210 304 1210 304 1188.5 329 c 128,-1,60
 1167 354 1167 354 1132 354 c 128,-1,61
 1097 354 1097 354 1067.5 329 c 128,-1,62
 1038 304 1038 304 1031.5 269 c 128,-1,63
 1025 234 1025 234 1046.5 210 c 128,-1,64
 1068 186 1068 186 1104 186 c 24,55,56
516 315 m 152,-1,66
 485 315 485 315 458 293.5 c 128,-1,67
 431 272 431 272 426 242 c 0,68,69
 420 210 420 210 438.5 188 c 128,-1,70
 457 166 457 166 488 166 c 128,-1,71
 519 166 519 166 545.5 188 c 128,-1,72
 572 210 572 210 578 242 c 0,73,74
 583 273 583 273 565 294 c 128,-1,65
 547 315 547 315 516 315 c 152,-1,66
EndSplineSet
EndChar
StartChar: uni0E0D
Encoding: 3597 3597 136
Width: 1970
Flags: HMW
HStem: -461 175<1064.8 1222> -172 119<1061.83 1131.6> 0 221<1186 1467> 983 242<636 639>
VStem: 876 311<221 911.7> 916 121<-262.404 -196.8> 1158 123<-262.2 -195.555> 1467 308<221 1202>
Fore
571 493 m 2,0,1
 653 489 653 489 716 418 c 128,-1,3
 779 347 779 347 760 238 c 0,4,5
 740 123 740 123 639 50.5 c 128,-1,7
 538 -22 538 -22 402 -20 c 0,8,9
 290 -18 290 -18 210 66 c 128,-1,10
 130 150 130 150 160 320 c 2,11,-1
 186 465 l 2,12,13
 204 565 204 565 256.5 630.5 c 128,-1,14
 309 696 309 696 387 735 c 1,15,-1
 214 812 l 1,16,-1
 264 1088 l 1,17,18
 425 1150 425 1150 575 1187.5 c 128,-1,19
 725 1225 725 1225 852 1225 c 0,20,21
 1125 1225 1125 1225 1246 1122.5 c 128,-1,23
 1367 1020 1367 1020 1330 812 c 2,24,-1
 1225 221 l 1,25,-1
 1506 221 l 1,26,-1
 1679 1202 l 1,27,-1
 1987 1202 l 1,28,-1
 1775 0 l 1,29,-1
 876 0 l 1,30,-1
 1016 796 l 2,31,32
 1032 885 1032 885 978.5 929 c 128,-1,33
 925 973 925 973 812 983 c 0,34,35
 741 989 741 989 675.5 978 c 128,-1,36
 610 967 610 967 550 938 c 1,37,-1
 736 847 l 1,38,-1
 702 651 l 1,39,40
 629 629 629 629 572 592 c 128,-1,41
 515 555 515 555 505 496 c 1,42,-1
 571 493 l 2,0,1
493 318 m 152,-1,44
 462 318 462 318 435 296.5 c 128,-1,45
 408 275 408 275 403 245 c 0,46,47
 398 214 398 214 416 191.5 c 128,-1,48
 434 169 434 169 466 169 c 128,-1,49
 498 169 498 169 524 191.5 c 128,-1,50
 550 214 550 214 555.5 245 c 128,-1,51
 561 276 561 276 542.5 297 c 128,-1,43
 524 318 524 318 493 318 c 152,-1,44
1046 -286 m 24,52,53
 1070 -287 1070 -287 1091 -271 c 128,-1,54
 1112 -255 1112 -255 1117 -231 c 128,-1,55
 1122 -207 1122 -207 1107.5 -190 c 128,-1,56
 1093 -173 1093 -173 1070 -172 c 0,57,58
 1045 -171 1045 -171 1023.5 -187.5 c 128,-1,59
 1002 -204 1002 -204 997 -228 c 128,-1,60
 992 -252 992 -252 1007 -268.5 c 128,-1,61
 1022 -285 1022 -285 1046 -286 c 24,52,53
1739 -67 m 1,62,-1
 1736 -306 l 1,63,64
 1630 -377 1630 -377 1461.5 -417 c 128,-1,65
 1293 -457 1293 -457 1141 -461 c 0,66,67
 1013 -464 1013 -464 957.5 -420.5 c 128,-1,68
 902 -377 902 -377 883.5 -336.5 c 128,-1,69
 865 -296 865 -296 876.5 -224 c 128,-1,70
 888 -152 888 -152 954 -101.5 c 128,-1,71
 1020 -51 1020 -51 1095 -53 c 0,72,73
 1166 -55 1166 -55 1209 -110.5 c 128,-1,74
 1252 -166 1252 -166 1240 -233 c 0,75,76
 1234 -268 1234 -268 1228 -274 c 1,77,78
 1321 -265 1321 -265 1481.5 -207.5 c 128,-1,79
 1642 -150 1642 -150 1739 -67 c 1,62,-1
EndSplineSet
Substitution2: "Single Substitution lookup 11" uni0E0D.descless
Substitution2: "Single Substitution lookup 10" uni0E0D.descless
EndChar
StartChar: uni0E0E
Encoding: 3598 3598 137
Width: 1560
Flags: HMW
HStem: -196 195<561 672.721> 982 243<800 804>
VStem: 1040 320<-217 897.781>
AnchorPoint: "BelowBase" 1249.14 -580.5 basechar 0
Fore
375 318 m 152,-1,1
 344 318 344 318 318.5 297 c 128,-1,2
 293 276 293 276 287.5 245 c 128,-1,3
 282 214 282 214 300 191.5 c 128,-1,4
 318 169 318 169 350 169 c 128,-1,5
 382 169 382 169 408 191.5 c 128,-1,6
 434 214 434 214 439 245 c 0,7,8
 444 275 444 275 425 296.5 c 128,-1,0
 406 318 406 318 375 318 c 152,-1,1
1180 795 m 2,9,10
 1194 874 1194 874 1146.5 922.5 c 128,-1,11
 1099 971 1099 971 977 982 c 0,12,13
 909 988 909 988 843.5 978 c 128,-1,14
 778 968 778 968 715 937 c 1,15,-1
 917 836 l 1,16,-1
 884 644 l 1,17,18
 825 625 825 625 785.5 580 c 128,-1,19
 746 535 746 535 736 478 c 2,20,-1
 708 320 l 2,21,22
 677 143 677 143 578.5 66.5 c 128,-1,23
 480 -10 480 -10 338 -10 c 0,24,25
 216 -10 216 -10 152.5 53.5 c 128,-1,26
 89 117 89 117 110 238 c 0,27,28
 130 350 130 350 209 418.5 c 128,-1,29
 288 487 288 487 379 493 c 2,30,-1
 425 496 l 1,31,32
 443 594 443 594 476.5 648 c 128,-1,33
 510 702 510 702 581 734 c 1,34,-1
 379 811 l 1,35,-1
 428 1088 l 1,36,37
 575 1149 575 1149 724 1187 c 128,-1,38
 873 1225 873 1225 1016 1225 c 0,39,40
 1277 1225 1277 1225 1409.5 1128.5 c 128,-1,41
 1542 1032 1542 1032 1503 811 c 2,42,-1
 1269 -520 l 1,43,-1
 940 -520 l 1,44,45
 897 -426 897 -426 825 -358 c 1,46,47
 756 -461 756 -461 659 -497.5 c 128,-1,48
 562 -534 562 -534 473 -532 c 0,49,50
 373 -530 373 -530 303 -462 c 128,-1,51
 233 -394 233 -394 249 -289 c 0,52,53
 273 -144 273 -144 390.5 -72.5 c 128,-1,54
 508 -1 508 -1 628 -1 c 0,55,56
 695 -1 695 -1 758 -29 c 1,57,-1
 786 62 l 1,58,-1
 978 -1 l 1,59,-1
 917 -127 l 1,60,61
 972 -170 972 -170 1003 -217 c 1,62,-1
 1180 795 l 2,9,10
509 -339 m 0,63,64
 552 -340 552 -340 595.5 -308 c 128,-1,65
 639 -276 639 -276 666 -220 c 1,66,67
 622 -195 622 -195 578 -196 c 0,68,69
 538 -197 538 -197 503 -220.5 c 128,-1,70
 468 -244 468 -244 463 -278 c 0,71,72
 459 -307 459 -307 472 -322.5 c 128,-1,73
 485 -338 485 -338 509 -339 c 0,63,64
EndSplineSet
EndChar
StartChar: uni0E0F
Encoding: 3599 3599 138
Width: 1550
Flags: HMW
HStem: -523 177<274 406.532> -241 162<323.6 430.649> 982 243<800 804>
VStem: 1040 319<-254 905.5>
AnchorPoint: "BelowBase" 1248.14 -580.5 basechar 0
Fore
375 318 m 152,-1,1
 344 318 344 318 318.5 297 c 128,-1,2
 293 276 293 276 287.5 245 c 128,-1,3
 282 214 282 214 300 191.5 c 128,-1,4
 318 169 318 169 350 169 c 128,-1,5
 382 169 382 169 408 191.5 c 128,-1,6
 434 214 434 214 439 245 c 0,7,8
 444 275 444 275 425 296.5 c 128,-1,0
 406 318 406 318 375 318 c 152,-1,1
1502 811 m 2,9,-1
 1267 -520 l 1,10,-1
 930 -520 l 1,11,-1
 854 -418 l 1,12,-1
 760 -508 l 1,13,-1
 661 -508 l 1,14,-1
 561 -388 l 1,15,16
 486 -456 486 -456 419 -484 c 128,-1,17
 352 -512 352 -512 266 -523 c 1,18,19
 161 -520 161 -520 88.5 -458.5 c 128,-1,20
 16 -397 16 -397 32 -304 c 0,21,22
 46 -227 46 -227 134 -152.5 c 128,-1,23
 222 -78 222 -78 362 -79 c 0,24,25
 387 -79 387 -79 436 -87 c 128,-1,26
 485 -95 485 -95 521 -119 c 1,27,-1
 618 9 l 1,28,-1
 843 -76 l 1,29,-1
 695 -232 l 1,30,-1
 746 -265 l 1,31,-1
 846 -175 l 1,32,-1
 924 -175 l 1,33,-1
 995 -254 l 1,34,-1
 1180 795 l 2,35,36
 1195 880 1195 880 1142.5 926 c 128,-1,37
 1090 972 1090 972 977 982 c 4,38,39
 904 989 904 989 838.5 977.5 c 128,-1,40
 773 966 773 966 715 937 c 1,41,-1
 917 836 l 1,42,-1
 884 644 l 1,43,44
 825 625 825 625 785.5 580 c 128,-1,45
 746 535 746 535 736 478 c 2,46,-1
 708 320 l 2,47,48
 680 157 680 157 582.5 79.5 c 128,-1,49
 485 2 485 2 358 -10 c 0,50,51
 237 -22 237 -22 164 54.5 c 128,-1,52
 91 131 91 131 110 238 c 0,53,54
 128 341 128 341 200 413.5 c 128,-1,55
 272 486 272 486 379 493 c 2,56,-1
 425 496 l 1,57,58
 443 594 443 594 476.5 648 c 128,-1,59
 510 702 510 702 581 734 c 1,60,-1
 379 811 l 1,61,-1
 428 1088 l 1,62,63
 554 1150 554 1150 700 1187.5 c 128,-1,64
 846 1225 846 1225 1016 1225 c 4,65,66
 1316 1225 1316 1225 1426 1114 c 128,-1,67
 1536 1003 1536 1003 1502 811 c 2,9,-1
291 -346 m 0,68,69
 323 -347 323 -347 355 -331.5 c 128,-1,70
 387 -316 387 -316 416 -265 c 1,71,72
 372 -240 372 -240 331 -241 c 0,73,74
 292 -242 292 -242 268 -258 c 128,-1,75
 244 -274 244 -274 239 -298 c 0,76,77
 231 -344 231 -344 291 -346 c 0,68,69
EndSplineSet
EndChar
StartChar: uni0E10
Encoding: 3600 3600 139
Width: 1250
Flags: HMW
HStem: -617 143<245.1 329.07> -156 111<734.824 797.961> 0 21G<683 979> 205 144<338.7 419.3> 498 144<339.7 420.3> 984 241<686.5 779.5>
VStem: 160 144<381.7 463.6> 600 114<-239.472 -177.19> 817 211<-321 -180>
Back
1125 984 m 25,0,-1
1038 537 m 10,1,-1
 1038 0 l 1,2,-1
 727 0 l 1,3,-1
 509 336 l 1,4,5
 487 300 487 300 439.5 277 c 0,6,7
 392 254 392 254 338 255 c 0,8,9
 243 256 243 256 180 316 c 0,10,11
 117 376 117 376 117 465 c 0,12,13
 117 565 117 565 186.5 629 c 0,14,15
 256 693 256 693 355 692 c 0,16,17
 420 692 420 692 481 662.5 c 0,18,19
 542 633 542 633 589 583.5 c 0,20,21
 636 534 636 534 668 488 c 0,22,23
 700 442 700 442 725 393 c 1,24,-1
 724 590 l 2,25,26
 724 645 724 645 638 690.5 c 0,27,28
 552 736 552 736 432.5 760.5 c 0,29,30
 313 785 313 785 210.5 798.5 c 0,31,32
 108 812 108 812 50 812 c 1,33,-1
 49 1085 l 1,34,35
 355 1225 355 1225 614 1225 c 0,36,37
 680 1225 680 1225 787 1194 c 0,38,39
 894 1163 894 1163 961 1160 c 0,40,41
 1042 1156 1042 1156 1125 1204 c 1,42,-1
 1125 984 l 1,43,44
 1053 926 1053 926 947 930 c 0,45,46
 901 931 901 931 793.5 957.5 c 0,47,48
 686 984 686 984 618 984 c 0,49,50
 556 987 556 987 487.5 976 c 0,51,52
 419 965 419 965 370 941 c 1,53,-1
 407 938.5 l 2,54,55
 444 936 444 936 503 926 c 0,56,57
 562 916 562 916 633 900 c 0,58,59
 704 884 704 884 775 853 c 0,60,61
 846 822 846 822 905 781.5 c 0,62,63
 964 741 964 741 1001 677.5 c 0,64,65
 1038 614 1038 614 1038 537 c 10,1,-1
336 399 m 28,43,-1
 367 399 367 399 389.5 420 c 0,44,45
 412 441 412 441 413 472 c 0,46,47
 413 504 413 504 390.5 526 c 0,48,49
 368 548 368 548 337 548 c 0,50,51
 306 548 306 548 283.5 526 c 0,52,53
 261 504 261 504 261 472 c 0,54,55
 261 441 261 441 283 420 c 0,56,57
 305 399 305 399 336 399 c 28,43,-1
600 -207 m 0,55,-1
 599 -126 599 -126 657 -85 c 0,56,57
 715 -44 715 -44 797 -45 c 0,58,59
 899 -48 899 -48 963.5 -112.5 c 0,60,61
 1028 -177 1028 -177 1028 -321 c 2,62,-1
 1028 -615 l 1,63,-1
 766 -615 l 1,64,-1
 690 -528 l 1,65,-1
 633 -610 l 1,66,-1
 561 -610 l 1,67,-1
 480 -518 l 1,68,69
 430 -621 430 -621 283 -617 c 0,70,71
 205 -615 205 -615 158 -566.5 c 0,72,73
 111 -518 111 -518 109 -449 c 0,74,75
 107 -378 107 -378 162.5 -323.5 c 0,76,77
 218 -269 218 -269 292 -264 c 0,78,79
 334 -262 334 -262 362 -273.5 c 0,80,81
 390 -285 390 -285 422 -308 c 1,82,-1
 452 -231 l 1,83,-1
 578 -338 l 1,84,-1
 540 -408 l 1,85,-1
 598 -458 l 1,86,-1
 656 -385 l 1,87,-1
 715 -385 l 1,88,-1
 771 -456 l 1,89,-1
 771 -360 l 1,90,91
 709 -367 709 -367 655 -324 c 0,92,93
 601 -281 601 -281 600 -207 c 0,55,-1
768 -156 m 24,90,-1
 746 -156 746 -156 730.5 -170.5 c 0,91,92
 715 -185 715 -185 714 -207 c 0,93,94
 713 -228 713 -228 729 -243 c 0,95,96
 745 -258 745 -258 766 -258 c 0,97,98
 787 -258 787 -258 801.5 -242.5 c 0,99,100
 816 -227 816 -227 817 -206 c 0,101,102
 818 -186 818 -186 803 -171 c 0,103,104
 788 -156 788 -156 768 -156 c 24,90,-1
248 -442 m 0,102,-1
 255 -474 255 -474 288 -474 c 0,103,104
 307 -474 307 -474 320 -469 c 0,105,106
 333 -464 333 -464 338.5 -459.5 c 0,107,108
 344 -455 344 -455 352.5 -444 c 0,109,110
 361 -433 361 -433 366 -428 c 1,111,112
 340 -407 340 -407 328 -401 c 0,113,114
 316 -395 316 -395 294 -394 c 1,115,116
 244 -408 244 -408 248 -442 c 0,102,-1
EndSplineSet
Fore
1180 531 m 2,0,-1
 979 0 l 1,1,-1
 683 0 l 1,2,-1
 602 286 l 1,3,4
 574 250 574 250 522.5 227 c 128,-1,5
 471 204 471 204 417 205 c 0,6,7
 322 206 322 206 269.5 266 c 128,-1,8
 217 326 217 326 233 415 c 0,9,10
 251 515 251 515 331.5 579 c 128,-1,11
 412 643 412 643 511 642 c 0,12,13
 620 642 620 642 686 558 c 0,14,15
 755 472 755 472 797 360 c 0,16,-1
 865 530 l 2,17,18
 903 623 903 623 734 666 c 2,19,-1
 277 782 l 1,20,-1
 331 1088 l 1,21,22
 527 1164 527 1164 675 1194.5 c 128,-1,23
 823 1225 823 1225 934 1225 c 4,24,25
 1233 1225 1233 1225 1351 1122 c 1,26,-1
 1121 858 l 1,27,28
 1116 914 1116 914 1063.5 949 c 128,-1,29
 1011 984 1011 984 896 984 c 4,30,31
 825 984 825 984 753 974.5 c 128,-1,32
 681 965 681 965 618 938 c 1,33,-1
 1079 808 l 2,34,35
 1264 756 1264 756 1180 531 c 2,0,-1
441 349 m 152,-1,37
 472 349 472 349 498 370 c 128,-1,38
 524 391 524 391 530 422 c 0,39,40
 536 454 536 454 517.5 476 c 128,-1,41
 499 498 499 498 468 498 c 128,-1,42
 437 498 437 498 410.5 476 c 128,-1,43
 384 454 384 454 378 422 c 0,44,45
 373 391 373 391 391.5 370 c 128,-1,36
 410 349 410 349 441 349 c 152,-1,37
564 -207 m 0,46,47
 577 -126 577 -126 642 -85 c 128,-1,48
 707 -44 707 -44 789 -45 c 0,49,50
 891 -48 891 -48 944 -112.5 c 128,-1,51
 997 -177 997 -177 971 -321 c 2,52,-1
 920 -615 l 1,53,-1
 658 -615 l 1,54,-1
 597 -528 l 1,55,-1
 525 -610 l 1,56,-1
 453 -610 l 1,57,-1
 389 -518 l 1,58,59
 321 -621 321 -621 174 -617 c 0,60,61
 97 -615 97 -615 58.5 -566.5 c 128,-1,62
 20 -518 20 -518 30 -449 c 0,63,64
 40 -378 40 -378 105.5 -323.5 c 128,-1,65
 171 -269 171 -269 245 -264 c 0,66,67
 288 -262 288 -262 314 -273.5 c 128,-1,68
 340 -285 340 -285 368 -308 c 1,69,-1
 411 -231 l 1,70,-1
 518 -338 l 1,71,-1
 468 -408 l 1,72,-1
 517 -458 l 1,73,-1
 588 -385 l 1,74,-1
 647 -385 l 1,75,-1
 691 -456 l 1,76,-1
 708 -360 l 1,77,78
 644 -367 644 -367 597.5 -324 c 128,-1,79
 551 -281 551 -281 564 -207 c 0,46,47
740 -156 m 24,80,81
 718 -156 718 -156 700 -170.5 c 128,-1,82
 682 -185 682 -185 678 -207 c 0,83,84
 673 -228 673 -228 686.5 -243 c 128,-1,85
 700 -258 700 -258 721 -258 c 128,-1,86
 742 -258 742 -258 759 -242.5 c 128,-1,87
 776 -227 776 -227 781 -206 c 0,88,89
 785 -186 785 -186 772.5 -171 c 128,-1,90
 760 -156 760 -156 740 -156 c 24,80,81
170 -442 m 0,91,92
 171 -474 171 -474 204 -474 c 0,93,94
 223 -474 223 -474 237 -469 c 128,-1,95
 251 -464 251 -464 257.5 -459.5 c 128,-1,96
 264 -455 264 -455 274.5 -444 c 128,-1,97
 285 -433 285 -433 291 -428 c 1,98,99
 268 -407 268 -407 257 -401 c 128,-1,100
 246 -395 246 -395 225 -394 c 1,101,102
 172 -408 172 -408 170 -442 c 0,91,92
EndSplineSet
Substitution2: "Single Substitution lookup 11" uni0E10.descless
Substitution2: "Single Substitution lookup 10" uni0E10.descless
EndChar
StartChar: uni0E11
Encoding: 3601 3601 140
Width: 1820
Flags: HW
HStem: 0 21G<432 747 1319 1629> 645 136<237.7 320.047> 1203 20G<1270 1405>
VStem: 59 144<816.421 897.3> 356 144<813.7 895.841> 688 229<798.8 949.919> 1319 310<0 811.227>
Fore
440 890 m 24,43,44
 408 891 408 891 381 869.5 c 128,-1,45
 354 848 354 848 347.5 817 c 128,-1,46
 341 786 341 786 359.5 764 c 128,-1,47
 378 742 378 742 408.5 741 c 128,-1,48
 439 740 439 740 466 761.5 c 128,-1,49
 493 783 493 783 499.5 814 c 128,-1,50
 506 845 506 845 488.5 867.5 c 128,-1,51
 471 890 471 890 440 890 c 24,43,44
504 406 m 2,4,5
 525 526 525 526 593.5 614 c 128,-1,6
 662 702 662 702 743 763 c 128,-1,7
 824 824 824 824 841 910 c 256,8,9
 851 955 851 955 839 978 c 128,-1,10
 827 1001 827 1001 792 1008 c 1,11,-1
 682 970 l 1,12,-1
 536 1051 l 1,13,-1
 487 1032 l 1,14,15
 567 1020 567 1020 610 962 c 128,-1,16
 653 904 653 904 643 812 c 0,17,18
 635 733 635 733 564.5 669 c 128,-1,19
 494 605 494 605 388 605 c 0,20,21
 294 605 294 605 241 668 c 128,-1,22
 188 731 188 731 209 852 c 0,23,24
 239 1022 239 1022 352.5 1114 c 128,-1,25
 466 1206 466 1206 583 1215 c 1,26,-1
 712 1126 l 1,27,-1
 861 1215 l 1,28,29
 988 1199 988 1199 1051 1114.5 c 128,-1,30
 1114 1030 1114 1030 1095 909 c 256,31,32
 1086 854 1086 854 1038.5 766 c 128,-1,33
 991 678 991 678 930.5 606.5 c 128,-1,34
 870 535 870 535 843.5 481 c 128,-1,35
 817 427 817 427 806 361 c 6,0,-1
 802 340 l 1,1,2
 843 370 843 370 976 549 c 128,-1,3
 1109 728 1109 728 1223 1003 c 0,4,5
 1253 1075 1253 1075 1338.5 1149 c 128,-1,6
 1424 1223 1424 1223 1548 1223 c 0,7,8
 1694 1223 1694 1223 1756 1148.5 c 128,-1,9
 1818 1074 1818 1074 1797 951 c 2,10,-1
 1629 0 l 1,11,-1
 1319 0 l 1,12,-1
 1457 784 l 2,13,14
 1462 810 1462 810 1448.5 822.5 c 128,-1,15
 1435 835 1435 835 1414 836 c 1,16,17
 1400 834 1400 834 1380 818 c 128,-1,18
 1360 802 1360 802 1353 784 c 0,19,20
 1281 614 1281 614 1092.5 379 c 128,-1,21
 904 144 904 144 747 0 c 1,22,-1
 432 0 l 1,23,-1
 504 406 l 2,4,5
EndSplineSet
EndChar
StartChar: uni0E12
Encoding: 3602 3602 141
Width: 2230
Flags: HW
HStem: 0 21G<187 495 1726 2037> 702 140<733.2 825.5>
VStem: 548 144<576.8 666.5> 864 151<573.8 662.2> 1165 307<515 856> 1731 306<318 1203>
Fore
1301 170 m 24,0,1
 1336 170 1336 170 1365.5 194.5 c 128,-1,2
 1395 219 1395 219 1401 253 c 0,3,4
 1407 288 1407 288 1386 313 c 128,-1,5
 1365 338 1365 338 1330 338 c 128,-1,6
 1295 338 1295 338 1265 313 c 128,-1,7
 1235 288 1235 288 1228.5 253 c 128,-1,8
 1222 218 1222 218 1243.5 194 c 128,-1,9
 1265 170 1265 170 1301 170 c 24,0,1
871 539 m 152,-1,11
 906 538 906 538 936 561 c 128,-1,12
 966 584 966 584 973 618 c 128,-1,13
 980 652 980 652 959.5 676.5 c 128,-1,14
 939 701 939 701 904 702 c 0,15,16
 868 703 868 703 838.5 679.5 c 128,-1,17
 809 656 809 656 801 621 c 0,18,19
 795 587 795 587 815.5 563.5 c 128,-1,10
 836 540 836 540 871 539 c 152,-1,11
1545.5 1082.5 m 128,-1,21
 1639 947 1639 947 1604 746 c 2,22,-1
 1562 512 l 1,23,24
 1693 482 1693 482 1787 318 c 1,25,-1
 1943 1205 l 1,26,-1
 2249 1203 l 1,27,-1
 2037 0 l 1,28,-1
 1726 0 l 1,29,30
 1674 160 1674 160 1587 209 c 1,31,32
 1575 135 1575 135 1482.5 55.5 c 128,-1,33
 1390 -24 1390 -24 1270 -21 c 0,34,35
 1127 -17 1127 -17 1063 58 c 128,-1,36
 999 133 999 133 1023 257 c 0,37,38
 1042 355 1042 355 1111.5 422.5 c 128,-1,39
 1181 490 1181 490 1255 515 c 1,40,-1
 1294 730 l 2,41,42
 1317 856 1317 856 1292 918.5 c 128,-1,43
 1267 981 1267 981 1228 994 c 1,44,-1
 1055 898 l 1,45,-1
 918 898 l 1,46,-1
 767 993 l 1,47,48
 684 947 684 947 630.5 877 c 128,-1,49
 577 807 577 807 565 689 c 2,50,-1
 531 339 l 1,51,52
 692 373 692 373 750 437 c 1,53,54
 692 466 692 466 669.5 509.5 c 128,-1,55
 647 553 647 553 657 616 c 0,56,57
 673 717 673 717 748 780.5 c 128,-1,58
 823 844 823 844 929 842 c 0,59,60
 1029 839 1029 839 1087 783 c 128,-1,61
 1145 727 1145 727 1125 625 c 0,62,63
 1074 361 1074 361 495 0 c 1,64,-1
 187 0 l 1,65,-1
 260 710 l 2,66,67
 284 944 284 944 456 1078.5 c 128,-1,68
 628 1213 628 1213 788 1223 c 1,69,-1
 1009 1082 l 1,70,-1
 1261 1223 l 1,71,20
 1452 1218 1452 1218 1545.5 1082.5 c 128,-1,21
EndSplineSet
EndChar
StartChar: uni0E13
Encoding: 3603 3603 142
Width: 2060
Flags: HW
HStem: 0 21G<900 1209> 985 240<503.923 823.129>
VStem: 900 310<345 896.1> 1481 310<501 1203>
Fore
1694 178 m 152,-1,1
 1725 178 1725 178 1752 199.5 c 128,-1,2
 1779 221 1779 221 1784.5 251.5 c 128,-1,3
 1790 282 1790 282 1772 304.5 c 128,-1,4
 1754 327 1754 327 1722 327 c 128,-1,5
 1690 327 1690 327 1664 304.5 c 128,-1,6
 1638 282 1638 282 1632.5 251 c 128,-1,7
 1627 220 1627 220 1645 199 c 128,-1,0
 1663 178 1663 178 1694 178 c 152,-1,1
900 0 m 1,8,-1
 1040 796 l 2,9,10
 1054 873 1054 873 1001 929.5 c 128,-1,11
 948 986 948 986 786 985 c 0,12,13
 752 985 752 985 700 979.5 c 128,-1,14
 648 974 648 974 575 938 c 1,15,-1
 761 847 l 1,16,-1
 727 651 l 1,17,18
 566 618 566 618 533 512 c 1,19,-1
 589 509 l 2,20,21
 683 504 683 504 745 434.5 c 128,-1,22
 807 365 807 365 787 252 c 256,23,24
 768 139 768 139 667.5 60.5 c 128,-1,25
 567 -18 567 -18 441 -18 c 256,26,27
 296 -18 296 -18 228 78.5 c 128,-1,28
 160 175 160 175 188 336 c 2,29,-1
 211 465 l 2,30,31
 225 544 225 544 278.5 619.5 c 128,-1,32
 332 695 332 695 412 735 c 1,33,-1
 239 812 l 1,34,-1
 288 1088 l 1,35,36
 444 1148 444 1148 595 1186.5 c 128,-1,37
 746 1225 746 1225 876 1225 c 0,38,39
 1141 1225 1141 1225 1266 1125.5 c 128,-1,40
 1391 1026 1391 1026 1353 812 c 2,41,-1
 1271 345 l 1,42,43
 1414 471 1414 471 1568 495 c 1,44,-1
 1693 1203 l 1,45,-1
 2003 1203 l 1,46,-1
 1880 501 l 1,47,48
 1934 490 1934 490 1976.5 415 c 128,-1,49
 2019 340 2019 340 1995 244 c 256,50,51
 1963 114 1963 114 1876.5 47.5 c 128,-1,52
 1790 -19 1790 -19 1663 -24 c 256,53,54
 1537 -28 1537 -28 1469 36 c 128,-1,55
 1401 100 1401 100 1411 199 c 1,56,57
 1350 172 1350 172 1209 0 c 1,58,-1
 900 0 l 1,8,-1
521 334 m 152,-1,60
 490 334 490 334 463 312.5 c 128,-1,61
 436 291 436 291 431 260.5 c 128,-1,62
 426 230 426 230 444.5 207.5 c 128,-1,63
 463 185 463 185 494 185 c 128,-1,64
 525 185 525 185 551.5 207.5 c 128,-1,65
 578 230 578 230 583 261 c 128,-1,66
 588 292 588 292 570 313 c 128,-1,59
 552 334 552 334 521 334 c 152,-1,60
EndSplineSet
EndChar
StartChar: uni0E14
Encoding: 3604 3604 143
Width: 1600
Flags: HMW
HStem: 0 21G<171 482> 984 240<799 807>
VStem: 150 320<528.298 834.684> 554 144<549.7 631.6> 850 148<551 631.6> 1114 311<1 832.9>
Fore
531 264 m 1,0,1
 642 292 642 292 765 402 c 1,2,3
 718 414 718 414 682.5 463.5 c 128,-1,4
 647 513 647 513 657 586 c 0,5,6
 669 670 669 670 740 735.5 c 128,-1,7
 811 801 811 801 915 810 c 0,8,9
 997 817 997 817 1058 747.5 c 128,-1,10
 1119 678 1119 678 1103 593 c 0,11,12
 1067 402 1067 402 890 261 c 0,13,14
 691 102 691 102 482 0 c 1,15,-1
 171 0 l 1,16,-1
 279 732 l 2,17,18
 316 980 316 980 518 1100 c 128,-1,19
 720 1220 720 1220 1015 1224 c 4,20,21
 1354 1229 1354 1229 1471 1077.5 c 128,-1,22
 1588 926 1588 926 1554 729 c 2,23,-1
 1425 0 l 1,24,-1
 1114 1 l 1,25,-1
 1244 738 l 2,26,27
 1257 811 1257 811 1212.5 898.5 c 128,-1,28
 1168 986 1168 986 981 984 c 4,29,30
 789 982 789 982 700 897 c 128,-1,31
 611 812 611 812 600 735 c 2,32,-1
 531 264 l 1,0,1
864 517 m 152,-1,34
 895 517 895 517 922 538.5 c 128,-1,35
 949 560 949 560 954 590 c 0,36,37
 960 622 960 622 941.5 644 c 128,-1,38
 923 666 923 666 891 666 c 128,-1,39
 859 666 859 666 833.5 644 c 128,-1,40
 808 622 808 622 802 590 c 0,41,42
 797 559 797 559 815 538 c 128,-1,33
 833 517 833 517 864 517 c 152,-1,34
EndSplineSet
EndChar
StartChar: uni0E15
Encoding: 3605 3605 144
Width: 1600
Flags: HW
HStem: 0 21G<171 481>
VStem: 150 319<524.912 889.3> 564 134<519.7 601.6> 850 148<521 601.6> 1114 311<1 940.4>
Fore
481 0 m 1,0,-1
 171 0 l 1,1,-1
 281 742 l 2,2,3
 317 987 317 987 459.5 1088.5 c 128,-1,4
 602 1190 602 1190 780 1213 c 1,5,-1
 992 1028 l 1,6,-1
 1259 1213 l 1,7,8
 1434 1169 1434 1169 1513.5 1061.5 c 128,-1,9
 1593 954 1593 954 1555 739 c 2,10,-1
 1425 0 l 1,11,-1
 1114 1 l 1,12,-1
 1246 748 l 2,13,14
 1272 896 1272 896 1247.5 928 c 128,-1,15
 1223 960 1223 960 1200 965 c 1,16,-1
 1048 854 l 1,17,-1
 859 854 l 1,18,-1
 742 966 l 1,19,20
 694 940 694 940 655.5 898 c 128,-1,21
 617 856 617 856 600 745 c 2,22,-1
 534 302 l 1,23,24
 651 318 651 318 759 392 c 1,25,26
 721 404 721 404 687.5 448 c 128,-1,27
 654 492 654 492 662 556 c 0,28,29
 674 640 674 640 739 700.5 c 128,-1,30
 804 761 804 761 908 770 c 0,31,32
 991 777 991 777 1051.5 712.5 c 128,-1,33
 1112 648 1112 648 1097 563 c 0,34,35
 1045 269 1045 269 481 0 c 1,0,-1
859 487 m 152,-1,37
 890 487 890 487 916.5 508.5 c 128,-1,38
 943 530 943 530 949 560 c 0,39,40
 954 592 954 592 936 614 c 128,-1,41
 918 636 918 636 886 636 c 128,-1,42
 854 636 854 636 828 614 c 128,-1,43
 802 592 802 592 797 560 c 0,44,45
 791 529 791 529 809.5 508 c 128,-1,36
 828 487 828 487 859 487 c 152,-1,37
EndSplineSet
EndChar
StartChar: uni0E16
Encoding: 3606 3606 145
Width: 1430
Flags: HMW
HStem: 1 21G<929 1239> 984 240<680 683>
VStem: 929 310<1 710.973>
Fore
929 1 m 1,0,-1
 1071 797 l 2,1,2
 1084 875 1084 875 1035.5 924 c 128,-1,3
 987 973 987 973 857 984 c 4,4,5
 799 990 799 990 711.5 977 c 128,-1,6
 624 964 624 964 575 939 c 1,7,-1
 761 848 l 1,8,-1
 726 652 l 1,9,10
 642 625 642 625 597 594 c 128,-1,11
 552 563 552 563 532 511 c 1,12,-1
 588 508 l 2,13,14
 694 508 694 508 748.5 427 c 128,-1,15
 803 346 803 346 787 253 c 0,16,17
 765 132 765 132 667.5 60.5 c 128,-1,18
 570 -11 570 -11 428 -11 c 0,19,20
 308 -5 308 -5 232.5 68.5 c 128,-1,21
 157 142 157 142 185 325 c 2,22,-1
 210 466 l 2,23,24
 224 542 224 542 285.5 618 c 128,-1,25
 347 694 347 694 431 736 c 1,26,-1
 238 813 l 1,27,-1
 288 1090 l 1,28,29
 436 1146 436 1146 579 1185.5 c 128,-1,30
 722 1225 722 1225 896 1224 c 4,31,32
 1138 1224 1138 1224 1276 1132.5 c 128,-1,33
 1414 1041 1414 1041 1383 813 c 2,34,-1
 1239 1 l 1,35,-1
 929 1 l 1,0,-1
520 333 m 152,-1,37
 489 333 489 333 462 311.5 c 128,-1,38
 435 290 435 290 430 260 c 0,39,40
 424 228 424 228 442 206 c 128,-1,41
 460 184 460 184 492 184 c 128,-1,42
 524 184 524 184 550 206 c 128,-1,43
 576 228 576 228 582 260 c 0,44,45
 587 291 587 291 569 312 c 128,-1,36
 551 333 551 333 520 333 c 152,-1,37
EndSplineSet
EndChar
StartChar: uni0E17
Encoding: 3607 3607 146
Width: 1690
Flags: HW
HStem: 0 21G<335 675 1202 1512> 745 146<218.7 299.3> 1194 20G<1136 1280>
VStem: 38 146<923.7 1005.6> 335 316<467 759 925 1005.6> 1202 310<0 865>
Fore
1037 993 m 2,0,1
 1088 1081 1088 1081 1186 1147.5 c 128,-1,2
 1284 1214 1284 1214 1416 1214 c 0,3,4
 1572 1214 1572 1214 1636 1139 c 128,-1,5
 1700 1064 1700 1064 1678 941 c 2,6,-1
 1512 0 l 1,7,-1
 1202 0 l 1,8,-1
 1350 839 l 2,9,10
 1355 865 1355 865 1334.5 883 c 128,-1,11
 1314 901 1314 901 1289 901 c 0,12,13
 1266 901 1266 901 1243 881 c 128,-1,14
 1220 861 1220 861 1206 839 c 2,15,-1
 675 0 l 1,16,-1
 335 0 l 1,17,-1
 469 759 l 1,18,19
 436 745 436 745 390 745 c 0,20,21
 312 745 312 745 251 806.5 c 128,-1,22
 190 868 190 868 209 968 c 0,23,24
 227 1065 227 1065 301.5 1139.5 c 128,-1,25
 376 1214 376 1214 512 1215 c 0,26,27
 672 1217 672 1217 752 1121 c 128,-1,28
 832 1025 832 1025 794 813 c 2,29,-1
 733 467 l 1,30,-1
 1037 993 l 2,0,1
416 891 m 152,-1,32
 447 891 447 891 474 912.5 c 128,-1,33
 501 934 501 934 506 964 c 0,34,35
 512 996 512 996 493.5 1018 c 128,-1,36
 475 1040 475 1040 443 1040 c 128,-1,37
 411 1040 411 1040 385.5 1018 c 128,-1,38
 360 996 360 996 354 964 c 0,39,40
 349 933 349 933 367 912 c 128,-1,31
 385 891 385 891 416 891 c 152,-1,32
EndSplineSet
EndChar
StartChar: uni0E18
Encoding: 3608 3608 147
Width: 1330
Flags: HMW
HStem: 0 158<515 800> 984 241<691.5 804.5>
VStem: 204 311<158 622> 802 314<158 650>
Fore
1208 521 m 2,0,-1
 1116 0 l 1,1,-1
 204 0 l 1,2,-1
 314 622 l 1,3,-1
 625 622 l 1,4,-1
 543 158 l 1,5,-1
 828 158 l 1,6,-1
 894 520 l 2,7,8
 912 620 912 620 763 656 c 2,9,-1
 275 772 l 1,10,-1
 329 1078 l 1,11,12
 572 1173 572 1173 697.5 1199 c 128,-1,13
 823 1225 823 1225 944 1225 c 4,14,15
 1260 1225 1260 1225 1389 1112 c 1,16,-1
 1160 848 l 1,17,18
 1149 919 1149 919 1100 951.5 c 128,-1,19
 1051 984 1051 984 906 984 c 4,20,21
 825 984 825 984 753 974.5 c 128,-1,22
 681 965 681 965 618 938 c 1,23,-1
 1108 798 l 2,24,25
 1249 757 1249 757 1208 521 c 2,0,-1
EndSplineSet
EndChar
StartChar: uni0E19
Encoding: 3609 3609 148
Width: 1580
Flags: HW
HStem: -1 21G<337 648> 751 146<218.7 299.3> 1046 175<218.4 309>
VStem: 38 146<929.7 1011.6> 336 315<304 765 931 1011.6> 1046 312<491 1206>
Fore
417 897 m 152,-1,1
 448 897 448 897 475 918.5 c 128,-1,2
 502 940 502 940 507 970 c 0,3,4
 513 1002 513 1002 494.5 1024 c 128,-1,5
 476 1046 476 1046 444 1046 c 128,-1,6
 412 1046 412 1046 386.5 1024 c 128,-1,7
 361 1002 361 1002 355 970 c 0,8,9
 350 939 350 939 368 918 c 128,-1,0
 386 897 386 897 417 897 c 152,-1,1
1260 173 m 152,-1,11
 1291 173 1291 173 1317.5 194.5 c 128,-1,12
 1344 216 1344 216 1349 246 c 0,13,14
 1355 278 1355 278 1337 300 c 128,-1,15
 1319 322 1319 322 1287 322 c 128,-1,16
 1255 322 1255 322 1229 300 c 128,-1,17
 1203 278 1203 278 1197 246 c 0,18,19
 1192 215 1192 215 1210.5 194 c 128,-1,10
 1229 173 1229 173 1260 173 c 152,-1,11
995 199 m 1,20,21
 849 167 849 167 648 -1 c 1,22,-1
 337 -1 l 1,23,-1
 471 765 l 17,24,25
 432 751 432 751 391 751 c 0,26,27
 313 751 313 751 252.5 812 c 128,-1,28
 192 873 192 873 209 969.5 c 128,-1,29
 226 1066 226 1066 301 1142.5 c 128,-1,30
 376 1219 376 1219 524.5 1221 c 128,-1,31
 673 1223 673 1223 753 1128.5 c 128,-1,32
 833 1034 833 1034 795 819 c 2,33,-1
 705 304 l 1,34,35
 874 462 874 462 1132 485 c 1,36,-1
 1259 1206 l 5,37,-1
 1571 1206 l 5,38,-1
 1445 491 l 1,39,40
 1476 486 1476 486 1531 418 c 128,-1,41
 1586 350 1586 350 1562 245 c 0,42,43
 1540 143 1540 143 1453.5 60.5 c 128,-1,44
 1367 -22 1367 -22 1229 -23 c 0,45,46
 1102 -24 1102 -24 1045 46 c 128,-1,47
 988 116 988 116 995 199 c 1,20,21
EndSplineSet
EndChar
StartChar: uni0E1A
Encoding: 3610 3610 149
Width: 1600
Flags: HW
HStem: 0 222<651 1114> 744 146<218.7 299.3> 1039 176<218.4 308>
VStem: 38 146<922.7 1003.3> 336 315<222 755 924 1003.3> 1114 314<222 1205>
Fore
416 890 m 156,-1,1
 447 890 447 890 474 911.5 c 132,-1,2
 501 933 501 933 506 963 c 4,3,4
 511 994 511 994 493 1016.5 c 132,-1,5
 475 1039 475 1039 443 1039 c 132,-1,6
 411 1039 411 1039 385 1016.5 c 132,-1,7
 359 994 359 994 353.5 963 c 132,-1,8
 348 932 348 932 366.5 911 c 132,-1,0
 385 890 385 890 416 890 c 156,-1,1
1428 0 m 5,9,-1
 337 0 l 5,10,-1
 469 755 l 5,11,12
 447 744 447 744 390 744 c 4,13,14
 296 744 296 744 244 807.5 c 132,-1,15
 192 871 192 871 207 961 c 4,16,17
 227 1071 227 1071 306.5 1143 c 132,-1,18
 386 1215 386 1215 522 1215 c 4,19,20
 677 1215 677 1215 755 1123.5 c 132,-1,21
 833 1032 833 1032 796 822 c 6,22,-1
 690 222 l 5,23,-1
 1153 222 l 5,24,-1
 1326 1205 l 5,25,-1
 1640 1205 l 5,26,-1
 1428 0 l 5,9,-1
EndSplineSet
EndChar
StartChar: uni0E1B
Encoding: 3611 3611 150
Width: 1600
Flags: HW
HStem: 0 222<651 1114> 754 146<218.7 299.3>
VStem: 38 146<932.7 1013.3> 336 315<222 768 934 1013.3> 1114 314<222 1641>
AnchorPoint: "AboveBase" 1222.98 1344 basechar 0
Fore
418 900 m 152,-1,1
 449 900 449 900 475.5 921.5 c 128,-1,2
 502 943 502 943 508 973 c 0,3,4
 513 1004 513 1004 495 1026.5 c 128,-1,5
 477 1049 477 1049 445 1049 c 128,-1,6
 413 1049 413 1049 387 1026.5 c 128,-1,7
 361 1004 361 1004 355.5 973 c 128,-1,8
 350 942 350 942 368.5 921 c 128,-1,0
 387 900 387 900 418 900 c 152,-1,1
1428 0 m 1,9,-1
 337 0 l 1,10,-1
 470 768 l 1,11,12
 450 754 450 754 392 754 c 0,13,14
 314 754 314 754 253 815 c 128,-1,15
 192 876 192 876 207 961 c 0,16,17
 227 1072 227 1072 305.5 1147.5 c 128,-1,18
 384 1223 384 1223 514 1224 c 0,19,20
 670 1224 670 1224 751.5 1127 c 128,-1,21
 833 1030 833 1030 796 822 c 2,22,-1
 690 222 l 1,23,-1
 1153 222 l 1,24,-1
 1403 1641 l 5,25,-1
 1717 1641 l 5,26,-1
 1428 0 l 1,9,-1
EndSplineSet
EndChar
StartChar: uni0E1C
Encoding: 3612 3612 151
Width: 1580
Flags: HW
HStem: 0 21G<172 504 1056 1385> 748 146<553.7 634.3> 1186 20G<1074 1385>
VStem: 172 316<352 762> 669 146<927 1007.6> 1074 311<336 1206>
Fore
752 894 m 152,-1,1
 783 894 783 894 808.5 915 c 128,-1,2
 834 936 834 936 839 966 c 0,3,4
 845 998 845 998 826.5 1020 c 128,-1,5
 808 1042 808 1042 777 1042 c 128,-1,6
 746 1042 746 1042 719.5 1020 c 128,-1,7
 693 998 693 998 687 966 c 0,8,9
 682 936 682 936 701.5 915 c 128,-1,0
 721 894 721 894 752 894 c 152,-1,1
1056 0 m 1,10,-1
 853 391 l 1,11,-1
 504 0 l 1,12,-1
 172 0 l 1,13,-1
 319 836 l 2,14,15
 354 1033 354 1033 469 1126.5 c 128,-1,16
 584 1220 584 1220 770 1217 c 0,17,18
 888 1215 888 1215 948.5 1149 c 128,-1,19
 1009 1083 1009 1083 985 964 c 0,20,21
 965 867 965 867 885 808 c 128,-1,22
 805 749 805 749 726 748 c 0,23,24
 642 747 642 747 622 762 c 9,25,-1
 550 352 l 1,26,-1
 807 652 l 1,27,-1
 981 652 l 1,28,-1
 1133 336 l 1,29,-1
 1287 1206 l 5,30,-1
 1598 1206 l 5,31,-1
 1385 0 l 1,32,-1
 1056 0 l 1,10,-1
EndSplineSet
EndChar
StartChar: uni0E1D
Encoding: 3613 3613 152
Width: 1580
Flags: HW
HStem: 0 21G<172 504 1056 1385> 748 146<553.7 634.3>
VStem: 172 316<352 762> 669 146<927 1007.6> 1074 311<336 1638>
AnchorPoint: "AboveBase" 1196.28 1340 basechar 0
Fore
752 894 m 152,-1,1
 783 894 783 894 808.5 915 c 128,-1,2
 834 936 834 936 839 966 c 0,3,4
 845 998 845 998 826.5 1020 c 128,-1,5
 808 1042 808 1042 777 1042 c 128,-1,6
 746 1042 746 1042 719.5 1020 c 128,-1,7
 693 998 693 998 687 966 c 0,8,9
 682 936 682 936 701.5 915 c 128,-1,0
 721 894 721 894 752 894 c 152,-1,1
1056 0 m 1,10,-1
 853 391 l 1,11,-1
 504 0 l 1,12,-1
 172 0 l 1,13,-1
 319 836 l 2,14,15
 354 1033 354 1033 469 1126.5 c 128,-1,16
 584 1220 584 1220 770 1217 c 0,17,18
 888 1215 888 1215 948.5 1149 c 128,-1,19
 1009 1083 1009 1083 985 964 c 0,20,21
 965 867 965 867 885 808 c 128,-1,22
 805 749 805 749 726 748 c 0,23,24
 642 747 642 747 622 762 c 9,25,-1
 550 352 l 1,26,-1
 807 652 l 1,27,-1
 981 652 l 1,28,-1
 1133 336 l 1,29,-1
 1363 1638 l 1,30,-1
 1674 1638 l 1,31,-1
 1385 0 l 5,32,-1
 1056 0 l 1,10,-1
EndSplineSet
EndChar
StartChar: uni0E1E
Encoding: 3614 3614 153
Width: 1700
Flags: HW
HStem: 0 21G<338 653 1222 1531> 753 146<220.7 301.3> 1048 176<220.4 314.5>
VStem: 40 146<931.7 1013.6> 337 316<505 767 933 1013.6> 1221 310<500 1205>
Fore
1042 640 m 25,0,-1
 653 0 l 1,1,-1
 338 0 l 1,2,-1
 472 767 l 1,3,4
 437 753 437 753 394 753 c 0,5,6
 316 753 316 753 255 814 c 128,-1,7
 194 875 194 875 209 960 c 0,8,9
 228 1068 228 1068 304 1145.5 c 128,-1,10
 380 1223 380 1223 530.5 1224 c 128,-1,11
 681 1225 681 1225 758.5 1131 c 128,-1,12
 836 1037 836 1037 798 821 c 2,13,-1
 742 505 l 1,14,-1
 1042 1064 l 5,15,-1
 1201 1064 l 5,16,-1
 1309 500 l 1,17,-1
 1433 1205 l 1,18,-1
 1743 1205 l 1,19,-1
 1531 0 l 1,20,-1
 1222 0 l 1,21,-1
 1042 640 l 25,0,-1
420 899 m 152,-1,23
 451 899 451 899 477.5 920.5 c 128,-1,24
 504 942 504 942 509 972 c 0,25,26
 515 1004 515 1004 497 1026 c 128,-1,27
 479 1048 479 1048 447 1048 c 128,-1,28
 415 1048 415 1048 389 1026 c 128,-1,29
 363 1004 363 1004 357 972 c 0,30,31
 352 941 352 941 370.5 920 c 128,-1,22
 389 899 389 899 420 899 c 152,-1,23
EndSplineSet
EndChar
StartChar: uni0E1F
Encoding: 3615 3615 154
Width: 1700
Flags: HW
HStem: 0 21G<338 653 1222 1531> 753 146<220.7 301.3> 1048 176<220.4 314.5>
VStem: 40 146<931.7 1013.6> 337 316<505 767 933 1013.6> 1221 310<500 1639>
AnchorPoint: "AboveBase" 1331.52 1296 basechar 0
Fore
1042 640 m 25,0,-1
 653 0 l 1,1,-1
 338 0 l 1,2,-1
 472 767 l 1,3,4
 437 753 437 753 394 753 c 0,5,6
 316 753 316 753 255 814 c 128,-1,7
 194 875 194 875 209 960 c 0,8,9
 228 1068 228 1068 304 1145.5 c 128,-1,10
 380 1223 380 1223 530.5 1224 c 128,-1,11
 681 1225 681 1225 758.5 1131 c 128,-1,12
 836 1037 836 1037 798 821 c 2,13,-1
 742 505 l 1,14,-1
 1042 1064 l 5,15,-1
 1201 1064 l 5,16,-1
 1309 500 l 1,17,-1
 1510 1639 l 1,18,-1
 1820 1639 l 1,19,-1
 1531 0 l 1,20,-1
 1222 0 l 1,21,-1
 1042 640 l 25,0,-1
420 899 m 152,-1,23
 451 899 451 899 477.5 920.5 c 128,-1,24
 504 942 504 942 509 972 c 0,25,26
 515 1004 515 1004 497 1026 c 128,-1,27
 479 1048 479 1048 447 1048 c 128,-1,28
 415 1048 415 1048 389 1026 c 128,-1,29
 363 1004 363 1004 357 972 c 0,30,31
 352 941 352 941 370.5 920 c 128,-1,22
 389 899 389 899 420 899 c 152,-1,23
EndSplineSet
EndChar
StartChar: uni0E20
Encoding: 3616 3616 155
Width: 1550
Flags: HMW
HStem: 0 21G<1053 1362> 986 237<765 792>
VStem: 1052 310<0 864.9>
Fore
378 328 m 152,-1,1
 347 328 347 328 321 307 c 128,-1,2
 295 286 295 286 289.5 255 c 128,-1,3
 284 224 284 224 303 201.5 c 128,-1,4
 322 179 322 179 353 179 c 128,-1,5
 384 179 384 179 410 201.5 c 128,-1,6
 436 224 436 224 442 255 c 0,7,8
 447 285 447 285 428 306.5 c 128,-1,0
 409 328 409 328 378 328 c 152,-1,1
428 506 m 1,9,10
 458 677 458 677 572 735 c 1,11,-1
 380 812 l 1,12,-1
 430 1088 l 1,13,14
 551 1161 551 1161 742 1192 c 128,-1,15
 933 1223 933 1223 1022 1223 c 4,16,17
 1321 1223 1321 1223 1428.5 1103.5 c 128,-1,18
 1536 984 1536 984 1505 812 c 2,19,-1
 1362 0 l 1,20,-1
 1053 0 l 1,21,-1
 1192 796 l 2,22,23
 1202 849 1202 849 1143 917 c 128,-1,24
 1084 985 1084 985 966 986 c 4,25,26
 912 986 912 986 839.5 974.5 c 128,-1,27
 767 963 767 963 716 938 c 1,28,-1
 919 837 l 1,29,-1
 883 635 l 1,30,31
 835 621 835 621 790 570.5 c 128,-1,32
 745 520 745 520 737 479 c 2,33,-1
 704 290 l 2,34,35
 678 142 678 142 568 65 c 128,-1,36
 458 -12 458 -12 339 -13 c 0,37,38
 201 -14 201 -14 141 56 c 128,-1,39
 81 126 81 126 100 235 c 0,40,41
 123 362 123 362 205.5 429.5 c 128,-1,42
 288 497 288 497 382 503 c 2,43,-1
 428 506 l 1,9,10
EndSplineSet
EndChar
StartChar: uni0E21
Encoding: 3617 3617 156
Width: 1560
Flags: HW
HStem: 0 21G<1064 1375> 752 146<283.7 364.3> 1205 20G<298 541>
VStem: 103 146<930.7 1011.3> 401 318<579 766 932 1011.3> 1069 306<356 1203>
Fore
482 898 m 152,-1,1
 513 898 513 898 540 919.5 c 128,-1,2
 567 941 567 941 572 971 c 0,3,4
 578 1002 578 1002 559.5 1024.5 c 128,-1,5
 541 1047 541 1047 510 1047 c 128,-1,6
 479 1047 479 1047 452.5 1024.5 c 128,-1,7
 426 1002 426 1002 420.5 971 c 128,-1,8
 415 940 415 940 433 919 c 128,-1,0
 451 898 451 898 482 898 c 152,-1,1
814 541 m 1,9,10
 994 486 994 486 1132 356 c 1,11,-1
 1281 1204 l 1,12,-1
 1587 1203 l 1,13,-1
 1375 0 l 1,14,-1
 1064 0 l 1,15,16
 1006 189 1006 189 836 270 c 0,17,18
 810 282 810 282 771 296 c 1,19,-1
 766 266 l 2,20,21
 746 151 746 151 641 70 c 128,-1,22
 536 -11 536 -11 397.5 -11 c 128,-1,23
 259 -11 259 -11 192.5 69 c 128,-1,24
 126 149 126 149 150 285 c 0,25,26
 174 422 174 422 290 500.5 c 128,-1,27
 406 579 406 579 503 579 c 1,28,-1
 536 766 l 1,29,30
 509 752 509 752 444 752 c 128,-1,31
 379 752 379 752 318 813 c 128,-1,32
 257 874 257 874 274.5 972.5 c 128,-1,33
 292 1071 292 1071 370.5 1148 c 128,-1,34
 449 1225 449 1225 579 1225 c 0,35,36
 935 1225 935 1225 864 820 c 2,37,-1
 814 541 l 1,9,10
435 196 m 24,38,39
 470 196 470 196 499 220.5 c 128,-1,40
 528 245 528 245 534 279 c 0,41,42
 540 314 540 314 519 339 c 128,-1,43
 498 364 498 364 463 364 c 128,-1,44
 428 364 428 364 398 339 c 128,-1,45
 368 314 368 314 362 279 c 128,-1,46
 356 244 356 244 377.5 220 c 128,-1,47
 399 196 399 196 435 196 c 24,38,39
EndSplineSet
EndChar
StartChar: uni0E22
Encoding: 3618 3618 157
Width: 1470
Flags: HW
HStem: 0 222<462 960> 447 200<595.3 724> 1048 175<481 577.3>
VStem: 613 146<931.7 1012.3> 960 315<222 1205>
Fore
696 898 m 152,-1,1
 727 898 727 898 753 919.5 c 128,-1,2
 779 941 779 941 784.5 972 c 128,-1,3
 790 1003 790 1003 771.5 1025.5 c 128,-1,4
 753 1048 753 1048 722 1048 c 128,-1,5
 691 1048 691 1048 664.5 1025.5 c 128,-1,6
 638 1003 638 1003 632.5 972 c 128,-1,7
 627 941 627 941 646 919.5 c 128,-1,0
 665 898 665 898 696 898 c 152,-1,1
501 222 m 1,8,-1
 999 222 l 1,9,-1
 1172 1205 l 1,10,-1
 1487 1205 l 1,11,-1
 1275 0 l 1,12,-1
 153 0 l 1,13,-1
 195 237 l 2,14,15
 219 373 219 373 301.5 451.5 c 128,-1,16
 384 530 384 530 475 540 c 1,17,18
 376 573 376 573 315 653 c 128,-1,19
 254 733 254 733 283 888 c 0,20,21
 303 996 303 996 411 1109.5 c 128,-1,22
 519 1223 519 1223 697 1223 c 0,23,24
 851 1223 851 1223 899 1144.5 c 128,-1,25
 947 1066 947 1066 930 970.5 c 128,-1,26
 913 875 913 875 831 813.5 c 128,-1,27
 749 752 749 752 671 752 c 1,28,29
 630 744 630 744 595 758 c 128,-1,30
 560 772 560 772 543 789 c 1,31,32
 536 726 536 726 637 684.5 c 128,-1,33
 738 643 738 643 838 647 c 1,34,-1
 803 447 l 1,35,36
 659 452 659 452 591.5 402.5 c 128,-1,37
 524 353 524 353 501 222 c 1,8,-1
EndSplineSet
EndChar
StartChar: uni0E23
Encoding: 3619 3619 158
Width: 1190
Flags: HMW
HStem: 984 241<686.5 779.5>
Fore
658 686 m 2,0,-1
 277 782 l 1,1,-1
 331 1088 l 1,2,3
 527 1164 527 1164 675 1194.5 c 128,-1,4
 823 1225 823 1225 934 1225 c 4,5,6
 1233 1225 1233 1225 1351 1122 c 1,7,-1
 1121 858 l 1,8,9
 1116 914 1116 914 1073 942 c 0,10,11
 1011 984 1011 984 896 984 c 4,12,13
 825 984 825 984 753 974.5 c 128,-1,14
 681 965 681 965 618 938 c 1,15,-1
 1003 828 l 2,16,17
 1145 787 1145 787 1103 551 c 2,18,-1
 1064 330 l 2,19,20
 1037 173 1037 173 922 80 c 128,-1,21
 807 -13 807 -13 672 -12 c 128,-1,22
 537 -11 537 -11 471.5 62.5 c 128,-1,23
 406 136 406 136 427 258 c 0,24,25
 444 349 444 349 528.5 424 c 128,-1,26
 613 499 613 499 725 503 c 2,27,-1
 781 505 l 1,28,-1
 789 550 l 2,29,30
 806 649 806 649 658 686 c 2,0,-1
711 328 m 152,-1,32
 680 328 680 328 654 307 c 128,-1,33
 628 286 628 286 622.5 255 c 128,-1,34
 617 224 617 224 635.5 201.5 c 128,-1,35
 654 179 654 179 686 179 c 128,-1,36
 718 179 718 179 743.5 201.5 c 128,-1,37
 769 224 769 224 775 255 c 0,38,39
 780 285 780 285 761 306.5 c 128,-1,31
 742 328 742 328 711 328 c 152,-1,32
EndSplineSet
EndChar
StartChar: uni0E24
Encoding: 3620 3620 159
Width: 1410
Flags: HMW
HStem: -11 21G<341 481> 983 240<664 664>
VStem: 911 309<-410 849.072>
Fore
839 -410 m 1,0,-1
 1050 796 l 2,1,2
 1060 849 1060 849 1007.5 910 c 128,-1,3
 955 971 955 971 837 983 c 4,4,5
 779 989 779 989 692 976 c 128,-1,6
 605 963 605 963 555 938 c 1,7,-1
 741 847 l 1,8,-1
 709 661 l 1,9,10
 626 633 626 633 577.5 599 c 128,-1,11
 529 565 529 565 513 512 c 1,12,-1
 569 509 l 2,13,14
 679 503 679 503 729 428 c 0,15,16
 784 347 784 347 765.5 241 c 128,-1,17
 747 135 747 135 648 62 c 128,-1,18
 549 -11 549 -11 409 -11 c 128,-1,19
 269 -11 269 -11 203.5 75.5 c 128,-1,20
 138 162 138 162 163 306 c 2,21,-1
 189 455 l 2,22,23
 203 532 203 532 266 613 c 128,-1,24
 329 694 329 694 412 735 c 1,25,-1
 219 812 l 1,26,-1
 268 1088 l 1,27,28
 409 1150 409 1150 569 1185.5 c 128,-1,29
 729 1221 729 1221 880 1223 c 4,30,31
 1124 1226 1124 1226 1264.5 1138 c 128,-1,32
 1405 1050 1405 1050 1363 812 c 2,33,-1
 1148 -410 l 1,34,-1
 839 -410 l 1,0,-1
501 334 m 152,-1,36
 470 334 470 334 443 312.5 c 128,-1,37
 416 291 416 291 411 261 c 0,38,39
 406 230 406 230 424.5 207.5 c 128,-1,40
 443 185 443 185 474 185 c 128,-1,41
 505 185 505 185 531.5 207.5 c 128,-1,42
 558 230 558 230 563 261 c 128,-1,43
 568 292 568 292 550 313 c 128,-1,35
 532 334 532 334 501 334 c 152,-1,36
EndSplineSet
EndChar
StartChar: uni0E25
Encoding: 3621 3621 160
Width: 1460
Flags: HMW
HStem: -1 21G<966 1275> 606 254<398.9 688.2> 979 242<632 684>
VStem: 965 310<588 865>
Fore
533 317 m 24,0,1
 501 317 501 317 474.5 296 c 128,-1,2
 448 275 448 275 443 244 c 0,3,4
 437 213 437 213 455.5 190.5 c 128,-1,5
 474 168 474 168 506 168 c 0,6,7
 537 168 537 168 562.5 190 c 128,-1,8
 588 212 588 212 595 244 c 0,9,10
 600 275 600 275 582 296 c 128,-1,11
 564 317 564 317 533 317 c 24,0,1
653 860 m 0,12,13
 796 858 796 858 903 783 c 128,-1,14
 1010 708 1010 708 1069 588 c 1,15,-1
 1090 716 l 2,16,17
 1116 865 1116 865 1038.5 920 c 128,-1,18
 961 975 961 975 805 979 c 0,19,20
 687 981 687 981 560.5 950 c 128,-1,21
 434 919 434 919 339 836 c 1,22,-1
 340 1082 l 1,23,24
 476 1147 476 1147 616.5 1182.5 c 128,-1,25
 757 1218 757 1218 899 1221 c 0,26,27
 1130 1225 1130 1225 1292.5 1121.5 c 128,-1,28
 1455 1018 1455 1018 1411 770 c 2,29,-1
 1275 -1 l 1,30,-1
 966 -1 l 1,31,32
 921 352 921 352 840.5 481 c 128,-1,33
 760 610 760 610 632 606 c 0,34,35
 534 603 534 603 514 485 c 1,36,-1
 579 483 l 2,37,38
 696 479 696 479 751 406 c 0,39,40
 806 331 806 331 787.5 225 c 128,-1,41
 769 119 769 119 674.5 54 c 128,-1,42
 580 -11 580 -11 436.5 -11.5 c 128,-1,43
 293 -12 293 -12 224 81 c 0,44,45
 156 176 156 176 180 319 c 2,46,-1
 210 494 l 2,47,48
 237 650 237 650 369.5 756 c 128,-1,49
 502 862 502 862 653 860 c 0,12,13
EndSplineSet
EndChar
StartChar: uni0E26
Encoding: 3622 3622 161
Width: 1570
Flags: HMW
HStem: 983 240<802 805>
VStem: 1053 309<-410 888.158>
Fore
378 328 m 152,-1,1
 347 328 347 328 321 307 c 128,-1,2
 295 286 295 286 289.5 255 c 128,-1,3
 284 224 284 224 303 201.5 c 128,-1,4
 322 179 322 179 353 179 c 128,-1,5
 384 179 384 179 410 201.5 c 128,-1,6
 436 224 436 224 442 255 c 0,7,8
 447 285 447 285 428 306.5 c 128,-1,0
 409 328 409 328 378 328 c 152,-1,1
981 -410 m 1,9,-1
 1192 796 l 2,10,11
 1209 888 1209 888 1157.5 934.5 c 128,-1,12
 1106 981 1106 981 978 983 c 4,13,14
 897 984 897 984 832 973.5 c 128,-1,15
 767 963 767 963 716 938 c 1,16,-1
 919 837 l 1,17,-1
 883 635 l 1,18,19
 835 621 835 621 790 570.5 c 128,-1,20
 745 520 745 520 737 479 c 2,21,-1
 704 290 l 2,22,23
 677 138 677 138 561 63 c 128,-1,24
 445 -12 445 -12 339 -12 c 0,25,26
 201 -13 201 -13 138 62.5 c 128,-1,27
 75 138 75 138 93 248 c 0,28,29
 108 341 108 341 188 418.5 c 128,-1,30
 268 496 268 496 382 503 c 2,31,-1
 428 506 l 1,32,33
 440 573 440 573 470.5 636 c 128,-1,34
 501 699 501 699 572 735 c 1,35,-1
 380 812 l 1,36,-1
 430 1088 l 1,37,38
 582 1147 582 1147 715 1185 c 128,-1,39
 848 1223 848 1223 1018 1223 c 4,40,41
 1260 1223 1260 1223 1401.5 1125.5 c 128,-1,42
 1543 1028 1543 1028 1505 812 c 2,43,-1
 1290 -410 l 1,44,-1
 981 -410 l 1,9,-1
EndSplineSet
EndChar
StartChar: uni0E27
Encoding: 3623 3623 162
Width: 1270
Flags: HMW
HStem: 981 240<421 564.5>
VStem: 774 311<517 863.9>
Fore
790 334 m 152,-1,1
 759 334 759 334 733 313 c 128,-1,2
 707 292 707 292 702 261 c 128,-1,3
 697 230 697 230 715 207.5 c 128,-1,4
 733 185 733 185 765 185 c 128,-1,5
 797 185 797 185 823 207.5 c 128,-1,6
 849 230 849 230 854 261 c 0,7,8
 859 291 859 291 840 312.5 c 128,-1,0
 821 334 821 334 790 334 c 152,-1,1
900 717 m 2,9,10
 920 830 920 830 870.5 905.5 c 128,-1,11
 821 981 821 981 654 981 c 4,12,13
 511 981 511 981 403.5 946 c 128,-1,14
 296 911 296 911 229 837 c 1,15,-1
 229 1083 l 1,16,17
 342 1153 342 1153 459 1187 c 128,-1,18
 576 1221 576 1221 696 1221 c 4,19,20
 968 1221 968 1221 1116.5 1119.5 c 128,-1,21
 1265 1018 1265 1018 1221 771 c 2,22,-1
 1141 316 l 2,23,24
 1113 158 1113 158 1007 73.5 c 128,-1,25
 901 -11 901 -11 750 -11 c 0,26,27
 625 -9 625 -9 560 67 c 128,-1,28
 495 143 495 143 517 264 c 0,29,30
 533 355 533 355 626 437 c 128,-1,31
 719 519 719 519 826 519 c 2,32,-1
 865 517 l 1,33,-1
 900 717 l 2,9,10
EndSplineSet
EndChar
StartChar: uni0E28
Encoding: 3624 3624 163
Width: 1580
Flags: HMW
HStem: 0 21G<173 484> 343 124<734.7 815.3> 616 144<734.4 817.6> 984 239<781 789>
VStem: 152 320<587 861.1> 852 128<501 581.6> 1076 311<1 799.425>
Fore
573 577 m 1,36,37
 633 678 633 678 726 741.5 c 128,-1,31
 819 805 819 805 916 805 c 0,0,1
 999 805 999 805 1056.5 742.5 c 128,-1,2
 1114 680 1114 680 1100 593 c 0,3,4
 1086 509 1086 509 1007 448.5 c 128,-1,5
 928 388 928 388 847 390 c 0,6,7
 739 393 739 393 700 453 c 1,8,9
 625 357 625 357 568.5 258.5 c 128,-1,10
 512 160 512 160 484 0 c 1,11,-1
 173 0 l 1,11,-1
 281 732 l 2,12,13
 310 926 310 926 493 1073 c 132,-1,14
 676 1220 676 1220 997 1223 c 0,15,16
 1246 1225 1246 1225 1348 1144 c 1,17,-1
 1467 1278 l 1,18,-1
 1661 1129 l 1,19,-1
 1489 985 l 1,20,21
 1541 874 1541 874 1516 729 c 2,22,-1
 1387 0 l 1,23,-1
 1076 1 l 1,24,-1
 1206 738 l 2,25,26
 1210 762 1210 762 1213 786 c 1,27,-1
 1143 744 l 1,28,-1
 1005 828 l 1,29,-1
 1142 930 l 1,30,31
 1108 984 1108 984 963 984 c 0,32,33
 802 983 802 983 711 910.5 c 132,-1,34
 620 838 620 838 602 735 c 2,35,-1
 573 577 l 1,36,37
866 517 m 152,-1,33
 897 517 897 517 924 538.5 c 128,-1,34
 951 560 951 560 956 590 c 0,35,36
 962 622 962 622 943.5 644 c 128,-1,37
 925 666 925 666 893 666 c 128,-1,38
 861 666 861 666 835.5 644 c 128,-1,39
 810 622 810 622 804 590 c 0,40,41
 799 559 799 559 817 538 c 128,-1,32
 835 517 835 517 866 517 c 152,-1,33
EndSplineSet
EndChar
StartChar: uni0E29
Encoding: 3625 3625 164
Width: 1620
Flags: HW
HStem: 0 222<651 1114> 699 119<874.528 942.598> 744 146<218.7 299.3> 1039 176<218.4 308>
VStem: 38 146<922.7 1003.3> 336 315<222 755 924 1003.3> 727 121<608.596 674.2> 1114 314<222 410 935.781 1205>
Fore
416 890 m 152,-1,1
 447 890 447 890 474 911.5 c 128,-1,2
 501 933 501 933 506 963 c 0,3,4
 511 994 511 994 493 1016.5 c 128,-1,5
 475 1039 475 1039 443 1039 c 128,-1,6
 411 1039 411 1039 385 1016.5 c 128,-1,7
 359 994 359 994 353.5 963 c 128,-1,8
 348 932 348 932 366.5 911 c 128,-1,0
 385 890 385 890 416 890 c 152,-1,1
1510 466 m 9,9,-1
 1428 0 l 1,10,-1
 337 0 l 1,11,-1
 469 755 l 1,12,13
 447 744 447 744 390 744 c 0,14,15
 296 744 296 744 244 807.5 c 128,-1,16
 192 871 192 871 207 961 c 0,17,18
 227 1071 227 1071 306.5 1143 c 128,-1,19
 386 1215 386 1215 522 1215 c 0,20,21
 677 1215 677 1215 755 1123.5 c 128,-1,22
 833 1032 833 1032 796 822 c 2,23,-1
 690 222 l 1,24,-1
 1153 222 l 1,25,-1
 1186 410 l 17,26,27
 1010 410 1010 410 916.5 473 c 128,-1,28
 823 536 823 536 841 647 c 0,29,30
 853 714 853 714 918 767.5 c 128,-1,31
 983 821 983 821 1069 818 c 0,32,33
 1134 816 1134 816 1182 769.5 c 128,-1,34
 1230 723 1230 723 1224 624 c 9,35,-1
 1326 1205 l 1,36,-1
 1640 1205 l 1,37,-1
 1548 682 l 17,38,39
 1621 726 1621 726 1683 801 c 1,40,-1
 1678 552 l 1,41,42
 1607 498 1607 498 1510 466 c 9,9,-1
1011 585 m 24,43,44
 1035 584 1035 584 1056 600 c 128,-1,45
 1077 616 1077 616 1082 640 c 128,-1,46
 1087 664 1087 664 1072.5 681 c 128,-1,47
 1058 698 1058 698 1034 699 c 0,48,49
 1009 699 1009 699 988 683 c 128,-1,50
 967 667 967 667 961.5 643 c 128,-1,51
 956 619 956 619 971 602.5 c 128,-1,52
 986 586 986 586 1011 585 c 24,43,44
EndSplineSet
EndChar
StartChar: uni0E2A
Encoding: 3626 3626 165
Width: 1490
Flags: HMW
HStem: 609 254<454.9 722.7> 983 240<592.5 696>
Fore
555 328 m 152,-1,1
 524 328 524 328 497 306.5 c 128,-1,2
 470 285 470 285 465 255 c 0,3,4
 459 224 459 224 477.5 201.5 c 128,-1,5
 496 179 496 179 528 179 c 128,-1,6
 560 179 560 179 585.5 201.5 c 128,-1,7
 611 224 611 224 616.5 255 c 128,-1,8
 622 286 622 286 604 307 c 128,-1,0
 586 328 586 328 555 328 c 152,-1,1
663 863 m 0,9,10
 845 863 845 863 946 777 c 128,-1,11
 1047 691 1047 691 1091 591 c 1,12,-1
 1114 719 l 2,13,14
 1127 795 1127 795 1116 814 c 1,15,-1
 1034 759 l 1,16,-1
 938 842 l 1,17,-1
 1051 924 l 1,18,19
 1022 966 1022 966 961 974.5 c 128,-1,20
 900 983 900 983 838 983 c 4,21,22
 700 987 700 987 581 950 c 128,-1,23
 462 913 462 913 360 839 c 1,24,-1
 360 1085 l 1,25,26
 476 1152 476 1152 606 1187.5 c 128,-1,27
 736 1223 736 1223 881 1223 c 4,28,29
 1002 1224 1002 1224 1107.5 1211 c 128,-1,30
 1213 1198 1213 1198 1272 1158 c 1,31,-1
 1353 1276 l 1,32,-1
 1555 1134 l 1,33,-1
 1411 1012 l 1,34,35
 1458 916 1458 916 1432 773 c 2,36,-1
 1296 -2 l 1,37,-1
 986 -1 l 1,38,39
 955 241 955 241 873 425 c 128,-1,40
 791 609 791 609 662 609 c 0,41,42
 585 609 585 609 537 506 c 1,43,-1
 613 503 l 2,44,45
 719 503 719 503 773.5 422 c 128,-1,46
 828 341 828 341 812 248 c 0,47,48
 790 127 790 127 693.5 58 c 128,-1,49
 597 -11 597 -11 454 -12 c 0,50,51
 316 -12 316 -12 244.5 79.5 c 128,-1,52
 173 171 173 171 201 330 c 2,53,-1
 229 487 l 2,54,55
 257 646 257 646 384.5 754.5 c 128,-1,56
 512 863 512 863 663 863 c 0,9,10
EndSplineSet
EndChar
StartChar: uni0E2B
Encoding: 3627 3627 166
Width: 1620
Flags: HW
HStem: 0 21G<335 675 1136 1446> 756 146<218.7 299.3> 1066 158<1123 1227>
VStem: 38 146<934.7 1015.3> 335 316<540 760 936 1015.3> 898 180<919.3 1022> 1136 310<0 698.9> 1271 175<919.3 1022>
Fore
1252 656 m 2,0,1
 1257 689 1257 689 1230 701 c 1,2,3
 1175 629 1175 629 937.5 390.5 c 128,-1,4
 700 152 700 152 675 0 c 1,5,-1
 335 0 l 1,6,-1
 469 760 l 1,7,-1
 392 756 l 0,8,9
 314 756 314 756 253.5 817 c 128,-1,10
 193 878 193 878 208 963 c 0,11,12
 227 1070 227 1070 308 1148 c 128,-1,13
 389 1226 389 1226 514 1226 c 0,14,15
 667 1226 667 1226 750 1128.5 c 128,-1,16
 833 1031 833 1031 796 824 c 2,17,-1
 746 540 l 1,18,19
 776 569 776 569 923 668.5 c 128,-1,20
 1070 768 1070 768 1093 812 c 1,21,22
 1076 837 1076 837 1068.5 879.5 c 128,-1,23
 1061 922 1061 922 1067 956 c 0,24,25
 1086 1068 1086 1068 1181.5 1146 c 128,-1,26
 1277 1224 1277 1224 1390 1224 c 0,27,28
 1502 1224 1502 1224 1568 1145.5 c 128,-1,29
 1634 1067 1634 1067 1615 956 c 0,30,31
 1597 857 1597 857 1515 783 c 1,32,33
 1569 696 1569 696 1551 596 c 2,34,-1
 1446 0 l 1,35,-1
 1136 0 l 1,36,-1
 1252 656 l 2,0,1
1328 876 m 24,37,38
 1368 876 1368 876 1401.5 903.5 c 128,-1,39
 1435 931 1435 931 1442 970 c 0,40,41
 1449 1010 1449 1010 1426 1038 c 128,-1,42
 1403 1066 1403 1066 1363 1066 c 128,-1,43
 1323 1066 1323 1066 1289.5 1038 c 128,-1,44
 1256 1010 1256 1010 1249 970 c 0,45,46
 1242 931 1242 931 1265.5 903.5 c 128,-1,47
 1289 876 1289 876 1328 876 c 24,37,38
418 902 m 152,-1,49
 449 902 449 902 476 923.5 c 128,-1,50
 503 945 503 945 508 975 c 0,51,52
 513 1006 513 1006 495 1028.5 c 128,-1,53
 477 1051 477 1051 445 1051 c 128,-1,54
 413 1051 413 1051 387 1028.5 c 128,-1,55
 361 1006 361 1006 355.5 975 c 128,-1,56
 350 944 350 944 368.5 923 c 128,-1,48
 387 902 387 902 418 902 c 152,-1,49
EndSplineSet
EndChar
StartChar: uni0E2C
Encoding: 3628 3628 167
Width: 1700
Flags: HW
HStem: 0 21G<338 653 1222 1531> 753 146<220.7 301.3> 1048 176<220.4 314.5>
VStem: 40 146<931.7 1013.6> 337 316<475 767 933 1013.6> 1221 310<470 936>
AnchorPoint: "AboveBase" 1010.45 1341 basechar 0
Fore
1386 936 m 1,0,1
 1244 938 1244 938 1157 1028.5 c 128,-1,2
 1070 1119 1070 1119 1093 1246 c 0,3,4
 1118 1390 1118 1390 1229.5 1481 c 128,-1,5
 1341 1572 1341 1572 1483 1574 c 0,6,7
 1626 1576 1626 1576 1700 1483 c 128,-1,8
 1774 1390 1774 1390 1751 1258 c 1,9,10
 1814 1292 1814 1292 1891 1366 c 1,11,-1
 1873 1107 l 1,12,13
 1791 1052 1791 1052 1710 1016 c 1,14,-1
 1531 0 l 1,15,-1
 1222 0 l 1,16,-1
 1028 560 l 25,17,-1
 653 0 l 1,18,-1
 338 0 l 1,19,-1
 472 767 l 1,20,21
 437 753 437 753 394 753 c 0,22,23
 316 753 316 753 255 814 c 128,-1,24
 194 875 194 875 209 960 c 0,25,26
 228 1068 228 1068 304 1145.5 c 128,-1,27
 380 1223 380 1223 530.5 1224 c 128,-1,28
 681 1225 681 1225 758.5 1131 c 128,-1,29
 836 1037 836 1037 798 821 c 2,30,-1
 737 475 l 1,31,-1
 1012 894 l 5,32,-1
 1171 894 l 5,33,-1
 1304 470 l 1,34,-1
 1386 936 l 1,0,1
420 899 m 152,-1,36
 451 899 451 899 477.5 920.5 c 128,-1,37
 504 942 504 942 509 972 c 0,38,39
 515 1004 515 1004 497 1026 c 128,-1,40
 479 1048 479 1048 447 1048 c 128,-1,41
 415 1048 415 1048 389 1026 c 128,-1,42
 363 1004 363 1004 357 972 c 0,43,44
 352 941 352 941 370.5 920 c 128,-1,35
 389 899 389 899 420 899 c 152,-1,36
1410 1174 m 24,45,46
 1440 1175 1440 1175 1465.5 1196.5 c 128,-1,47
 1491 1218 1491 1218 1495 1248 c 0,48,49
 1500 1279 1500 1279 1482 1301.5 c 128,-1,50
 1464 1324 1464 1324 1434 1323 c 0,51,52
 1402 1322 1402 1322 1375 1299.5 c 128,-1,53
 1348 1277 1348 1277 1343.5 1246 c 128,-1,54
 1339 1215 1339 1215 1358.5 1194 c 128,-1,55
 1378 1173 1378 1173 1410 1174 c 24,45,46
EndSplineSet
EndChar
StartChar: uni0E2D
Encoding: 3629 3629 168
Width: 1420
Flags: HMW
HStem: 0 222<465 933> 353 146<510.4 592.3> 648 178<500 591.3> 986 240<609 609>
VStem: 933 306<222 893.6>
Fore
640 499 m 24,0,1
 671 499 671 499 696.5 520 c 128,-1,2
 722 541 722 541 728 572 c 0,3,4
 733 604 733 604 714.5 626 c 128,-1,5
 696 648 696 648 665 648 c 0,6,7
 633 648 633 648 606.5 625.5 c 128,-1,8
 580 603 580 603 576 572 c 0,9,10
 570 541 570 541 589 520 c 128,-1,11
 608 499 608 499 640 499 c 24,0,1
1060 722 m 2,12,13
 1084 854 1084 854 1005 918 c 128,-1,14
 926 982 926 982 783 986 c 4,15,16
 647 990 647 990 522 955.5 c 128,-1,17
 397 921 397 921 305 842 c 1,18,-1
 306 1088 l 1,19,20
 439 1159 439 1159 569 1192.5 c 128,-1,21
 699 1226 699 1226 825 1226 c 4,22,23
 1097 1226 1097 1226 1259 1129 c 128,-1,24
 1421 1032 1421 1032 1376 776 c 2,25,-1
 1239 -1 l 1,26,-1
 150 0 l 1,27,-1
 224 421 l 2,28,29
 252 576 252 576 357.5 699 c 128,-1,30
 463 822 463 822 646 826 c 0,31,32
 781 829 781 829 846.5 759.5 c 128,-1,33
 912 690 912 690 894 570 c 0,34,35
 880 483 880 483 794.5 418.5 c 128,-1,36
 709 354 709 354 614 353 c 0,37,38
 548 353 548 353 530 367 c 9,39,-1
 504 222 l 1,40,-1
 972 222 l 1,41,-1
 1060 722 l 2,12,13
EndSplineSet
EndChar
StartChar: uni0E2E
Encoding: 3630 3630 169
Width: 1460
Flags: HW
HStem: 0 222<486 959> 257 131<532.7 613.3> 736 179<457.047 650.777> 1019 207<506.143 704.893>
VStem: 648 146<420.7 501.3> 959 305<222 834.001>
Fore
641 388 m 152,-1,1
 672 388 672 388 698 409 c 128,-1,2
 724 430 724 430 729.5 461 c 128,-1,3
 735 492 735 492 717 514.5 c 128,-1,4
 699 537 699 537 667 537 c 128,-1,5
 635 537 635 537 609 514.5 c 128,-1,6
 583 492 583 492 577 461 c 0,7,8
 572 431 572 431 591 409.5 c 128,-1,0
 610 388 610 388 641 388 c 152,-1,1
1095 838 m 1,9,10
 1028 802 1028 802 901.5 769 c 128,-1,11
 775 736 775 736 686 736 c 0,12,13
 512 734 512 734 401 787 c 128,-1,14
 290 840 290 840 305 936 c 0,15,16
 330 1088 330 1088 503.5 1156.5 c 128,-1,17
 677 1225 677 1225 851 1226 c 4,18,19
 1097 1228 1097 1228 1237 1166 c 1,20,21
 1321 1228 1321 1228 1392 1316 c 1,22,-1
 1517 1094 l 1,23,-1
 1385 1007 l 1,24,25
 1425 912 1425 912 1401 776 c 2,26,-1
 1263 0 l 1,27,-1
 170 0 l 1,28,-1
 225 310 l 2,29,30
 260 509 260 509 395 611.5 c 128,-1,31
 530 714 530 714 670 712 c 0,32,33
 757 711 757 711 830 657.5 c 128,-1,34
 903 604 903 604 873 449 c 0,35,36
 857 364 857 364 780 312 c 128,-1,37
 703 260 703 260 618 257 c 0,38,39
 559 255 559 255 534 266 c 1,40,-1
 525 222 l 1,41,-1
 998 222 l 1,42,-1
 1086 722 l 2,43,44
 1098 791 1098 791 1095 838 c 1,9,10
986 984 m 1,45,46
 956 995 956 995 907.5 1005.5 c 128,-1,47
 859 1016 859 1016 817 1019 c 4,48,49
 760 1022 760 1022 681.5 1007.5 c 128,-1,50
 603 993 603 993 597 960 c 0,51,52
 593 931 593 931 632.5 923 c 128,-1,53
 672 915 672 915 719 915 c 0,54,55
 780 915 780 915 847 932.5 c 128,-1,56
 914 950 914 950 986 984 c 1,45,46
EndSplineSet
EndChar
StartChar: uni0E2F
Encoding: 3631 3631 170
Width: 1410
Flags: HW
HStem: 0 21G<877 1188> 488 253<439.694 674.6> 1058 157<272.4 355.6>
VStem: 390 161<941.7 1023.6> 877 311<0 624>
Back
1217 1509.5 m 29,0,-1
 1217 -110.5 l 1
1260 1207.5 m 29,2,-1
 1260 -412.5 l 1
1411 1327.5 m 29,4,-1
 1410 -292.5 l 1
1324 1318.5 m 29,6,-1
 1323 -301.5 l 1
1392 1276.5 m 29,8,-1
 1391 -343.5 l 1
1310 1149.5 m 29,10,-1
 1310 -470.5 l 1
EndSplineSet
Fore
475 909 m 152,-1,1
 506 909 506 909 532 930 c 128,-1,2
 558 951 558 951 563 982 c 0,3,4
 569 1014 569 1014 551 1036 c 128,-1,5
 533 1058 533 1058 501 1058 c 128,-1,6
 469 1058 469 1058 443 1036 c 128,-1,7
 417 1014 417 1014 411 982 c 0,8,9
 406 952 406 952 425 930.5 c 128,-1,0
 444 909 444 909 475 909 c 152,-1,1
191 890 m 2,10,-1
 203 951 l 2,11,12
 226 1071 226 1071 320.5 1142.5 c 128,-1,13
 415 1214 415 1214 524 1215 c 0,14,15
 642 1216 642 1216 691 1144 c 128,-1,16
 740 1072 740 1072 722 968 c 0,17,18
 707 885 707 885 642.5 834.5 c 128,-1,19
 578 784 578 784 507 783 c 1,20,21
 517 772 517 772 557.5 756 c 128,-1,22
 598 740 598 740 626 741 c 0,23,24
 881 752 881 752 1042 1161 c 1,25,-1
 1378 1081 l 1,26,-1
 1188 0 l 1,27,-1
 877 0 l 1,28,-1
 987 624 l 1,29,30
 951 579 951 579 831.5 532 c 128,-1,31
 712 485 712 485 550 488 c 0,32,33
 421 490 421 490 287.5 594.5 c 128,-1,34
 154 699 154 699 191 890 c 2,10,-1
EndSplineSet
EndChar
StartChar: uni0E30
Encoding: 3632 3632 171
Width: 1160
Flags: HW
HStem: 28 186<238.8 396> 328 128<235.959 305.631> 1012 129<241.827 311.598>
VStem: 86 131<237.596 303.2 921.596 987.2>
Fore
434 898 m 24,0,1
 459 897 459 897 480 913 c 128,-1,2
 501 929 501 929 506 953 c 128,-1,3
 511 977 511 977 496.5 994 c 128,-1,4
 482 1011 482 1011 458 1012 c 0,5,6
 434 1013 434 1013 412.5 996.5 c 128,-1,7
 391 980 391 980 385.5 956 c 128,-1,8
 380 932 380 932 395.5 915.5 c 128,-1,9
 411 899 411 899 434 898 c 24,0,1
1123 1147 m 1,10,-1
 1127 888 l 1,11,12
 1017 814 1017 814 844 766 c 128,-1,13
 671 718 671 718 528 714 c 0,14,15
 470 713 470 713 413.5 728.5 c 128,-1,16
 357 744 357 744 325 769 c 0,17,18
 235 839 235 839 256 965 c 0,19,20
 266 1025 266 1025 338 1083.5 c 128,-1,21
 410 1142 410 1142 485 1141 c 0,22,23
 559 1140 559 1140 605.5 1083.5 c 128,-1,24
 652 1027 652 1027 640 961 c 0,25,26
 636 937 636 937 643 941 c 1,27,28
 638 938 638 938 630 930 c 1,29,30
 716 938 716 938 870 1000.5 c 128,-1,31
 1024 1063 1024 1063 1123 1147 c 1,10,-1
308 214 m 152,-1,33
 332 213 332 213 353 229 c 128,-1,34
 374 245 374 245 379.5 269 c 128,-1,35
 385 293 385 293 370.5 310 c 128,-1,36
 356 327 356 327 331 328 c 0,37,38
 307 329 307 329 285.5 312.5 c 128,-1,39
 264 296 264 296 259 272 c 128,-1,40
 254 248 254 248 269 231.5 c 128,-1,32
 284 215 284 215 308 214 c 152,-1,33
996 462 m 1,41,-1
 1000 203 l 1,42,43
 889 129 889 129 716.5 80.5 c 128,-1,44
 544 32 544 32 401 28 c 0,45,46
 275 25 275 25 203 81 c 0,47,48
 108 156 108 156 129 280 c 0,49,50
 139 340 139 340 211.5 398.5 c 128,-1,51
 284 457 284 457 358 456 c 0,52,53
 432 455 432 455 478.5 398.5 c 128,-1,54
 525 342 525 342 514 276 c 0,55,56
 510 254 510 254 516 256 c 1,57,58
 512 254 512 254 515 256 c 1,59,60
 511 254 511 254 502 245 c 1,61,62
 590 253 590 253 744 315.5 c 128,-1,63
 898 378 898 378 996 462 c 1,41,-1
EndSplineSet
EndChar
StartChar: uni0E31
Encoding: 3633 3633 172
Width: 0
Flags: HW
HStem: 1336 175<-508.5 -350> 1625 119<-508.37 -440.369>
VStem: -666 131<1533.81 1600.2>
AnchorPoint: "AboveMark" 113.925 1752 basemark 0
AnchorPoint: "AboveBase" -91.5957 1284 mark 0
Fore
-210 1511 m 24,0,1
 -186 1510 -186 1510 -164.5 1526 c 128,-1,2
 -143 1542 -143 1542 -138 1566 c 128,-1,3
 -133 1590 -133 1590 -147.5 1607 c 128,-1,4
 -162 1624 -162 1624 -186 1625 c 0,5,6
 -210 1625 -210 1625 -231.5 1609 c 128,-1,7
 -253 1593 -253 1593 -258.5 1569 c 128,-1,8
 -264 1545 -264 1545 -249 1528.5 c 128,-1,9
 -234 1512 -234 1512 -210 1511 c 24,0,1
486 1740 m 1,10,-1
 481 1491 l 1,11,12
 374 1420 374 1420 206 1380 c 128,-1,13
 38 1340 38 1340 -114 1336 c 0,14,15
 -240 1331 -240 1331 -308 1384 c 0,16,17
 -408 1460 -408 1460 -389 1573 c 0,18,19
 -379 1632 -379 1632 -306.5 1688.5 c 128,-1,20
 -234 1745 -234 1745 -160.5 1744 c 128,-1,21
 -87 1743 -87 1743 -40.5 1686.5 c 128,-1,22
 6 1630 6 1630 -5 1563 c 0,23,24
 -9 1540 -9 1540 -3 1544 c 1,25,26
 -13 1539 -13 1539 -4 1544 c 1,27,28
 -8 1542 -8 1542 -17 1533 c 1,29,30
 76 1541 76 1541 232 1599 c 128,-1,31
 388 1657 388 1657 486 1740 c 1,10,-1
EndSplineSet
EndChar
StartChar: uni0E32
Encoding: 3634 3634 173
Width: 1220
Flags: HMW
HStem: 0 21G<722 1033> 990 240<448 448>
VStem: 722 311<0 862>
Fore
1033 0 m 1,0,-1
 1171 780 l 2,1,2
 1212 1016 1212 1016 1090.5 1122.5 c 128,-1,3
 969 1229 969 1229 665 1230 c 4,4,5
 499 1231 499 1231 394 1183.5 c 128,-1,6
 289 1136 289 1136 228 1092 c 1,7,-1
 227 846 l 1,8,9
 285 900 285 900 379 945.5 c 128,-1,10
 473 991 473 991 623 990 c 4,11,12
 751 989 751 989 812.5 925.5 c 128,-1,13
 874 862 874 862 850 726 c 2,14,-1
 722 0 l 1,15,-1
 1033 0 l 1,0,-1
EndSplineSet
EndChar
StartChar: uni0E34
Encoding: 3636 3636 175
Width: 0
Flags: HW
HStem: 1422 150<-966.99 -559.919> 1429 149<-1010.5 -642.21> 1683 159<-831.3 -631.479>
AnchorPoint: "AboveMark" 40.6182 1841 basemark 0
AnchorPoint: "AboveBase" 41.1094 1288 mark 0
Fore
-209 1536 m 1,0,1
 -230 1577 -230 1577 -243.5 1597 c 128,-1,2
 -257 1617 -257 1617 -282 1640.5 c 128,-1,3
 -307 1664 -307 1664 -342.5 1673.5 c 128,-1,4
 -378 1683 -378 1683 -429 1683 c 0,5,6
 -510 1683 -510 1683 -557 1659.5 c 128,-1,7
 -604 1636 -604 1636 -652 1578 c 1,8,9
 -542 1580 -542 1580 -428 1572 c 0,10,11
 -319 1565 -319 1565 -209 1536 c 1,0,1
54 1326 m 1,12,13
 -22 1347 -22 1347 -174 1379.5 c 128,-1,14
 -326 1412 -326 1412 -451 1422 c 0,15,16
 -602 1432 -602 1432 -758.5 1429 c 128,-1,17
 -915 1426 -915 1426 -982 1414 c 1,18,-1
 -952 1575 l 1,19,20
 -874 1685 -874 1685 -710.5 1761 c 128,-1,21
 -547 1837 -547 1837 -398 1842 c 0,22,23
 -309 1843 -309 1843 -225 1815.5 c 128,-1,24
 -141 1788 -141 1788 -75.5 1741 c 128,-1,25
 -10 1694 -10 1694 39.5 1639.5 c 128,-1,26
 89 1585 89 1585 125 1524 c 1,27,-1
 54 1326 l 1,12,13
EndSplineSet
EndChar
StartChar: uni0E35
Encoding: 3637 3637 176
Width: 0
Flags: HW
HStem: 1422 150<-966.99 -559.919> 1429 149<-1010.5 -642.21> 1683 159<-831.3 -631.479>
VStem: -402 197<1752.52 1903>
AnchorPoint: "AboveBase" 36.2275 1283 mark 0
AnchorPoint: "AboveMark" 57.9531 1962 basemark 0
Fore
-209 1536 m 1,0,1
 -230 1577 -230 1577 -243.5 1597 c 128,-1,2
 -257 1617 -257 1617 -282 1640.5 c 128,-1,3
 -307 1664 -307 1664 -342.5 1673.5 c 128,-1,4
 -378 1683 -378 1683 -429 1683 c 0,5,6
 -510 1683 -510 1683 -557 1659.5 c 128,-1,7
 -604 1636 -604 1636 -652 1578 c 1,8,9
 -542 1580 -542 1580 -428 1572 c 0,10,11
 -319 1565 -319 1565 -209 1536 c 1,0,1
76 1596 m 1,12,13
 103 1561 103 1561 125 1524 c 1,14,-1
 54 1326 l 1,15,16
 -22 1347 -22 1347 -174 1379.5 c 128,-1,17
 -326 1412 -326 1412 -451 1422 c 0,18,19
 -602 1432 -602 1432 -758.5 1429 c 128,-1,20
 -915 1426 -915 1426 -982 1414 c 1,21,-1
 -952 1575 l 1,22,23
 -874 1685 -874 1685 -710.5 1761 c 128,-1,24
 -547 1837 -547 1837 -398 1842 c 0,25,26
 -236 1844 -236 1844 -93 1753 c 1,27,-1
 -66 1903 l 1,28,-1
 131 1903 l 1,29,-1
 76 1596 l 1,12,13
EndSplineSet
EndChar
StartChar: uni0E36
Encoding: 3638 3638 177
Width: 0
Flags: HW
HStem: 1422 150<-966.99 -559.919> 1429 149<-1010.5 -642.21> 1683 159<-831.3 -631.479> 1840 123<-341.748 -264.159>
VStem: -232 122<1733.1 1808.29>
AnchorPoint: "AboveBase" 39.4043 1284 mark 0
AnchorPoint: "AboveMark" 96.418 2001.5 basemark 0
Fore
-209 1536 m 1,0,1
 -230 1577 -230 1577 -243.5 1597 c 128,-1,2
 -257 1617 -257 1617 -282 1640.5 c 128,-1,3
 -307 1664 -307 1664 -342.5 1673.5 c 128,-1,4
 -378 1683 -378 1683 -429 1683 c 0,5,6
 -510 1683 -510 1683 -557 1659.5 c 128,-1,7
 -604 1636 -604 1636 -652 1578 c 1,8,9
 -542 1580 -542 1580 -428 1572 c 0,10,11
 -319 1565 -319 1565 -209 1536 c 1,0,1
-170 1794 m 1,12,13
 -159 1858 -159 1858 -94.5 1911 c 128,-1,14
 -30 1964 -30 1964 43 1963 c 0,15,16
 124 1963 124 1963 170.5 1907.5 c 128,-1,17
 217 1852 217 1852 203 1774 c 0,18,19
 194 1719 194 1719 155.5 1672.5 c 128,-1,20
 117 1626 117 1626 65 1604 c 1,21,22
 112 1546 112 1546 125 1524 c 1,23,-1
 54 1326 l 1,24,25
 -22 1347 -22 1347 -174 1379.5 c 128,-1,26
 -326 1412 -326 1412 -451 1422 c 0,27,28
 -602 1432 -602 1432 -758.5 1429 c 128,-1,29
 -915 1426 -915 1426 -982 1414 c 1,30,-1
 -952 1575 l 1,31,32
 -874 1685 -874 1685 -710.5 1761 c 128,-1,33
 -547 1837 -547 1837 -398 1842 c 0,34,35
 -279 1843 -279 1843 -170 1794 c 1,12,13
22 1840 m 24,36,37
 -8 1840 -8 1840 -33 1820 c 128,-1,38
 -58 1800 -58 1800 -63 1770 c 0,39,40
 -68 1741 -68 1741 -50 1721.5 c 128,-1,41
 -32 1702 -32 1702 -2 1702 c 0,42,43
 27 1702 27 1702 51.5 1722 c 128,-1,44
 76 1742 76 1742 81 1770 c 0,45,46
 86 1800 86 1800 68.5 1820 c 128,-1,47
 51 1840 51 1840 22 1840 c 24,36,37
EndSplineSet
EndChar
StartChar: uni0E37
Encoding: 3639 3639 178
Width: 0
Flags: HW
HStem: 1422 150<-966.99 -559.919> 1429 149<-1010.5 -642.21> 1683 159<-831.3 -631.479>
VStem: -388 184<1744.23 1927>
AnchorPoint: "AboveBase" 41.4619 1290 mark 0
AnchorPoint: "AboveMark" 55.127 1980 basemark 0
Fore
-209 1536 m 1,0,1
 -230 1577 -230 1577 -243.5 1597 c 128,-1,2
 -257 1617 -257 1617 -282 1640.5 c 128,-1,3
 -307 1664 -307 1664 -342.5 1673.5 c 128,-1,4
 -378 1683 -378 1683 -429 1683 c 0,5,6
 -510 1683 -510 1683 -557 1659.5 c 128,-1,7
 -604 1636 -604 1636 -652 1578 c 1,8,9
 -542 1580 -542 1580 -428 1572 c 0,10,11
 -319 1565 -319 1565 -209 1536 c 1,0,1
76 1595 m 1,12,13
 103 1561 103 1561 125 1524 c 1,14,-1
 54 1326 l 1,15,16
 -22 1347 -22 1347 -174 1379.5 c 128,-1,17
 -326 1412 -326 1412 -451 1422 c 0,18,19
 -602 1432 -602 1432 -758.5 1429 c 128,-1,20
 -915 1426 -915 1426 -982 1414 c 1,21,-1
 -952 1575 l 1,22,23
 -874 1685 -874 1685 -710.5 1761 c 128,-1,24
 -547 1837 -547 1837 -398 1842 c 0,25,26
 -362 1842 -362 1842 -327 1838 c 1,27,-1
 -310 1928 l 1,28,-1
 -115 1928 l 1,29,-1
 -141 1780 l 1,30,31
 -110 1764 -110 1764 -81 1744 c 1,32,-1
 -47 1927 l 1,33,-1
 136 1927 l 1,34,-1
 76 1595 l 1,12,13
EndSplineSet
EndChar
StartChar: uni0E38
Encoding: 3640 3640 179
Width: 0
Flags: HW
HStem: -412 102<-467.328 -400.043> -204 126<-467.328 -399.18>
VStem: -589 99<-288.069 -225.246> -378 248<-378 -228.4>
AnchorPoint: "BelowBase" -148.576 -85.5 mark 0
Fore
-476 -512 m 1,0,-1
 -457 -405 l 1,1,2
 -474 -412 -474 -412 -508 -412 c 0,3,4
 -564 -411 -564 -411 -604.5 -363 c 128,-1,5
 -645 -315 -645 -315 -634 -254 c 0,6,7
 -621 -184 -621 -184 -564 -131 c 128,-1,8
 -507 -78 -507 -78 -420 -78 c 0,9,10
 -307 -78 -307 -78 -242.5 -165 c 128,-1,11
 -178 -252 -178 -252 -197 -378 c 2,12,-1
 -218 -512 l 1,13,-1
 -476 -512 l 1,0,-1
-469 -204 m 152,-1,15
 -492 -204 -492 -204 -511.5 -219 c 128,-1,16
 -531 -234 -531 -234 -535 -256 c 0,17,18
 -539 -279 -539 -279 -525 -294.5 c 128,-1,19
 -511 -310 -511 -310 -488 -310 c 0,20,21
 -466 -310 -466 -310 -446.5 -294.5 c 128,-1,22
 -427 -279 -427 -279 -423 -257 c 128,-1,23
 -419 -235 -419 -235 -432.5 -219.5 c 128,-1,14
 -446 -204 -446 -204 -469 -204 c 152,-1,15
EndSplineSet
EndChar
StartChar: uni0E39
Encoding: 3641 3641 180
Width: 0
Flags: HW
HStem: -560 152<-523.595 -442> -404 102<-861.328 -794.043> -196 126<-861.328 -793.18>
VStem: -988 104<-280.069 -217.246> -772 248<-370 -220.4> -438 258<-409 -76>
AnchorPoint: "BelowBase" -148.576 -85.5 mark 0
Fore
-451 -76 m 1,0,-1
 -193 -76 l 1,1,-1
 -279 -560 l 1,2,-1
 -879 -560 l 1,3,-1
 -850 -397 l 1,4,5
 -866 -404 -866 -404 -900 -404 c 0,6,7
 -957 -403 -957 -403 -999.5 -355 c 128,-1,8
 -1042 -307 -1042 -307 -1031 -246 c 0,9,10
 -1019 -176 -1019 -176 -959.5 -123 c 128,-1,11
 -900 -70 -900 -70 -812 -70 c 0,12,13
 -699 -70 -699 -70 -635 -157 c 128,-1,14
 -571 -244 -571 -244 -589 -370 c 2,15,-1
 -596 -408 l 1,16,-1
 -514 -409 l 1,17,-1
 -451 -76 l 1,0,-1
-862 -196 m 152,-1,19
 -885 -196 -885 -196 -904.5 -211 c 128,-1,20
 -924 -226 -924 -226 -928 -248 c 0,21,22
 -932 -271 -932 -271 -917.5 -286.5 c 128,-1,23
 -903 -302 -903 -302 -880 -302 c 0,24,25
 -858 -302 -858 -302 -839 -286.5 c 128,-1,26
 -820 -271 -820 -271 -816 -249 c 128,-1,27
 -812 -227 -812 -227 -825.5 -211.5 c 128,-1,18
 -839 -196 -839 -196 -862 -196 c 152,-1,19
EndSplineSet
EndChar
StartChar: uni0E3A
Encoding: 3642 3642 181
Width: 0
Flags: HW
AnchorPoint: "BelowBase" -177.043 -108 mark 0
Fore
-294 -103 m 152,-1,1
 -226 -103 -226 -103 -186 -151.5 c 128,-1,2
 -146 -200 -146 -200 -158 -268 c 128,-1,3
 -170 -336 -170 -336 -227 -384.5 c 128,-1,4
 -284 -433 -284 -433 -352 -433 c 128,-1,5
 -420 -433 -420 -433 -459 -384.5 c 128,-1,6
 -498 -336 -498 -336 -486 -268 c 128,-1,7
 -474 -200 -474 -200 -418 -151.5 c 128,-1,0
 -362 -103 -362 -103 -294 -103 c 152,-1,1
EndSplineSet
EndChar
StartChar: uni0E3F
Encoding: 3647 3647 182
Width: 1561
Flags: HW
HStem: -20 20G<188 666> 1211 20G<573 666.688>
VStem: 188 385<262 653 915 1231> 666 195<-136 0 265.898 649.083 922.132 1222.41 1493 1593>
Fore
861 0 m 1,0,-1
 837 -136 l 1,1,-1
 642 -136 l 1,2,-1
 666 0 l 1,3,-1
 188 0 l 1,4,-1
 451 1493 l 1,5,-1
 929 1493 l 1,6,-1
 947 1593 l 1,7,-1
 1141 1593 l 1,8,-1
 1123 1491 l 1,9,10
 1359 1478 1359 1478 1463 1399 c 0,11,12
 1586 1305 1586 1305 1550 1098 c 0,13,14
 1530 989 1530 989 1465.5 912.5 c 128,-1,15
 1401 836 1401 836 1298 799 c 1,16,17
 1416 763 1416 763 1466.5 666 c 128,-1,18
 1517 569 1517 569 1492 428 c 0,19,20
 1454 212 1454 212 1290 106 c 0,21,22
 1135 6 1135 6 861 0 c 1,0,-1
1023 922 m 17,23,24
 1031 926 1031 926 1047 932 c 128,-1,25
 1063 938 1063 938 1073.5 943 c 128,-1,26
 1084 948 1084 948 1092 955 c 0,27,28
 1146 995 1146 995 1160 1073 c 0,29,30
 1174 1150 1174 1150 1134 1190 c 0,31,32
 1111 1214 1111 1214 1076 1222 c 1,33,-1
 1023 922 l 17,23,24
907 266 m 1,34,35
 978 274 978 274 1028 311 c 0,36,37
 1095 360 1095 360 1113 459 c 0,38,39
 1130 556 1130 556 1081 604 c 0,40,41
 1044 640 1044 640 975 649 c 1,42,-1
 907 266 l 1,34,35
712 262 m 1,43,-1
 781 653 l 1,44,-1
 688 653 l 1,45,-1
 619 262 l 1,46,-1
 712 262 l 1,43,-1
828 915 m 1,47,-1
 884 1231 l 1,48,-1
 790 1231 l 1,49,-1
 734 915 l 1,50,-1
 828 915 l 1,47,-1
1076 1222 m 0,51,-1
907 266 m 0,52,-1
975 649 m 0,53,-1
EndSplineSet
EndChar
StartChar: uni0E40
Encoding: 3648 3648 183
Width: 850
Flags: HW
HStem: 1186 20G<182 490>
VStem: 182 308<523 1206>
Fore
582 523 m 5,0,-1
 618 523 l 6,1,2
 775 523 775 523 824 439.5 c 132,-1,3
 873 356 873 356 857 265 c 4,4,5
 835 144 835 144 729.5 65.5 c 132,-1,6
 624 -13 624 -13 486 -10 c 4,7,8
 364 -8 364 -8 287.5 77 c 132,-1,9
 211 162 211 162 243 347 c 6,10,-1
 395 1206 l 5,11,-1
 703 1206 l 5,12,-1
 582 523 l 5,0,-1
590 345 m 156,-1,14
 559 345 559 345 532 324 c 132,-1,15
 505 303 505 303 499.5 272 c 132,-1,16
 494 241 494 241 513 218.5 c 132,-1,17
 532 196 532 196 563.5 196 c 132,-1,18
 595 196 595 196 620.5 218.5 c 132,-1,19
 646 241 646 241 652 272 c 4,20,21
 657 302 657 302 639 323.5 c 132,-1,13
 621 345 621 345 590 345 c 156,-1,14
EndSplineSet
EndChar
StartChar: uni0E41
Encoding: 3649 3649 184
Width: 1570
Flags: HW
HStem: -10 206<487.55 569.45 1207.55 1289.45> 345 178<490 569.3 1210 1289.3> 1186 20G<182 490 902 1210>
VStem: 182 308<523 1206> 902 308<523 1206>
Back
258 282 m 4,0,1
 258 399 258 399 340.5 481.5 c 0,2,3
 423 564 423 564 540 564 c 0,4,5
 657 564 657 564 739.5 481.5 c 0,6,7
 822 399 822 399 822 282 c 0,8,9
 822 165 822 165 739.5 82.5 c 0,10,11
 657 0 657 0 540 0 c 0,12,13
 423 0 423 0 340.5 82.5 c 0,14,15
 258 165 258 165 258 282 c 4,0,1
461 282 m 0,8,9
 461 314 461 314 484 337 c 0,10,11
 507 360 507 360 539 360 c 0,12,13
 571 360 571 360 594 337 c 0,14,15
 617 314 617 314 617 282 c 0,16,17
 617 250 617 250 594 227 c 0,18,19
 571 204 571 204 539 204 c 0,20,21
 507 204 507 204 484 227 c 0,22,23
 461 250 461 250 461 282 c 0,8,9
EndSplineSet
Fore
1302 523 m 1,0,-1
 1338 523 l 2,1,2
 1495 523 1495 523 1544 439.5 c 128,-1,3
 1593 356 1593 356 1577 265 c 0,4,5
 1555 144 1555 144 1449.5 65.5 c 128,-1,6
 1344 -13 1344 -13 1206 -10 c 0,7,8
 1084 -8 1084 -8 1007.5 77 c 128,-1,9
 931 162 931 162 963 347 c 2,10,-1
 1115 1206 l 1,11,-1
 1423 1206 l 1,12,-1
 1302 523 l 1,0,-1
1310 345 m 152,-1,14
 1279 345 1279 345 1252 324 c 128,-1,15
 1225 303 1225 303 1219.5 272 c 128,-1,16
 1214 241 1214 241 1233 218.5 c 128,-1,17
 1252 196 1252 196 1283.5 196 c 128,-1,18
 1315 196 1315 196 1340.5 218.5 c 128,-1,19
 1366 241 1366 241 1372 272 c 0,20,21
 1377 302 1377 302 1359 323.5 c 128,-1,13
 1341 345 1341 345 1310 345 c 152,-1,14
582 523 m 1,22,-1
 618 523 l 2,23,24
 775 523 775 523 824 439.5 c 128,-1,25
 873 356 873 356 857 265 c 0,26,27
 835 144 835 144 729.5 65.5 c 128,-1,28
 624 -13 624 -13 486 -10 c 0,29,30
 364 -8 364 -8 287.5 77 c 128,-1,31
 211 162 211 162 243 347 c 2,32,-1
 395 1206 l 1,33,-1
 703 1206 l 1,34,-1
 582 523 l 1,22,-1
590 345 m 152,-1,36
 559 345 559 345 532 324 c 128,-1,37
 505 303 505 303 499.5 272 c 128,-1,38
 494 241 494 241 513 218.5 c 128,-1,39
 532 196 532 196 563.5 196 c 128,-1,40
 595 196 595 196 620.5 218.5 c 128,-1,41
 646 241 646 241 652 272 c 0,42,43
 657 302 657 302 639 323.5 c 128,-1,35
 621 345 621 345 590 345 c 152,-1,36
EndSplineSet
EndChar
StartChar: uni0E42
Encoding: 3650 3650 185
Width: 1090
Flags: HW
HStem: 1817 241<380.722 676.5>
VStem: 424 307<523 1481.01>
Fore
833 345 m 152,-1,1
 802 345 802 345 775 324 c 128,-1,2
 748 303 748 303 742.5 272 c 128,-1,3
 737 241 737 241 756 218.5 c 128,-1,4
 775 196 775 196 806.5 196 c 128,-1,5
 838 196 838 196 863.5 218.5 c 128,-1,6
 889 241 889 241 895 272 c 0,7,8
 900 302 900 302 882 323.5 c 128,-1,0
 864 345 864 345 833 345 c 152,-1,1
823 523 m 1,9,-1
 861 523 l 2,10,11
 1018 523 1018 523 1067 439.5 c 128,-1,12
 1116 356 1116 356 1100 265 c 0,13,14
 1078 144 1078 144 972.5 65.5 c 128,-1,15
 867 -13 867 -13 729 -10 c 0,16,17
 607 -8 607 -8 530 77.5 c 128,-1,18
 453 163 453 163 485 347 c 2,19,-1
 669 1388 l 2,20,21
 685 1481 685 1481 539 1524 c 2,22,-1
 229 1615 l 1,23,-1
 283 1921 l 1,24,25
 479 1997 479 1997 627 2027.5 c 128,-1,26
 775 2058 775 2058 886 2058 c 0,27,28
 1185 2058 1185 2058 1303 1954 c 1,29,-1
 1073 1691 l 1,30,31
 1068 1747 1068 1747 1015 1782 c 128,-1,32
 962 1817 962 1817 847 1817 c 0,33,34
 776 1817 776 1817 704.5 1807.5 c 128,-1,35
 633 1798 633 1798 570 1771 c 1,36,-1
 875 1661 l 2,37,38
 1015 1610 1015 1610 975 1384 c 2,39,-1
 823 523 l 1,9,-1
EndSplineSet
EndChar
StartChar: uni0E43
Encoding: 3651 3651 186
Width: 1040
Flags: HW
HStem: 1408 160<143.528 225.29>
VStem: 324 307<523 1143.81>
Fore
733 345 m 152,-1,1
 702 345 702 345 675 324 c 128,-1,2
 648 303 648 303 642.5 272 c 128,-1,3
 637 241 637 241 656 218.5 c 128,-1,4
 675 196 675 196 706.5 196 c 128,-1,5
 738 196 738 196 763.5 218.5 c 128,-1,6
 789 241 789 241 795 272 c 0,7,8
 800 302 800 302 782 323.5 c 128,-1,0
 764 345 764 345 733 345 c 152,-1,1
723 523 m 1,9,-1
 761 523 l 2,10,11
 918 523 918 523 967 439.5 c 128,-1,12
 1016 356 1016 356 1000 265 c 0,13,14
 978 144 978 144 872.5 65.5 c 128,-1,15
 767 -13 767 -13 629 -10 c 0,16,17
 507 -8 507 -8 430 77.5 c 128,-1,18
 353 163 353 163 385 347 c 2,19,-1
 525 1142 l 2,20,21
 536 1200 536 1200 565.5 1256 c 128,-1,22
 595 1312 595 1312 630 1352.5 c 128,-1,23
 665 1393 665 1393 699 1431.5 c 128,-1,24
 733 1470 733 1470 760.5 1513 c 128,-1,25
 788 1556 788 1556 799 1605 c 0,26,27
 813 1666 813 1666 781 1724.5 c 128,-1,28
 749 1783 749 1783 672 1804 c 1,29,30
 707 1780 707 1780 719 1746 c 128,-1,31
 731 1712 731 1712 718 1634 c 0,32,33
 702 1544 702 1544 620.5 1475.5 c 128,-1,34
 539 1407 539 1407 432 1408 c 0,35,36
 330 1409 330 1409 275 1475 c 128,-1,37
 220 1541 220 1541 237 1652 c 0,38,39
 265 1834 265 1834 408.5 1940 c 128,-1,40
 552 2046 552 2046 730 2052 c 0,41,42
 928 2058 928 2058 1034.5 1924.5 c 128,-1,43
 1141 1791 1141 1791 1114 1624 c 0,44,45
 1105 1566 1105 1566 1075 1510 c 128,-1,46
 1045 1454 1045 1454 1007.5 1406.5 c 128,-1,47
 970 1359 970 1359 932 1310.5 c 128,-1,48
 894 1262 894 1262 863 1200.5 c 128,-1,49
 832 1139 832 1139 820 1074 c 2,50,-1
 723 523 l 1,9,-1
492 1717 m 24,51,52
 460 1718 460 1718 433 1696.5 c 128,-1,53
 406 1675 406 1675 399 1644 c 0,54,55
 393 1613 393 1613 411.5 1591 c 128,-1,56
 430 1569 430 1569 461 1568 c 0,57,58
 492 1567 492 1567 518 1588.5 c 128,-1,59
 544 1610 544 1610 551 1641 c 0,60,61
 557 1672 557 1672 540 1694 c 128,-1,62
 523 1716 523 1716 492 1717 c 24,51,52
EndSplineSet
EndChar
StartChar: uni0E44
Encoding: 3652 3652 187
Width: 1100
Flags: HW
VStem: 414 307<523 1151.85>
Fore
823 345 m 152,-1,1
 792 345 792 345 765 324 c 128,-1,2
 738 303 738 303 732.5 272 c 128,-1,3
 727 241 727 241 746 218.5 c 128,-1,4
 765 196 765 196 796.5 196 c 128,-1,5
 828 196 828 196 853.5 218.5 c 128,-1,6
 879 241 879 241 885 272 c 0,7,8
 890 302 890 302 872 323.5 c 128,-1,0
 854 345 854 345 823 345 c 152,-1,1
813 523 m 1,9,-1
 851 523 l 2,10,11
 1008 523 1008 523 1057 439.5 c 128,-1,12
 1106 356 1106 356 1090 265 c 0,13,14
 1068 144 1068 144 962.5 65.5 c 128,-1,15
 857 -13 857 -13 719 -10 c 0,16,17
 597 -8 597 -8 520 77.5 c 128,-1,18
 443 163 443 163 475 347 c 2,19,-1
 607 1092 l 6,20,21
 618 1159 618 1159 645 1227 c 132,-1,22
 672 1295 672 1295 702 1344 c 132,-1,23
 732 1393 732 1393 757.5 1433.5 c 132,-1,24
 783 1474 783 1474 811 1531 c 4,25,26
 840 1590 840 1590 846 1631 c 6,27,-1
 851 1672 l 1,28,29
 783 1665 783 1665 715.5 1591 c 128,-1,30
 648 1517 648 1517 607 1424 c 1,31,-1
 355 1424 l 1,32,33
 353 1503 353 1503 333.5 1587 c 128,-1,34
 314 1671 314 1671 272 1748 c 128,-1,35
 230 1825 230 1825 175 1856 c 1,36,-1
 256 2064 l 1,37,38
 295 2034 295 2034 336 1996 c 128,-1,39
 377 1958 377 1958 423 1908.5 c 128,-1,40
 469 1859 469 1859 501 1803.5 c 128,-1,41
 533 1748 533 1748 540 1700 c 1,42,43
 571 1765 571 1765 622.5 1819 c 128,-1,44
 674 1873 674 1873 727 1905 c 128,-1,45
 780 1937 780 1937 826.5 1954.5 c 128,-1,46
 873 1972 873 1972 904 1972 c 2,47,-1
 1122 1972 l 2,48,49
 1138 1972 1138 1972 1157 1942.5 c 128,-1,50
 1176 1913 1176 1913 1188 1869.5 c 128,-1,51
 1200 1826 1200 1826 1194 1792 c 2,52,-1
 1165 1628 l 6,53,54
 1152 1556 1152 1556 1125 1492 c 132,-1,55
 1098 1428 1098 1428 1066.5 1380.5 c 132,-1,56
 1035 1333 1035 1333 1004 1288 c 132,-1,57
 973 1243 973 1243 947.5 1192 c 132,-1,58
 922 1141 922 1141 913 1088 c 6,59,-1
 813 523 l 1,9,-1
EndSplineSet
EndChar
StartChar: uni0E45
Encoding: 3653 3653 188
Width: 1210
Flags: HMW
HStem: 990 240<298 298>
VStem: 572 311<-410 862>
Fore
811 -410 m 1,0,-1
 1021 780 l 2,1,2
 1062 1016 1062 1016 940.5 1122.5 c 128,-1,3
 819 1229 819 1229 515 1230 c 4,4,5
 349 1231 349 1231 244 1183.5 c 128,-1,6
 139 1136 139 1136 78 1092 c 1,7,-1
 77 846 l 1,8,9
 135 900 135 900 229 945.5 c 128,-1,10
 323 991 323 991 473 990 c 4,11,12
 601 989 601 989 662.5 925.5 c 128,-1,13
 724 862 724 862 700 726 c 2,14,-1
 500 -410 l 1,15,-1
 811 -410 l 1,0,-1
EndSplineSet
EndChar
StartChar: uni0E46
Encoding: 3654 3654 189
Width: 1460
Flags: HW
HStem: 436 165<313.1 400.561>
VStem: 95 182<636.4 748> 940 310<-411 930.8>
Fore
547 924 m 5,0,1
 642 912 642 912 693.5 844 c 132,-1,2
 745 776 745 776 730 692 c 4,3,4
 710 576 710 576 619 506 c 132,-1,5
 528 436 528 436 433 436 c 4,6,7
 321 436 321 436 259 518 c 132,-1,8
 197 600 197 600 227 748 c 4,9,10
 248 849 248 849 299.5 937.5 c 132,-1,11
 351 1026 351 1026 418 1085.5 c 132,-1,12
 485 1145 485 1145 560 1181 c 132,-1,13
 635 1217 635 1217 706 1224 c 5,14,15
 705 1220 705 1220 842 1116 c 5,16,-1
 1018 1224 l 5,17,18
 1087 1220 1087 1220 1148 1199.5 c 132,-1,19
 1209 1179 1209 1179 1272.5 1125 c 132,-1,20
 1336 1071 1336 1071 1372 983.5 c 132,-1,21
 1408 896 1408 896 1388 780 c 6,22,-1
 1178 -411 l 5,23,-1
 869 -411 l 5,24,-1
 1075 764 l 6,25,26
 1099 902 1099 902 976 984 c 5,27,-1
 800 896 l 5,28,-1
 643 992 l 5,29,30
 579 968 579 968 547 924 c 5,0,1
462 601 m 156,-1,32
 495 600 495 600 522.5 621.5 c 132,-1,33
 550 643 550 643 557 675 c 132,-1,34
 564 707 564 707 545 730 c 132,-1,35
 526 753 526 753 493 754 c 132,-1,36
 460 755 460 755 431.5 733 c 132,-1,37
 403 711 403 711 397 678 c 4,38,39
 390 646 390 646 409.5 624 c 132,-1,31
 429 602 429 602 462 601 c 156,-1,32
EndSplineSet
EndChar
StartChar: uni0E47
Encoding: 3655 3655 190
Width: 0
Flags: HW
HStem: 1514 76<-387.449 -324.622> 1614 117<-532.545 -293.906>
VStem: -868 129<1434.5 1573.6> -306 78<1431.25 1495.51>
AnchorPoint: "AboveMark" -297.009 1293 mark 0
AnchorPoint: "AboveBase" 75.9912 1293 mark 0
Fore
-88 1514 m 24,0,1
 -110 1514 -110 1514 -128 1499 c 128,-1,2
 -146 1484 -146 1484 -150 1463 c 0,3,4
 -154 1441 -154 1441 -140.5 1426.5 c 128,-1,5
 -127 1412 -127 1412 -105 1412 c 0,6,7
 -85 1412 -85 1412 -68.5 1427.5 c 128,-1,8
 -52 1443 -52 1443 -48 1464 c 128,-1,9
 -44 1485 -44 1485 -56 1499.5 c 128,-1,10
 -68 1514 -68 1514 -88 1514 c 24,0,1
152 1734 m 1,11,12
 115 1687 115 1687 57.5 1658.5 c 128,-1,13
 0 1630 0 1630 -53 1624 c 128,-1,14
 -106 1618 -106 1618 -159 1614.5 c 128,-1,15
 -212 1611 -212 1611 -239 1614 c 0,16,17
 -335 1614 -335 1614 -401.5 1584.5 c 128,-1,18
 -468 1555 -468 1555 -476 1493 c 0,19,20
 -481 1448 -481 1448 -460 1434 c 1,21,-1
 -454 1448 l 2,22,23
 -447 1463 -447 1463 -435 1480 c 128,-1,24
 -423 1497 -423 1497 -399 1511 c 128,-1,25
 -375 1525 -375 1525 -346 1525 c 0,26,27
 -321 1527 -321 1527 -285 1489.5 c 128,-1,28
 -249 1452 -249 1452 -229 1452 c 1,29,30
 -229 1456 l 2,31,-1
 -229 1458 l 1,32,-1
 -224 1474 l 1,33,-1
 -223 1478 l 2,34,35
 -215 1527 -215 1527 -173.5 1558.5 c 128,-1,36
 -132 1590 -132 1590 -82 1590 c 0,37,38
 -27 1590 -27 1590 6.5 1559.5 c 128,-1,39
 40 1529 40 1529 31 1469 c 0,40,41
 22 1408 22 1408 -32.5 1355 c 128,-1,42
 -87 1302 -87 1302 -169 1302 c 0,43,44
 -205 1302 -205 1302 -236.5 1316 c 128,-1,45
 -268 1330 -268 1330 -286 1346.5 c 128,-1,46
 -304 1363 -304 1363 -322.5 1377 c 128,-1,47
 -341 1391 -341 1391 -354 1391 c 0,48,49
 -373 1391 -373 1391 -383.5 1372.5 c 128,-1,50
 -394 1354 -394 1354 -400.5 1330.5 c 128,-1,51
 -407 1307 -407 1307 -410 1303 c 1,52,53
 -444 1303 -444 1303 -471.5 1306.5 c 128,-1,54
 -499 1310 -499 1310 -529.5 1323.5 c 128,-1,55
 -560 1337 -560 1337 -578 1359 c 128,-1,56
 -596 1381 -596 1381 -603.5 1422 c 128,-1,57
 -611 1463 -611 1463 -600 1518 c 0,58,59
 -590 1570 -590 1570 -555.5 1610.5 c 128,-1,60
 -521 1651 -521 1651 -477 1674 c 128,-1,61
 -433 1697 -433 1697 -381.5 1711 c 128,-1,62
 -330 1725 -330 1725 -289 1729.5 c 128,-1,63
 -248 1734 -248 1734 -217 1732 c 0,64,65
 -196 1729 -196 1729 -150 1732 c 128,-1,66
 -104 1735 -104 1735 -56.5 1741 c 128,-1,67
 -9 1747 -9 1747 37 1776 c 128,-1,68
 83 1805 83 1805 105 1853 c 1,69,-1
 152 1734 l 1,11,12
EndSplineSet
EndChar
StartChar: uni0E48
Encoding: 3656 3656 191
Width: 0
Flags: HW
VStem: -422 212<1822 2178>
AnchorPoint: "AboveMark" 39.8672 1746 mark 0
Fore
-38 2178 m 29,0,-1
 174 2178 l 5,1,-1
 111 1822 l 1,2,-1
 -101 1822 l 1,3,-1
 -38 2178 l 29,0,-1
EndSplineSet
Substitution2: "Single Substitution lookup 7" uni0E48.low
MultipleSubs2: "Multiple Substitution lookup 6" uni0E4D uni0E48
EndChar
StartChar: uni0E49
Encoding: 3657 3657 192
Width: 0
Flags: HW
HStem: 1764 132<-573 -476.62> 2128 88<-498.23 -426.871>
VStem: -605 81<2037.35 2103.2> -403 102<2039.5 2105.3>
AnchorPoint: "AboveMark" 31.751 1734 mark 0
Fore
-238 2081 m 4,0,1
 -229 2135 -229 2135 -174 2175.5 c 128,-1,2
 -119 2216 -119 2216 -66 2216 c 0,3,4
 2 2216 2 2216 37 2170 c 128,-1,5
 72 2124 72 2124 64 2070 c 0,6,7
 53 1995 53 1995 -9 1928 c 1,8,9
 140 1954 140 1954 332 2184 c 1,10,-1
 422 2042 l 1,11,12
 344 1960 344 1960 248 1902 c 128,-1,13
 152 1844 152 1844 58.5 1815.5 c 128,-1,14
 -35 1787 -35 1787 -113 1775 c 128,-1,15
 -191 1763 -191 1763 -262 1764 c 1,16,-1
 -237 1896 l 1,17,18
 -185 1901 -185 1901 -172.5 1905 c 128,-1,19
 -160 1909 -160 1909 -132 1934 c 1,20,21
 -180 1930 -180 1930 -215.5 1968 c 128,-1,22
 -251 2006 -251 2006 -238 2081 c 4,0,1
-110 2014 m 24,23,24
 -85 2014 -85 2014 -64 2030.5 c 128,-1,25
 -43 2047 -43 2047 -38 2072 c 0,26,27
 -33 2095 -33 2095 -48 2111.5 c 128,-1,28
 -63 2128 -63 2128 -87 2128 c 0,29,30
 -112 2128 -112 2128 -132.5 2112 c 128,-1,31
 -153 2096 -153 2096 -158.5 2072 c 128,-1,32
 -164 2048 -164 2048 -149 2031 c 128,-1,33
 -134 2014 -134 2014 -110 2014 c 24,23,24
EndSplineSet
Substitution2: "Single Substitution lookup 7" uni0E49.low
MultipleSubs2: "Multiple Substitution lookup 6" uni0E4D uni0E49
EndChar
StartChar: uni0E4A
Encoding: 3658 3658 193
Width: 0
Flags: HW
HStem: 2010 66<-633.96 -569.551>
VStem: -549 71<1929.69 1990.2> -348 136<1982.97 2109.3>
AnchorPoint: "AboveMark" -152.954 1730 mark 0
Fore
-204 1958 m 24,0,1
 -200 1980 -200 1980 -213 1995 c 128,-1,2
 -226 2010 -226 2010 -248 2010 c 128,-1,3
 -270 2010 -270 2010 -288.5 1994 c 128,-1,4
 -307 1978 -307 1978 -311 1956 c 0,5,6
 -314 1937 -314 1937 -301 1924.5 c 128,-1,7
 -288 1912 -288 1912 -267 1912 c 0,8,9
 -245 1912 -245 1912 -226 1925 c 128,-1,10
 -207 1938 -207 1938 -204 1958 c 24,0,1
-227 2116 m 1,11,12
 -257 2093 -257 2093 -263 2087.5 c 128,-1,13
 -269 2082 -269 2082 -287 2058 c 1,14,-1
 -287 2064 l 2,15,16
 -286 2070 -286 2070 -284 2071 c 128,-1,17
 -282 2072 -282 2072 -270 2074 c 128,-1,18
 -258 2076 -258 2076 -236 2076 c 0,19,20
 -185 2075 -185 2075 -154.5 2040.5 c 128,-1,21
 -124 2006 -124 2006 -132 1962 c 0,22,23
 -142 1905 -142 1905 -188 1864 c 128,-1,24
 -234 1823 -234 1823 -297 1828 c 0,25,26
 -358 1833 -358 1833 -401.5 1881.5 c 128,-1,27
 -445 1930 -445 1930 -432 1996 c 0,28,29
 -418 2069 -418 2069 -363 2134.5 c 128,-1,30
 -308 2200 -308 2200 -219 2230 c 1,31,-1
 -107 2152 l 1,32,-1
 18 2232 l 1,33,34
 67 2214 67 2214 112.5 2160.5 c 128,-1,35
 158 2107 158 2107 148 2042 c 0,36,37
 144 2015 144 2015 134.5 1996 c 128,-1,38
 125 1977 125 1977 110.5 1964 c 128,-1,39
 96 1951 96 1951 75 1931 c 1,40,41
 130 1949 130 1949 194 2038 c 128,-1,42
 258 2127 258 2127 297 2227 c 1,43,-1
 421 2118 l 1,44,45
 406 2075 406 2075 363 2025.5 c 128,-1,46
 320 1976 320 1976 263.5 1932 c 128,-1,47
 207 1888 207 1888 135 1858.5 c 128,-1,48
 63 1829 63 1829 -4 1828 c 1,49,-1
 -51 1936 l 1,50,51
 -24 1958 -24 1958 -10 1978 c 128,-1,52
 4 1998 4 1998 10 2030 c 0,53,54
 21 2091 21 2091 -13 2118 c 1,55,-1
 -127 2050 l 1,56,-1
 -227 2116 l 1,11,12
EndSplineSet
Substitution2: "Single Substitution lookup 7" uni0E4A.low
MultipleSubs2: "Multiple Substitution lookup 6" uni0E4D uni0E4A
EndChar
StartChar: uni0E4B
Encoding: 3659 3659 194
Width: 0
Flags: HW
HStem: 1964 179<-625 -488 -300 -163>
VStem: -488 188<1827 1963 2143 2279>
AnchorPoint: "AboveMark" -71.6016 1732 mark 0
Fore
183 1964 m 1,0,-1
 46 1964 l 1,1,-1
 22 1827 l 1,2,-1
 -166 1827 l 1,3,-1
 -142 1963 l 1,4,-1
 -279 1963 l 1,5,-1
 -247 2142 l 1,6,-1
 -110 2142 l 1,7,-1
 -86 2279 l 1,8,-1
 102 2280 l 1,9,-1
 78 2143 l 1,10,-1
 215 2143 l 1,11,-1
 183 1964 l 1,0,-1
EndSplineSet
Substitution2: "Single Substitution lookup 7" uni0E4B.low
MultipleSubs2: "Multiple Substitution lookup 6" uni0E4D uni0E4B
EndChar
StartChar: uni0E4C
Encoding: 3660 3660 195
Width: 0
Flags: HW
HStem: 1818 110<-496.071 -422.9>
VStem: -658 130<1956.9 2030.32> -394 122<1957.6 2032.07>
AnchorPoint: "AboveBase" -151.428 1750 mark 0
Fore
418 2282 m 1,0,-1
 416 2120 l 1,1,2
 365 2093 365 2093 303.5 2087.5 c 128,-1,3
 242 2082 242 2082 175.5 2087 c 128,-1,4
 109 2092 109 2092 78 2088 c 1,5,6
 85 2075 85 2075 86.5 2059 c 128,-1,7
 88 2043 88 2043 80 1994 c 0,8,9
 69 1933 69 1933 6 1875.5 c 128,-1,10
 -57 1818 -57 1818 -139 1818 c 0,11,12
 -233 1818 -233 1818 -275.5 1874.5 c 128,-1,13
 -318 1931 -318 1931 -305 2002 c 0,14,15
 -292 2077 -292 2077 -227 2137.5 c 128,-1,16
 -162 2198 -162 2198 -70 2210 c 0,17,18
 -57 2212 -57 2212 61.5 2219.5 c 128,-1,19
 180 2227 180 2227 277 2241.5 c 128,-1,20
 374 2256 374 2256 418 2282 c 1,0,-1
-94 2064 m 24,21,22
 -123 2064 -123 2064 -147.5 2042.5 c 128,-1,23
 -172 2021 -172 2021 -177 1992 c 0,24,25
 -182 1965 -182 1965 -164 1946.5 c 128,-1,26
 -146 1928 -146 1928 -118 1928 c 0,27,28
 -91 1928 -91 1928 -69 1947.5 c 128,-1,29
 -47 1967 -47 1967 -42 1994 c 0,30,31
 -37 2022 -37 2022 -52 2043 c 128,-1,32
 -67 2064 -67 2064 -94 2064 c 24,21,22
EndSplineSet
Substitution2: "Single Substitution lookup 7" uni0E4C.low
MultipleSubs2: "Multiple Substitution lookup 6" uni0E4D uni0E4C
EndChar
StartChar: uni0E4D
Encoding: 3661 3661 196
Width: 0
Flags: HW
HStem: 1336 180<-456 -352> 1708 180<-456 -352>
VStem: -680 180<1560 1664> -308 180<1560 1664>
AnchorPoint: "AboveMark" -38.3174 2003 basemark 0
AnchorPoint: "AboveBase" 27.0752 1319 mark 0
Fore
-396 1612 m 132,-1,1
 -376 1726 -376 1726 -280.5 1807 c 132,-1,2
 -185 1888 -185 1888 -71 1888 c 132,-1,3
 43 1888 43 1888 109.5 1807 c 132,-1,4
 176 1726 176 1726 156 1612 c 132,-1,5
 136 1498 136 1498 41 1417 c 132,-1,6
 -54 1336 -54 1336 -168 1336 c 132,-1,7
 -282 1336 -282 1336 -349 1417 c 132,-1,0
 -416 1498 -416 1498 -396 1612 c 132,-1,1
-216 1612 m 132,-1,9
 -223 1572 -223 1572 -200 1544 c 132,-1,10
 -177 1516 -177 1516 -137 1516 c 132,-1,11
 -97 1516 -97 1516 -64 1544 c 132,-1,12
 -31 1572 -31 1572 -24 1612 c 132,-1,13
 -17 1652 -17 1652 -40 1680 c 132,-1,14
 -63 1708 -63 1708 -103 1708 c 132,-1,15
 -143 1708 -143 1708 -176 1680 c 132,-1,8
 -209 1652 -209 1652 -216 1612 c 132,-1,9
EndSplineSet
Substitution2: "Single Substitution lookup 5" uni0E4D.high
EndChar
StartChar: uni0E4E
Encoding: 3662 3662 197
Width: 0
Flags: HW
HStem: 1256 150<-373.1 -132> 1538 132<-348.3 -165> 1797 144<-378.253 -163.625>
VStem: -577 184<1691.7 1814.7>
AnchorPoint: "AboveBase" 76.3535 1227 mark 0
Fore
38 1406 m 2,0,-1
 116 1406 l 1,1,-1
 89 1256 l 1,2,-1
 5 1256 l 2,3,4
 3 1256 3 1256 -0 1256 c 0,5,6
 -43 1256 -43 1256 -64 1256 c 128,-1,7
 -85 1256 -85 1256 -123.5 1258 c 128,-1,8
 -162 1260 -162 1260 -182.5 1263 c 128,-1,9
 -203 1266 -203 1266 -233 1273 c 128,-1,10
 -263 1280 -263 1280 -279 1289.5 c 128,-1,11
 -295 1299 -295 1299 -313.5 1313.5 c 128,-1,12
 -332 1328 -332 1328 -339.5 1347 c 128,-1,13
 -347 1366 -347 1366 -350.5 1392 c 128,-1,14
 -354 1418 -354 1418 -348 1450 c 0,15,16
 -340 1495 -340 1495 -287 1543 c 128,-1,17
 -234 1591 -234 1591 -188 1602 c 1,18,19
 -230 1626 -230 1626 -253.5 1666.5 c 128,-1,20
 -277 1707 -277 1707 -267 1758 c 0,21,22
 -257 1807 -257 1807 -223 1845 c 128,-1,23
 -189 1883 -189 1883 -141 1904 c 128,-1,24
 -93 1925 -93 1925 -39.5 1934 c 128,-1,25
 14 1943 14 1943 66 1941 c 0,26,27
 166 1937 166 1937 239 1918 c 1,28,-1
 215 1773 l 1,29,30
 124 1797 124 1797 51 1797 c 0,31,32
 -76 1797 -76 1797 -87 1738 c 0,33,34
 -99 1670 -99 1670 60 1670 c 2,35,-1
 130 1670 l 1,36,-1
 106 1538 l 1,37,-1
 41 1538 l 2,38,39
 -50 1538 -50 1538 -98.5 1519.5 c 128,-1,40
 -147 1501 -147 1501 -153 1470 c 0,41,42
 -158 1443 -158 1443 -145.5 1428.5 c 128,-1,43
 -133 1414 -133 1414 -106.5 1410 c 128,-1,44
 -80 1406 -80 1406 -43 1405.5 c 128,-1,45
 -6 1405 -6 1405 38 1406 c 2,0,-1
EndSplineSet
EndChar
StartChar: uni0E4F
Encoding: 3663 3663 198
Width: 1310
Flags: HW
HStem: -1 198<529 787.7> 290 156<591 719.7> 677 156<588 718> 933 198<521.85 783.15>
VStem: 87 198<428.3 688.3> 374 156<496.3 623.7> 773 156<498.9 623.7> 1023 198<432.3 692.3>
Fore
772 677 m 152,-1,1
 722 677 722 677 679.5 643 c 128,-1,2
 637 609 637 609 629 560 c 0,3,4
 621 511 621 511 653 478.5 c 128,-1,5
 685 446 685 446 735 446 c 0,6,7
 784 446 784 446 824 479.5 c 128,-1,8
 864 513 864 513 872 560 c 0,9,10
 880 609 880 609 851 643 c 128,-1,0
 822 677 822 677 772 677 c 152,-1,1
383 557 m 24,11,12
 367 458 367 458 403 374.5 c 128,-1,13
 439 291 439 291 516.5 243.5 c 128,-1,14
 594 196 594 196 694 197 c 0,15,16
 793 198 793 198 886 246.5 c 128,-1,17
 979 295 979 295 1042 378.5 c 128,-1,18
 1105 462 1105 462 1122 561 c 0,19,20
 1139 662 1139 662 1104.5 748 c 128,-1,21
 1070 834 1070 834 994 884 c 128,-1,22
 918 934 918 934 817 933 c 128,-1,23
 716 932 716 932 622.5 881.5 c 128,-1,24
 529 831 529 831 464.5 744.5 c 128,-1,25
 400 658 400 658 383 557 c 24,11,12
185 557 m 24,26,27
 206 673 206 673 268.5 779 c 128,-1,28
 331 885 331 885 420.5 962 c 128,-1,29
 510 1039 510 1039 623 1085 c 128,-1,30
 736 1131 736 1131 851.5 1131 c 128,-1,31
 967 1131 967 1131 1064.5 1086 c 128,-1,32
 1162 1041 1162 1041 1224.5 964.5 c 128,-1,33
 1287 888 1287 888 1313.5 782.5 c 128,-1,34
 1340 677 1340 677 1320 561 c 0,35,36
 1301 447 1301 447 1238 343 c 128,-1,37
 1175 239 1175 239 1086.5 164 c 128,-1,38
 998 89 998 89 886 44 c 128,-1,39
 774 -1 774 -1 659 -1 c 128,-1,40
 544 -1 544 -1 446.5 42.5 c 128,-1,41
 349 86 349 86 285 160.5 c 128,-1,42
 221 235 221 235 193.5 338.5 c 128,-1,43
 166 442 166 442 185 557 c 24,26,27
473 560 m 24,44,45
 493 673 493 673 589 753 c 128,-1,46
 685 833 685 833 800 833 c 0,47,48
 914 833 914 833 981 753 c 128,-1,49
 1048 673 1048 673 1028 560 c 0,50,51
 1009 448 1009 448 914.5 369 c 128,-1,52
 820 290 820 290 707 290 c 0,53,54
 592 290 592 290 523 368.5 c 128,-1,55
 454 447 454 447 473 560 c 24,44,45
EndSplineSet
EndChar
StartChar: uni0E50
Encoding: 3664 3664 199
Width: 1330
Flags: HW
HStem: 0 263<566.6 814.3> 802 263<569.3 770.8>
VStem: 108 264<434.5 632.1> 959 263<392 633.5>
Fore
670 0 m 28,0,1
 558 0 558 0 462.5 41.5 c 132,-1,2
 367 83 367 83 302.5 153.5 c 132,-1,3
 238 224 238 224 210.5 323.5 c 132,-1,4
 183 423 183 423 202.5 534 c 132,-1,5
 222 645 222 645 285.5 744 c 132,-1,6
 349 843 349 843 437 913 c 132,-1,7
 525 983 525 983 636 1024 c 132,-1,8
 747 1065 747 1065 858 1065 c 4,9,10
 969 1066 969 1066 1063 1024.5 c 132,-1,11
 1157 983 1157 983 1219 912.5 c 132,-1,12
 1281 842 1281 842 1308.5 743 c 132,-1,13
 1336 644 1336 644 1316 535 c 4,14,15
 1297 425 1297 425 1235 325.5 c 132,-1,16
 1173 226 1173 226 1086 155 c 132,-1,17
 999 84 999 84 890 42 c 132,-1,18
 781 0 781 0 670 0 c 28,0,1
813 802 m 28,19,20
 734 801 734 801 660 767 c 132,-1,21
 586 733 586 733 532.5 671 c 132,-1,22
 479 609 479 609 466 532 c 4,23,24
 452 457 452 457 482 394 c 132,-1,25
 512 331 512 331 574 297 c 132,-1,26
 636 263 636 263 714 263 c 4,27,28
 834 264 834 264 933 342.5 c 132,-1,29
 1032 421 1032 421 1054 536 c 4,30,31
 1067 611 1067 611 1038 672.5 c 132,-1,32
 1009 734 1009 734 949.5 768.5 c 132,-1,33
 890 803 890 803 813 802 c 28,19,20
EndSplineSet
EndChar
